{"glyphs":{"0":{"ha":658,"x_min":43,"x_max":615,"o":"m 43 161 l 43 811 l 204 972 l 454 972 l 615 811 l 615 161 l 454 0 l 204 0 l 43 161 m 276 761 l 276 211 l 382 211 l 382 761 l 276 761 z "},"1":{"ha":478,"x_min":51,"x_max":451,"o":"m 51 -6 l 51 176 l 138 183 l 138 742 l 51 729 l 51 917 l 371 972 l 371 183 l 451 176 l 451 -6 l 249 6 l 51 -6 z "},"2":{"ha":600,"x_min":43,"x_max":557,"o":"m 557 203 l 557 0 l 43 0 l 43 514 l 324 594 l 324 769 l 46 769 l 46 972 l 388 972 l 557 803 l 557 447 l 276 367 l 276 203 l 557 203 z "},"3":{"ha":565,"x_min":25,"x_max":536,"o":"m 375 0 l 25 0 l 25 194 l 296 194 l 296 403 l 69 403 l 69 589 l 271 589 l 271 778 l 35 778 l 35 972 l 350 972 l 511 811 l 511 582 l 424 508 l 536 417 l 536 161 l 375 0 z "},"4":{"ha":625,"x_min":25,"x_max":578,"o":"m 25 250 l 50 972 l 264 972 l 250 453 l 353 453 l 353 972 l 578 972 l 578 0 l 353 0 l 353 250 l 25 250 z "},"5":{"ha":600,"x_min":43,"x_max":557,"o":"m 557 769 l 276 769 l 276 611 l 557 575 l 557 169 l 388 0 l 46 0 l 46 203 l 324 203 l 324 406 l 43 442 l 43 972 l 557 972 l 557 769 z "},"6":{"ha":653,"x_min":43,"x_max":610,"o":"m 204 0 l 43 161 l 43 811 l 204 972 l 569 972 l 569 769 l 276 769 l 276 631 l 511 631 l 610 532 l 610 161 l 449 0 l 204 0 m 276 194 l 376 194 l 376 469 l 276 469 l 276 194 z "},"7":{"ha":603,"x_min":26,"x_max":576,"o":"m 51 0 l 343 639 l 343 778 l 251 778 l 251 622 l 26 622 l 26 972 l 576 972 l 576 611 l 314 0 l 51 0 z "},"8":{"ha":669,"x_min":36,"x_max":633,"o":"m 288 579 l 382 579 l 382 786 l 288 786 l 288 579 m 282 178 l 396 178 l 396 418 l 282 418 l 282 178 m 181 0 l 36 144 l 36 422 l 140 508 l 58 576 l 58 828 l 203 972 l 467 972 l 611 828 l 611 576 l 529 508 l 633 422 l 633 144 l 489 0 l 181 0 z "},"9":{"ha":653,"x_min":43,"x_max":610,"o":"m 449 972 l 610 811 l 610 161 l 449 0 l 83 0 l 83 203 l 376 203 l 376 342 l 142 342 l 43 440 l 43 811 l 204 972 l 449 972 m 376 778 l 276 778 l 276 503 l 376 503 l 376 778 z "}," ":{"ha":206,"x_min":0,"x_max":0,"o":""},"A":{"ha":672,"x_min":10,"x_max":663,"o":"m 10 0 l 139 972 l 533 972 l 663 0 l 429 0 l 410 192 l 263 192 l 243 0 l 10 0 m 281 368 l 392 368 l 349 788 l 324 788 l 281 368 z "},"B":{"ha":661,"x_min":47,"x_max":632,"o":"m 276 579 l 375 579 l 375 786 l 276 786 l 276 579 m 276 186 l 399 186 l 399 418 l 276 418 l 276 186 m 604 819 l 604 592 l 522 513 l 632 422 l 632 153 l 479 0 l 47 0 l 47 972 l 451 972 l 604 819 z "},"C":{"ha":543,"x_min":43,"x_max":515,"o":"m 43 161 l 43 811 l 204 972 l 510 972 l 510 754 l 294 754 l 294 218 l 515 218 l 515 0 l 204 0 l 43 161 z "},"D":{"ha":663,"x_min":47,"x_max":619,"o":"m 281 203 l 386 203 l 386 769 l 281 769 l 281 203 m 47 0 l 47 972 l 458 972 l 619 811 l 619 161 l 458 0 l 47 0 z "},"E":{"ha":514,"x_min":47,"x_max":489,"o":"m 47 0 l 47 972 l 475 972 l 475 778 l 281 778 l 281 589 l 456 589 l 456 403 l 281 403 l 281 194 l 489 194 l 489 0 l 47 0 z "},"F":{"ha":486,"x_min":47,"x_max":461,"o":"m 47 0 l 47 972 l 461 972 l 461 761 l 281 761 l 281 506 l 442 506 l 442 303 l 281 303 l 281 0 l 47 0 z "},"G":{"ha":633,"x_min":43,"x_max":590,"o":"m 43 161 l 43 811 l 204 972 l 571 972 l 571 760 l 278 760 l 278 211 l 385 211 l 385 432 l 329 432 l 329 618 l 590 618 l 590 0 l 204 0 l 43 161 z "},"H":{"ha":667,"x_min":47,"x_max":619,"o":"m 47 0 l 47 972 l 281 972 l 281 606 l 386 606 l 386 972 l 619 972 l 619 0 l 386 0 l 386 394 l 281 394 l 281 0 l 47 0 z "},"I":{"ha":431,"x_min":26,"x_max":404,"o":"m 26 -6 l 26 175 l 99 182 l 99 790 l 26 797 l 26 978 l 215 967 l 404 978 l 404 797 l 332 790 l 332 182 l 404 175 l 404 -6 l 215 6 l 26 -6 z "},"J":{"ha":625,"x_min":26,"x_max":582,"o":"m 26 161 l 26 458 l 260 458 l 260 203 l 349 203 l 349 769 l 65 769 l 65 972 l 582 972 l 582 161 l 421 0 l 188 0 l 26 161 z "},"K":{"ha":683,"x_min":47,"x_max":678,"o":"m 47 0 l 47 972 l 281 972 l 281 592 l 319 592 l 406 972 l 657 972 l 522 514 l 678 0 l 424 0 l 328 394 l 281 394 l 281 0 l 47 0 z "},"L":{"ha":597,"x_min":47,"x_max":569,"o":"m 47 0 l 47 972 l 281 972 l 281 194 l 364 194 l 364 389 l 569 389 l 569 0 l 47 0 z "},"M":{"ha":756,"x_min":47,"x_max":708,"o":"m 47 0 l 47 972 l 267 972 l 378 667 l 489 972 l 708 972 l 708 0 l 485 0 l 485 586 l 400 353 l 356 353 l 271 586 l 271 0 l 47 0 z "},"N":{"ha":678,"x_min":47,"x_max":631,"o":"m 47 0 l 47 972 l 232 972 l 417 446 l 417 972 l 631 972 l 631 0 l 446 0 l 261 526 l 261 0 l 47 0 z "},"O":{"ha":667,"x_min":43,"x_max":624,"o":"m 43 161 l 43 811 l 204 974 l 463 974 l 624 811 l 624 161 l 463 -1 l 204 -1 l 43 161 m 282 761 l 282 211 l 385 211 l 385 761 l 282 761 z "},"P":{"ha":649,"x_min":47,"x_max":619,"o":"m 281 378 l 386 378 l 386 786 l 281 786 l 281 378 m 619 811 l 619 353 l 458 192 l 281 192 l 281 0 l 47 0 l 47 972 l 458 972 l 619 811 z "},"Q":{"ha":667,"x_min":43,"x_max":629,"o":"m 43 161 l 43 813 l 204 974 l 454 974 l 615 813 l 615 189 l 382 42 l 382 761 l 276 761 l 276 200 l 629 96 l 629 -128 l 204 0 l 43 161 z "},"R":{"ha":667,"x_min":47,"x_max":656,"o":"m 281 460 l 386 460 l 386 786 l 281 786 l 281 460 m 619 811 l 619 429 l 529 339 l 656 0 l 389 0 l 338 275 l 281 275 l 281 0 l 47 0 l 47 972 l 458 972 l 619 811 z "},"S":{"ha":600,"x_min":43,"x_max":557,"o":"m 51 0 l 51 204 l 324 204 l 324 390 l 43 425 l 43 811 l 204 972 l 547 972 l 547 768 l 276 768 l 276 596 l 557 561 l 557 161 l 396 0 l 51 0 z "},"T":{"ha":531,"x_min":19,"x_max":511,"o":"m 140 0 l 140 761 l 19 761 l 19 972 l 511 972 l 511 761 l 382 761 l 382 0 l 140 0 z "},"U":{"ha":667,"x_min":47,"x_max":619,"o":"m 47 161 l 47 972 l 281 972 l 281 211 l 386 211 l 386 972 l 619 972 l 619 161 l 458 0 l 208 0 l 47 161 z "},"V":{"ha":672,"x_min":10,"x_max":663,"o":"m 139 0 l 10 972 l 251 972 l 324 201 l 349 201 l 421 972 l 663 972 l 533 0 l 139 0 z "},"W":{"ha":906,"x_min":22,"x_max":883,"o":"m 93 0 l 22 972 l 268 972 l 290 244 l 313 244 l 369 819 l 536 819 l 593 244 l 615 244 l 638 972 l 883 972 l 813 0 l 496 0 l 450 485 l 410 0 l 93 0 z "},"X":{"ha":678,"x_min":7,"x_max":671,"o":"m 7 0 l 142 513 l 24 972 l 269 972 l 332 606 l 346 606 l 408 972 l 654 972 l 536 513 l 671 0 l 422 0 l 351 394 l 326 394 l 256 0 l 7 0 z "},"Y":{"ha":667,"x_min":13,"x_max":654,"o":"m 217 0 l 217 292 l 131 292 l 13 972 l 261 972 l 313 476 l 354 476 l 406 972 l 654 972 l 536 292 l 450 292 l 450 0 l 217 0 z "},"Z":{"ha":571,"x_min":33,"x_max":538,"o":"m 33 0 l 33 172 l 276 778 l 38 778 l 38 972 l 533 972 l 533 800 l 290 194 l 538 194 l 538 0 l 33 0 z "},"a":{"ha":617,"x_min":33,"x_max":569,"o":"m 33 144 l 33 467 l 344 481 l 344 583 l 47 583 l 47 778 l 408 778 l 569 617 l 569 0 l 178 0 l 33 144 m 258 342 l 258 186 l 344 186 l 344 367 l 258 342 z "},"b":{"ha":658,"x_min":47,"x_max":614,"o":"m 47 0 l 47 972 l 281 972 l 281 778 l 453 778 l 614 617 l 614 161 l 453 0 l 47 0 m 281 194 l 381 194 l 381 583 l 281 583 l 281 194 z "},"c":{"ha":514,"x_min":44,"x_max":486,"o":"m 44 158 l 44 619 l 203 778 l 486 778 l 486 567 l 278 567 l 278 211 l 486 211 l 486 0 l 203 0 l 44 158 z "},"d":{"ha":658,"x_min":44,"x_max":611,"o":"m 611 972 l 611 0 l 206 0 l 44 161 l 44 617 l 206 778 l 378 778 l 378 972 l 611 972 m 278 194 l 378 194 l 378 583 l 278 583 l 278 194 z "},"e":{"ha":617,"x_min":44,"x_max":572,"o":"m 44 153 l 44 625 l 197 778 l 572 778 l 572 317 l 278 317 l 278 194 l 558 194 l 558 0 l 197 0 l 44 153 m 278 431 l 375 442 l 375 600 l 278 600 l 278 431 z "},"f":{"ha":458,"x_min":47,"x_max":431,"o":"m 47 0 l 47 819 l 200 972 l 431 972 l 431 769 l 281 769 l 281 597 l 431 597 l 431 403 l 281 403 l 281 0 l 47 0 z "},"g":{"ha":658,"x_min":44,"x_max":611,"o":"m 81 -194 l 81 0 l 378 0 l 378 94 l 197 94 l 44 247 l 44 625 l 203 778 l 611 778 l 611 -11 l 428 -194 l 81 -194 m 278 583 l 278 281 l 378 281 l 378 583 l 278 583 z "},"h":{"ha":661,"x_min":47,"x_max":614,"o":"m 47 0 l 47 972 l 281 972 l 281 778 l 453 778 l 614 617 l 614 0 l 381 0 l 381 583 l 281 583 l 281 0 l 47 0 z "},"i":{"ha":328,"x_min":47,"x_max":281,"o":"m 47 0 l 47 778 l 281 778 l 281 0 l 47 0 m 47 850 l 47 1003 l 281 1003 l 281 850 l 47 850 z "},"j":{"ha":328,"x_min":47,"x_max":281,"o":"m 47 -194 l 47 778 l 281 778 l 281 -194 l 47 -194 m 47 850 l 47 1003 l 281 1003 l 281 850 l 47 850 z "},"k":{"ha":658,"x_min":47,"x_max":639,"o":"m 47 0 l 47 972 l 281 972 l 281 501 l 321 501 l 388 778 l 628 778 l 517 418 l 639 0 l 396 0 l 325 307 l 281 307 l 281 0 l 47 0 z "},"l":{"ha":328,"x_min":47,"x_max":281,"o":"m 47 0 l 47 972 l 281 972 l 281 0 l 47 0 z "},"m":{"ha":968,"x_min":47,"x_max":921,"o":"m 47 778 l 760 778 l 921 617 l 921 0 l 692 0 l 692 592 l 594 592 l 594 0 l 374 0 l 374 592 l 276 592 l 276 0 l 47 0 l 47 778 z "},"n":{"ha":661,"x_min":47,"x_max":614,"o":"m 47 0 l 47 778 l 453 778 l 614 617 l 614 0 l 381 0 l 381 575 l 281 575 l 281 0 l 47 0 z "},"o":{"ha":656,"x_min":44,"x_max":611,"o":"m 44 153 l 44 625 l 197 778 l 458 778 l 611 625 l 611 153 l 458 0 l 197 0 l 44 153 m 278 186 l 378 186 l 378 592 l 278 592 l 278 186 z "},"p":{"ha":658,"x_min":47,"x_max":614,"o":"m 47 -194 l 47 778 l 453 778 l 614 617 l 614 161 l 453 0 l 281 0 l 281 -194 l 47 -194 m 381 583 l 281 583 l 281 194 l 381 194 l 381 583 z "},"q":{"ha":658,"x_min":44,"x_max":611,"o":"m 611 778 l 611 -194 l 378 -194 l 378 0 l 206 0 l 44 161 l 44 617 l 206 778 l 611 778 m 378 583 l 278 583 l 278 194 l 378 194 l 378 583 z "},"r":{"ha":453,"x_min":47,"x_max":435,"o":"m 47 0 l 47 617 l 208 778 l 435 778 l 435 565 l 281 565 l 281 0 l 47 0 z "},"s":{"ha":581,"x_min":44,"x_max":536,"o":"m 44 0 l 44 186 l 303 186 l 303 328 l 44 328 l 44 633 l 189 778 l 536 778 l 536 592 l 278 592 l 278 456 l 536 456 l 536 143 l 393 0 l 44 0 z "},"t":{"ha":472,"x_min":47,"x_max":444,"o":"m 47 903 l 281 972 l 281 750 l 444 750 l 444 556 l 281 556 l 281 194 l 444 194 l 444 0 l 208 0 l 47 161 l 47 903 z "},"u":{"ha":661,"x_min":47,"x_max":614,"o":"m 614 778 l 614 0 l 208 0 l 47 161 l 47 778 l 281 778 l 281 203 l 381 203 l 381 778 l 614 778 z "},"v":{"ha":644,"x_min":15,"x_max":629,"o":"m 131 0 l 15 778 l 250 778 l 308 199 l 340 199 l 399 778 l 629 778 l 514 0 l 131 0 z "},"w":{"ha":914,"x_min":18,"x_max":896,"o":"m 97 0 l 18 778 l 247 778 l 282 224 l 304 224 l 360 667 l 554 667 l 610 224 l 632 224 l 667 778 l 896 778 l 817 0 l 506 0 l 454 429 l 408 0 l 97 0 z "},"x":{"ha":644,"x_min":11,"x_max":633,"o":"m 11 0 l 119 408 l 21 778 l 265 778 l 308 493 l 336 493 l 379 778 l 624 778 l 525 408 l 633 0 l 385 0 l 342 299 l 303 299 l 260 0 l 11 0 z "},"y":{"ha":644,"x_min":15,"x_max":629,"o":"m 50 -194 l 50 0 l 308 0 l 322 94 l 118 94 l 15 778 l 249 778 l 297 281 l 343 281 l 397 778 l 629 778 l 481 -194 l 50 -194 z "},"z":{"ha":501,"x_min":28,"x_max":474,"o":"m 28 0 l 28 167 l 218 583 l 32 583 l 32 778 l 469 778 l 469 611 l 279 194 l 474 194 l 474 0 l 28 0 z "},"Á":{"ha":672,"x_min":10,"x_max":663,"o":"m 10 0 l 139 972 l 533 972 l 663 0 l 429 0 l 410 192 l 263 192 l 243 0 l 10 0 m 281 368 l 392 368 l 349 788 l 324 788 l 281 368 m 186 1050 l 186 1167 l 522 1206 l 522 1050 l 186 1050 z "},"á":{"ha":617,"x_min":33,"x_max":569,"o":"m 33 144 l 33 467 l 344 481 l 344 583 l 47 583 l 47 778 l 408 778 l 569 617 l 569 0 l 178 0 l 33 144 m 258 342 l 258 186 l 344 186 l 344 367 l 258 342 m 136 856 l 136 972 l 472 1011 l 472 856 l 136 856 z "},"À":{"ha":672,"x_min":10,"x_max":663,"o":"m 10 0 l 139 972 l 533 972 l 663 0 l 429 0 l 410 192 l 263 192 l 243 0 l 10 0 m 281 368 l 392 368 l 349 788 l 324 788 l 281 368 m 486 1050 l 150 1050 l 150 1206 l 486 1167 l 486 1050 z "},"à":{"ha":617,"x_min":33,"x_max":569,"o":"m 33 144 l 33 467 l 344 481 l 344 583 l 47 583 l 47 778 l 408 778 l 569 617 l 569 0 l 178 0 l 33 144 m 258 342 l 258 186 l 344 186 l 344 367 l 258 342 m 436 856 l 100 856 l 100 1011 l 436 972 l 436 856 z "},"Ă":{"ha":672,"x_min":10,"x_max":663,"o":"m 10 0 l 139 972 l 533 972 l 663 0 l 429 0 l 410 192 l 263 192 l 243 0 l 10 0 m 281 368 l 392 368 l 349 788 l 324 788 l 281 368 m 389 1217 l 558 1217 l 447 1025 l 225 1025 l 114 1217 l 283 1217 l 296 1133 l 376 1133 l 389 1217 z "},"ă":{"ha":617,"x_min":33,"x_max":569,"o":"m 33 144 l 33 467 l 344 481 l 344 583 l 47 583 l 47 778 l 408 778 l 569 617 l 569 0 l 178 0 l 33 144 m 258 342 l 258 186 l 344 186 l 344 367 l 258 342 m 339 1022 l 508 1022 l 397 831 l 175 831 l 64 1022 l 233 1022 l 246 939 l 326 939 l 339 1022 z "},"Â":{"ha":672,"x_min":10,"x_max":663,"o":"m 10 0 l 139 972 l 533 972 l 663 0 l 429 0 l 410 192 l 263 192 l 243 0 l 10 0 m 281 368 l 392 368 l 349 788 l 324 788 l 281 368 m 156 1019 l 156 1164 l 336 1247 l 517 1164 l 517 1019 l 336 1103 l 156 1019 z "},"â":{"ha":617,"x_min":33,"x_max":569,"o":"m 33 144 l 33 467 l 344 481 l 344 583 l 47 583 l 47 778 l 408 778 l 569 617 l 569 0 l 178 0 l 33 144 m 258 342 l 258 186 l 344 186 l 344 367 l 258 342 m 106 825 l 106 969 l 286 1053 l 467 969 l 467 825 l 286 908 l 106 825 z "},"Ǎ":{"ha":672,"x_min":10,"x_max":663,"o":"m 10 0 l 139 972 l 533 972 l 663 0 l 429 0 l 410 192 l 263 192 l 243 0 l 10 0 m 281 368 l 392 368 l 349 788 l 324 788 l 281 368 m 517 1247 l 517 1103 l 336 1019 l 156 1103 l 156 1247 l 336 1164 l 517 1247 z "},"ǎ":{"ha":617,"x_min":33,"x_max":569,"o":"m 33 144 l 33 467 l 344 481 l 344 583 l 47 583 l 47 778 l 408 778 l 569 617 l 569 0 l 178 0 l 33 144 m 258 342 l 258 186 l 344 186 l 344 367 l 258 342 m 467 1053 l 467 908 l 286 825 l 106 908 l 106 1053 l 286 969 l 467 1053 z "},"Å":{"ha":672,"x_min":10,"x_max":663,"o":"m 10 0 l 139 972 l 533 972 l 663 0 l 429 0 l 410 192 l 263 192 l 243 0 l 10 0 m 281 368 l 392 368 l 349 788 l 324 788 l 281 368 m 168 1085 l 168 1210 l 265 1294 l 407 1294 l 504 1210 l 504 1085 l 407 1000 l 265 1000 l 168 1085 m 285 1103 l 388 1103 l 388 1192 l 285 1192 l 285 1103 z "},"å":{"ha":617,"x_min":33,"x_max":569,"o":"m 33 144 l 33 467 l 344 481 l 344 583 l 47 583 l 47 778 l 408 778 l 569 617 l 569 0 l 178 0 l 33 144 m 258 342 l 258 186 l 344 186 l 344 367 l 258 342 m 118 890 l 118 1015 l 215 1100 l 357 1100 l 454 1015 l 454 890 l 357 806 l 215 806 l 118 890 m 235 908 l 338 908 l 338 997 l 235 997 l 235 908 z "},"Ǻ":{"ha":672,"x_min":10,"x_max":663,"o":"m 10 0 l 139 972 l 533 972 l 663 0 l 429 0 l 410 192 l 263 192 l 243 0 l 10 0 m 281 368 l 392 368 l 349 788 l 324 788 l 281 368 m 168 1085 l 168 1210 l 265 1294 l 407 1294 l 504 1210 l 504 1085 l 407 1000 l 265 1000 l 168 1085 m 285 1103 l 388 1103 l 388 1192 l 285 1192 l 285 1103 m 528 1221 l 481 1258 l 511 1361 l 653 1361 l 528 1221 z "},"ǻ":{"ha":617,"x_min":33,"x_max":603,"o":"m 33 144 l 33 467 l 344 481 l 344 583 l 47 583 l 47 778 l 408 778 l 569 617 l 569 0 l 178 0 l 33 144 m 258 342 l 258 186 l 344 186 l 344 367 l 258 342 m 118 890 l 118 1015 l 215 1100 l 357 1100 l 454 1015 l 454 890 l 357 806 l 215 806 l 118 890 m 235 908 l 338 908 l 338 997 l 235 997 l 235 908 m 478 1026 l 431 1064 l 461 1167 l 603 1167 l 478 1026 z "},"Ä":{"ha":672,"x_min":10,"x_max":663,"o":"m 10 0 l 139 972 l 533 972 l 663 0 l 429 0 l 410 192 l 263 192 l 243 0 l 10 0 m 281 368 l 392 368 l 349 788 l 324 788 l 281 368 m 140 1044 l 140 1197 l 301 1197 l 301 1044 l 140 1044 m 371 1044 l 371 1197 l 532 1197 l 532 1044 l 371 1044 z "},"ä":{"ha":617,"x_min":33,"x_max":569,"o":"m 33 144 l 33 467 l 344 481 l 344 583 l 47 583 l 47 778 l 408 778 l 569 617 l 569 0 l 178 0 l 33 144 m 258 342 l 258 186 l 344 186 l 344 367 l 258 342 m 90 850 l 90 1003 l 251 1003 l 251 850 l 90 850 m 321 850 l 321 1003 l 482 1003 l 482 850 l 321 850 z "},"Ǟ":{"ha":672,"x_min":10,"x_max":663,"o":"m 10 0 l 139 972 l 533 972 l 663 0 l 429 0 l 410 192 l 263 192 l 243 0 l 10 0 m 281 368 l 392 368 l 349 788 l 324 788 l 281 368 m 140 1044 l 140 1197 l 301 1197 l 301 1044 l 140 1044 m 371 1044 l 371 1197 l 532 1197 l 532 1044 l 371 1044 m 156 1256 l 156 1353 l 517 1353 l 517 1256 l 156 1256 z "},"ǟ":{"ha":617,"x_min":33,"x_max":569,"o":"m 33 144 l 33 467 l 344 481 l 344 583 l 47 583 l 47 778 l 408 778 l 569 617 l 569 0 l 178 0 l 33 144 m 258 342 l 258 186 l 344 186 l 344 367 l 258 342 m 90 850 l 90 1003 l 251 1003 l 251 850 l 90 850 m 321 850 l 321 1003 l 482 1003 l 482 850 l 321 850 m 106 1061 l 106 1158 l 467 1158 l 467 1061 l 106 1061 z "},"Ã":{"ha":672,"x_min":10,"x_max":663,"o":"m 10 0 l 139 972 l 533 972 l 663 0 l 429 0 l 410 192 l 263 192 l 243 0 l 10 0 m 281 368 l 392 368 l 349 788 l 324 788 l 281 368 m 156 1014 l 131 1146 l 264 1235 l 397 1168 l 517 1236 l 542 1104 l 408 1015 l 275 1082 l 156 1014 z "},"ã":{"ha":617,"x_min":33,"x_max":569,"o":"m 33 144 l 33 467 l 344 481 l 344 583 l 47 583 l 47 778 l 408 778 l 569 617 l 569 0 l 178 0 l 33 144 m 258 342 l 258 186 l 344 186 l 344 367 l 258 342 m 106 819 l 81 951 l 214 1040 l 347 974 l 467 1042 l 492 910 l 358 821 l 225 888 l 106 819 z "},"Ą":{"ha":672,"x_min":10,"x_max":663,"o":"m 10 0 l 139 972 l 533 972 l 663 0 l 429 0 l 410 192 l 263 192 l 243 0 l 10 0 m 281 368 l 392 368 l 349 788 l 324 788 l 281 368 m 647 -67 l 600 -278 l 392 -278 l 482 -67 l 647 -67 z "},"ą":{"ha":617,"x_min":33,"x_max":569,"o":"m 33 144 l 33 467 l 344 481 l 344 583 l 47 583 l 47 778 l 408 778 l 569 617 l 569 0 l 178 0 l 33 144 m 258 342 l 258 186 l 344 186 l 344 367 l 258 342 m 563 -67 l 515 -278 l 307 -278 l 397 -67 l 563 -67 z "},"Ā":{"ha":672,"x_min":10,"x_max":663,"o":"m 10 0 l 139 972 l 533 972 l 663 0 l 429 0 l 410 192 l 263 192 l 243 0 l 10 0 m 281 368 l 392 368 l 349 788 l 324 788 l 281 368 m 156 1058 l 156 1208 l 517 1208 l 517 1058 l 156 1058 z "},"ā":{"ha":617,"x_min":33,"x_max":569,"o":"m 33 144 l 33 467 l 344 481 l 344 583 l 47 583 l 47 778 l 408 778 l 569 617 l 569 0 l 178 0 l 33 144 m 258 342 l 258 186 l 344 186 l 344 367 l 258 342 m 106 864 l 106 1014 l 467 1014 l 467 864 l 106 864 z "},"Ȁ":{"ha":672,"x_min":10,"x_max":663,"o":"m 10 0 l 139 972 l 533 972 l 663 0 l 429 0 l 410 192 l 263 192 l 243 0 l 10 0 m 281 368 l 392 368 l 349 788 l 324 788 l 281 368 m 443 1203 l 499 1019 l 378 1019 l 283 1203 l 443 1203 m 243 1203 l 324 1019 l 203 1019 l 83 1203 l 243 1203 z "},"ȁ":{"ha":617,"x_min":33,"x_max":569,"o":"m 33 144 l 33 467 l 344 481 l 344 583 l 47 583 l 47 778 l 408 778 l 569 617 l 569 0 l 178 0 l 33 144 m 258 342 l 258 186 l 344 186 l 344 367 l 258 342 m 393 1008 l 449 825 l 328 825 l 233 1008 l 393 1008 m 193 1008 l 274 825 l 153 825 l 33 1008 l 193 1008 z "},"Ȃ":{"ha":672,"x_min":10,"x_max":663,"o":"m 10 0 l 139 972 l 533 972 l 663 0 l 429 0 l 410 192 l 263 192 l 243 0 l 10 0 m 281 368 l 392 368 l 349 788 l 324 788 l 281 368 m 283 1024 l 114 1024 l 225 1215 l 447 1215 l 558 1024 l 389 1024 l 376 1107 l 296 1107 l 283 1024 z "},"ȃ":{"ha":617,"x_min":33,"x_max":569,"o":"m 33 144 l 33 467 l 344 481 l 344 583 l 47 583 l 47 778 l 408 778 l 569 617 l 569 0 l 178 0 l 33 144 m 258 342 l 258 186 l 344 186 l 344 367 l 258 342 m 233 829 l 64 829 l 175 1021 l 397 1021 l 508 829 l 339 829 l 326 913 l 246 913 l 233 829 z "},"Æ":{"ha":821,"x_min":10,"x_max":796,"o":"m 10 0 l 179 972 l 782 972 l 782 778 l 607 778 l 607 589 l 754 589 l 754 403 l 607 403 l 607 194 l 796 194 l 796 0 l 382 0 l 382 192 l 268 192 l 243 0 l 10 0 m 294 368 l 382 368 l 382 796 l 351 796 l 294 368 z "},"æ":{"ha":917,"x_min":33,"x_max":872,"o":"m 33 144 l 33 467 l 344 481 l 344 583 l 53 583 l 53 778 l 364 778 l 453 689 l 542 778 l 872 778 l 872 317 l 578 317 l 578 194 l 844 194 l 844 0 l 178 0 l 33 144 m 578 431 l 674 442 l 674 600 l 578 600 l 578 431 m 258 342 l 258 186 l 344 186 l 344 367 l 258 342 z "},"Ǽ":{"ha":821,"x_min":10,"x_max":796,"o":"m 10 0 l 179 972 l 782 972 l 782 778 l 607 778 l 607 589 l 754 589 l 754 403 l 607 403 l 607 194 l 796 194 l 796 0 l 382 0 l 382 192 l 268 192 l 243 0 l 10 0 m 294 368 l 382 368 l 382 796 l 351 796 l 294 368 m 328 1050 l 328 1167 l 664 1206 l 664 1050 l 328 1050 z "},"ǽ":{"ha":917,"x_min":33,"x_max":872,"o":"m 33 144 l 33 467 l 344 481 l 344 583 l 53 583 l 53 778 l 364 778 l 453 689 l 542 778 l 872 778 l 872 317 l 578 317 l 578 194 l 844 194 l 844 0 l 178 0 l 33 144 m 578 431 l 674 442 l 674 600 l 578 600 l 578 431 m 258 342 l 258 186 l 344 186 l 344 367 l 258 342 m 308 856 l 308 972 l 644 1011 l 644 856 l 308 856 z "},"Ḃ":{"ha":661,"x_min":47,"x_max":632,"o":"m 276 579 l 375 579 l 375 786 l 276 786 l 276 579 m 276 186 l 399 186 l 399 418 l 276 418 l 276 186 m 604 819 l 604 592 l 522 513 l 632 422 l 632 153 l 479 0 l 47 0 l 47 972 l 451 972 l 604 819 m 253 1044 l 253 1197 l 486 1197 l 486 1044 l 253 1044 z "},"ḃ":{"ha":658,"x_min":47,"x_max":614,"o":"m 47 0 l 47 972 l 281 972 l 281 778 l 453 778 l 614 617 l 614 161 l 453 0 l 47 0 m 281 194 l 381 194 l 381 583 l 281 583 l 281 194 m 175 1044 l 175 1197 l 408 1197 l 408 1044 l 175 1044 z "},"Ɓ":{"ha":885,"x_min":14,"x_max":851,"o":"m 203 786 l 203 600 l 14 600 l 14 822 l 164 972 l 671 972 l 824 819 l 824 592 l 742 513 l 851 422 l 851 153 l 699 0 l 263 0 l 263 786 l 203 786 m 496 579 l 594 579 l 594 786 l 496 786 l 496 579 m 496 186 l 618 186 l 618 418 l 496 418 l 496 186 z "},"ɓ":{"ha":658,"x_min":47,"x_max":614,"o":"m 281 194 l 381 194 l 381 558 l 281 558 l 281 194 m 47 0 l 47 819 l 200 972 l 372 972 l 372 794 l 281 794 l 281 728 l 453 728 l 614 567 l 614 161 l 453 0 l 47 0 z "},"Ć":{"ha":543,"x_min":43,"x_max":515,"o":"m 43 161 l 43 811 l 204 972 l 510 972 l 510 754 l 294 754 l 294 218 l 515 218 l 515 0 l 204 0 l 43 161 m 160 1050 l 160 1167 l 496 1206 l 496 1050 l 160 1050 z "},"ć":{"ha":514,"x_min":44,"x_max":489,"o":"m 44 158 l 44 619 l 203 778 l 486 778 l 486 567 l 278 567 l 278 211 l 486 211 l 486 0 l 203 0 l 44 158 m 153 856 l 153 972 l 489 1011 l 489 856 l 153 856 z "},"Ĉ":{"ha":543,"x_min":43,"x_max":515,"o":"m 43 161 l 43 811 l 204 972 l 510 972 l 510 754 l 294 754 l 294 218 l 515 218 l 515 0 l 204 0 l 43 161 m 129 1019 l 129 1164 l 310 1247 l 490 1164 l 490 1019 l 310 1103 l 129 1019 z "},"ĉ":{"ha":514,"x_min":44,"x_max":486,"o":"m 44 158 l 44 619 l 203 778 l 486 778 l 486 567 l 278 567 l 278 211 l 486 211 l 486 0 l 203 0 l 44 158 m 122 825 l 122 969 l 303 1053 l 483 969 l 483 825 l 303 908 l 122 825 z "},"Č":{"ha":543,"x_min":43,"x_max":515,"o":"m 43 161 l 43 811 l 204 972 l 510 972 l 510 754 l 294 754 l 294 218 l 515 218 l 515 0 l 204 0 l 43 161 m 490 1247 l 490 1103 l 310 1019 l 129 1103 l 129 1247 l 310 1164 l 490 1247 z "},"č":{"ha":514,"x_min":44,"x_max":486,"o":"m 44 158 l 44 619 l 203 778 l 486 778 l 486 567 l 278 567 l 278 211 l 486 211 l 486 0 l 203 0 l 44 158 m 483 1053 l 483 908 l 303 825 l 122 908 l 122 1053 l 303 969 l 483 1053 z "},"Ċ":{"ha":543,"x_min":43,"x_max":515,"o":"m 43 161 l 43 811 l 204 972 l 510 972 l 510 754 l 294 754 l 294 218 l 515 218 l 515 0 l 204 0 l 43 161 m 193 1044 l 193 1197 l 426 1197 l 426 1044 l 193 1044 z "},"ċ":{"ha":514,"x_min":44,"x_max":486,"o":"m 44 158 l 44 619 l 203 778 l 486 778 l 486 567 l 278 567 l 278 211 l 486 211 l 486 0 l 203 0 l 44 158 m 186 850 l 186 1003 l 419 1003 l 419 850 l 186 850 z "},"Ç":{"ha":543,"x_min":43,"x_max":515,"o":"m 43 161 l 43 811 l 204 972 l 510 972 l 510 754 l 294 754 l 294 218 l 515 218 l 515 0 l 204 0 l 43 161 m 181 -278 l 231 -75 l 442 -75 l 344 -278 l 181 -278 z "},"ç":{"ha":514,"x_min":44,"x_max":486,"o":"m 44 158 l 44 619 l 203 778 l 486 778 l 486 567 l 278 567 l 278 211 l 486 211 l 486 0 l 203 0 l 44 158 m 174 -278 l 224 -75 l 435 -75 l 338 -278 l 174 -278 z "},"Ď":{"ha":663,"x_min":47,"x_max":619,"o":"m 281 203 l 386 203 l 386 769 l 281 769 l 281 203 m 47 0 l 47 972 l 458 972 l 619 811 l 619 161 l 458 0 l 47 0 m 478 1247 l 478 1103 l 297 1019 l 117 1103 l 117 1247 l 297 1164 l 478 1247 z "},"ď":{"ha":744,"x_min":44,"x_max":744,"o":"m 611 972 l 611 0 l 206 0 l 44 161 l 44 617 l 206 778 l 378 778 l 378 972 l 611 972 m 278 194 l 378 194 l 378 583 l 278 583 l 278 194 m 658 650 l 658 972 l 744 972 l 744 650 l 658 650 z "},"Ḋ":{"ha":663,"x_min":47,"x_max":619,"o":"m 281 203 l 386 203 l 386 769 l 281 769 l 281 203 m 47 0 l 47 972 l 458 972 l 619 811 l 619 161 l 458 0 l 47 0 m 181 1044 l 181 1197 l 414 1197 l 414 1044 l 181 1044 z "},"ḋ":{"ha":658,"x_min":44,"x_max":611,"o":"m 611 972 l 611 0 l 206 0 l 44 161 l 44 617 l 206 778 l 378 778 l 378 972 l 611 972 m 278 194 l 378 194 l 378 583 l 278 583 l 278 194 m 200 1044 l 200 1197 l 433 1197 l 433 1044 l 200 1044 z "},"Ḑ":{"ha":663,"x_min":47,"x_max":619,"o":"m 281 203 l 386 203 l 386 769 l 281 769 l 281 203 m 47 0 l 47 972 l 458 972 l 619 811 l 619 161 l 458 0 l 47 0 m 168 -278 l 218 -75 l 429 -75 l 332 -278 l 168 -278 z "},"ḑ":{"ha":658,"x_min":44,"x_max":611,"o":"m 611 972 l 611 0 l 206 0 l 44 161 l 44 617 l 206 778 l 378 778 l 378 972 l 611 972 m 278 194 l 378 194 l 378 583 l 278 583 l 278 194 m 188 -278 l 238 -75 l 449 -75 l 351 -278 l 188 -278 z "},"Đ":{"ha":685,"x_min":14,"x_max":642,"o":"m 14 406 l 14 567 l 356 567 l 356 406 l 14 406 m 303 203 l 408 203 l 408 769 l 303 769 l 303 203 m 69 0 l 69 972 l 481 972 l 642 811 l 642 161 l 481 0 l 69 0 z "},"đ":{"ha":658,"x_min":44,"x_max":611,"o":"m 611 972 l 611 0 l 206 0 l 44 161 l 44 542 l 206 703 l 378 703 l 378 972 l 611 972 m 278 194 l 378 194 l 378 508 l 278 508 l 278 194 m 147 782 l 147 883 l 600 883 l 600 782 l 147 782 z "},"Ḍ":{"ha":663,"x_min":47,"x_max":619,"o":"m 281 203 l 386 203 l 386 769 l 281 769 l 281 203 m 47 0 l 47 972 l 458 972 l 619 811 l 619 161 l 458 0 l 47 0 m 181 -247 l 181 -94 l 414 -94 l 414 -247 l 181 -247 z "},"ḍ":{"ha":658,"x_min":44,"x_max":611,"o":"m 611 972 l 611 0 l 206 0 l 44 161 l 44 617 l 206 778 l 378 778 l 378 972 l 611 972 m 278 194 l 378 194 l 378 583 l 278 583 l 278 194 m 200 -247 l 200 -94 l 433 -94 l 433 -247 l 200 -247 z "},"Ð":{"ha":685,"x_min":14,"x_max":642,"o":"m 14 406 l 14 567 l 356 567 l 356 406 l 14 406 m 303 203 l 408 203 l 408 769 l 303 769 l 303 203 m 69 0 l 69 972 l 481 972 l 642 811 l 642 161 l 481 0 l 69 0 z "},"ð":{"ha":656,"x_min":44,"x_max":611,"o":"m 197 0 l 458 0 l 611 153 l 611 639 l 351 972 l 114 972 l 354 675 l 44 569 l 44 153 l 197 0 m 378 546 l 378 194 l 278 194 l 278 499 l 378 546 m 97 679 l 581 843 l 581 972 l 97 808 l 97 679 z "},"Ɖ":{"ha":685,"x_min":14,"x_max":642,"o":"m 14 406 l 14 567 l 356 567 l 356 406 l 14 406 m 303 203 l 408 203 l 408 769 l 303 769 l 303 203 m 69 0 l 69 972 l 481 972 l 642 811 l 642 161 l 481 0 l 69 0 z "},"ɖ":{"ha":658,"x_min":44,"x_max":678,"o":"m 611 8 l 678 8 l 678 -194 l 497 -194 l 378 -75 l 378 0 l 206 0 l 44 161 l 44 617 l 206 778 l 378 778 l 378 972 l 611 972 l 611 8 m 278 583 l 278 194 l 378 194 l 378 583 l 278 583 z "},"Ɗ":{"ha":878,"x_min":14,"x_max":835,"o":"m 203 786 l 203 600 l 14 600 l 14 822 l 164 972 l 674 972 l 835 811 l 835 161 l 674 0 l 263 0 l 263 786 l 203 786 m 496 203 l 601 203 l 601 769 l 496 769 l 496 203 z "},"ɗ":{"ha":658,"x_min":44,"x_max":678,"o":"m 278 194 l 378 194 l 378 583 l 278 583 l 278 194 m 44 161 l 44 617 l 206 778 l 378 778 l 378 861 l 489 972 l 678 972 l 678 794 l 611 794 l 611 0 l 206 0 l 44 161 z "},"É":{"ha":514,"x_min":47,"x_max":489,"o":"m 47 0 l 47 972 l 475 972 l 475 778 l 281 778 l 281 589 l 456 589 l 456 403 l 281 403 l 281 194 l 489 194 l 489 0 l 47 0 m 111 1050 l 111 1167 l 447 1206 l 447 1050 l 111 1050 z "},"é":{"ha":617,"x_min":44,"x_max":572,"o":"m 44 153 l 44 625 l 197 778 l 572 778 l 572 317 l 278 317 l 278 194 l 558 194 l 558 0 l 197 0 l 44 153 m 278 431 l 375 442 l 375 600 l 278 600 l 278 431 m 179 856 l 179 972 l 515 1011 l 515 856 l 179 856 z "},"È":{"ha":514,"x_min":47,"x_max":489,"o":"m 47 0 l 47 972 l 475 972 l 475 778 l 281 778 l 281 589 l 456 589 l 456 403 l 281 403 l 281 194 l 489 194 l 489 0 l 47 0 m 411 1050 l 75 1050 l 75 1206 l 411 1167 l 411 1050 z "},"è":{"ha":617,"x_min":44,"x_max":572,"o":"m 44 153 l 44 625 l 197 778 l 572 778 l 572 317 l 278 317 l 278 194 l 558 194 l 558 0 l 197 0 l 44 153 m 278 431 l 375 442 l 375 600 l 278 600 l 278 431 m 479 856 l 143 856 l 143 1011 l 479 972 l 479 856 z "},"Ĕ":{"ha":514,"x_min":39,"x_max":489,"o":"m 47 0 l 47 972 l 475 972 l 475 778 l 281 778 l 281 589 l 456 589 l 456 403 l 281 403 l 281 194 l 489 194 l 489 0 l 47 0 m 314 1217 l 483 1217 l 372 1025 l 150 1025 l 39 1217 l 208 1217 l 221 1133 l 301 1133 l 314 1217 z "},"ĕ":{"ha":617,"x_min":44,"x_max":572,"o":"m 44 153 l 44 625 l 197 778 l 572 778 l 572 317 l 278 317 l 278 194 l 558 194 l 558 0 l 197 0 l 44 153 m 278 431 l 375 442 l 375 600 l 278 600 l 278 431 m 382 1022 l 551 1022 l 440 831 l 218 831 l 107 1022 l 276 1022 l 289 939 l 369 939 l 382 1022 z "},"Ê":{"ha":514,"x_min":47,"x_max":489,"o":"m 47 0 l 47 972 l 475 972 l 475 778 l 281 778 l 281 589 l 456 589 l 456 403 l 281 403 l 281 194 l 489 194 l 489 0 l 47 0 m 81 1019 l 81 1164 l 261 1247 l 442 1164 l 442 1019 l 261 1103 l 81 1019 z "},"ê":{"ha":617,"x_min":44,"x_max":572,"o":"m 44 153 l 44 625 l 197 778 l 572 778 l 572 317 l 278 317 l 278 194 l 558 194 l 558 0 l 197 0 l 44 153 m 278 431 l 375 442 l 375 600 l 278 600 l 278 431 m 149 825 l 149 969 l 329 1053 l 510 969 l 510 825 l 329 908 l 149 825 z "},"Ě":{"ha":514,"x_min":47,"x_max":489,"o":"m 47 0 l 47 972 l 475 972 l 475 778 l 281 778 l 281 589 l 456 589 l 456 403 l 281 403 l 281 194 l 489 194 l 489 0 l 47 0 m 442 1247 l 442 1103 l 261 1019 l 81 1103 l 81 1247 l 261 1164 l 442 1247 z "},"ě":{"ha":617,"x_min":44,"x_max":572,"o":"m 44 153 l 44 625 l 197 778 l 572 778 l 572 317 l 278 317 l 278 194 l 558 194 l 558 0 l 197 0 l 44 153 m 278 431 l 375 442 l 375 600 l 278 600 l 278 431 m 510 1053 l 510 908 l 329 825 l 149 908 l 149 1053 l 329 969 l 510 1053 z "},"Ë":{"ha":514,"x_min":47,"x_max":489,"o":"m 47 0 l 47 972 l 475 972 l 475 778 l 281 778 l 281 589 l 456 589 l 456 403 l 281 403 l 281 194 l 489 194 l 489 0 l 47 0 m 65 1044 l 65 1197 l 226 1197 l 226 1044 l 65 1044 m 296 1044 l 296 1197 l 457 1197 l 457 1044 l 296 1044 z "},"ë":{"ha":617,"x_min":44,"x_max":572,"o":"m 44 153 l 44 625 l 197 778 l 572 778 l 572 317 l 278 317 l 278 194 l 558 194 l 558 0 l 197 0 l 44 153 m 278 431 l 375 442 l 375 600 l 278 600 l 278 431 m 133 850 l 133 1003 l 294 1003 l 294 850 l 133 850 m 364 850 l 364 1003 l 525 1003 l 525 850 l 364 850 z "},"Ė":{"ha":514,"x_min":47,"x_max":489,"o":"m 47 0 l 47 972 l 475 972 l 475 778 l 281 778 l 281 589 l 456 589 l 456 403 l 281 403 l 281 194 l 489 194 l 489 0 l 47 0 m 144 1044 l 144 1197 l 378 1197 l 378 1044 l 144 1044 z "},"ė":{"ha":617,"x_min":44,"x_max":572,"o":"m 44 153 l 44 625 l 197 778 l 572 778 l 572 317 l 278 317 l 278 194 l 558 194 l 558 0 l 197 0 l 44 153 m 278 431 l 375 442 l 375 600 l 278 600 l 278 431 m 213 850 l 213 1003 l 446 1003 l 446 850 l 213 850 z "},"Ę":{"ha":514,"x_min":47,"x_max":489,"o":"m 47 0 l 47 972 l 475 972 l 475 778 l 281 778 l 281 589 l 456 589 l 456 403 l 281 403 l 281 194 l 489 194 l 489 0 l 47 0 m 465 -67 l 418 -278 l 210 -278 l 300 -67 l 465 -67 z "},"ę":{"ha":617,"x_min":44,"x_max":572,"o":"m 44 153 l 44 625 l 197 778 l 572 778 l 572 317 l 278 317 l 278 194 l 558 194 l 558 0 l 197 0 l 44 153 m 278 431 l 375 442 l 375 600 l 278 600 l 278 431 m 524 -67 l 476 -278 l 268 -278 l 358 -67 l 524 -67 z "},"Ē":{"ha":514,"x_min":47,"x_max":489,"o":"m 47 0 l 47 972 l 475 972 l 475 778 l 281 778 l 281 589 l 456 589 l 456 403 l 281 403 l 281 194 l 489 194 l 489 0 l 47 0 m 81 1058 l 81 1208 l 442 1208 l 442 1058 l 81 1058 z "},"ē":{"ha":617,"x_min":44,"x_max":572,"o":"m 44 153 l 44 625 l 197 778 l 572 778 l 572 317 l 278 317 l 278 194 l 558 194 l 558 0 l 197 0 l 44 153 m 278 431 l 375 442 l 375 600 l 278 600 l 278 431 m 149 864 l 149 1014 l 510 1014 l 510 864 l 149 864 z "},"Ȅ":{"ha":514,"x_min":8,"x_max":489,"o":"m 47 0 l 47 972 l 475 972 l 475 778 l 281 778 l 281 589 l 456 589 l 456 403 l 281 403 l 281 194 l 489 194 l 489 0 l 47 0 m 368 1203 l 424 1019 l 303 1019 l 208 1203 l 368 1203 m 168 1203 l 249 1019 l 128 1019 l 8 1203 l 168 1203 z "},"ȅ":{"ha":617,"x_min":44,"x_max":572,"o":"m 44 153 l 44 625 l 197 778 l 572 778 l 572 317 l 278 317 l 278 194 l 558 194 l 558 0 l 197 0 l 44 153 m 278 431 l 375 442 l 375 600 l 278 600 l 278 431 m 436 1008 l 492 825 l 371 825 l 276 1008 l 436 1008 m 236 1008 l 317 825 l 196 825 l 76 1008 l 236 1008 z "},"Ȇ":{"ha":514,"x_min":39,"x_max":489,"o":"m 47 0 l 47 972 l 475 972 l 475 778 l 281 778 l 281 589 l 456 589 l 456 403 l 281 403 l 281 194 l 489 194 l 489 0 l 47 0 m 208 1024 l 39 1024 l 150 1215 l 372 1215 l 483 1024 l 314 1024 l 301 1107 l 221 1107 l 208 1024 z "},"ȇ":{"ha":617,"x_min":44,"x_max":572,"o":"m 44 153 l 44 625 l 197 778 l 572 778 l 572 317 l 278 317 l 278 194 l 558 194 l 558 0 l 197 0 l 44 153 m 278 431 l 375 442 l 375 600 l 278 600 l 278 431 m 276 829 l 107 829 l 218 1021 l 440 1021 l 551 829 l 382 829 l 369 913 l 289 913 l 276 829 z "},"Ə":{"ha":650,"x_min":43,"x_max":607,"o":"m 607 819 l 607 153 l 454 0 l 196 0 l 43 153 l 43 594 l 374 594 l 374 778 l 57 778 l 57 972 l 454 972 l 607 819 m 374 447 l 268 436 l 268 194 l 374 194 l 374 447 z "},"ə":{"ha":617,"x_min":44,"x_max":572,"o":"m 572 625 l 572 153 l 419 0 l 197 0 l 44 153 l 44 461 l 339 461 l 339 583 l 58 583 l 58 778 l 419 778 l 572 625 m 339 347 l 243 336 l 243 178 l 339 178 l 339 347 z "},"Ɛ":{"ha":565,"x_min":29,"x_max":540,"o":"m 190 0 l 29 161 l 29 417 l 142 508 l 54 582 l 54 811 l 215 972 l 531 972 l 531 778 l 294 778 l 294 589 l 496 589 l 496 403 l 269 403 l 269 194 l 540 194 l 540 0 l 190 0 z "},"ɛ":{"ha":547,"x_min":33,"x_max":522,"o":"m 147 0 l 33 114 l 33 324 l 128 408 l 56 469 l 56 664 l 169 778 l 511 778 l 511 590 l 293 590 l 293 468 l 500 468 l 500 315 l 279 315 l 279 188 l 522 188 l 522 0 l 147 0 z "},"Ḟ":{"ha":486,"x_min":47,"x_max":461,"o":"m 47 0 l 47 972 l 461 972 l 461 761 l 281 761 l 281 506 l 442 506 l 442 303 l 281 303 l 281 0 l 47 0 m 126 1044 l 126 1197 l 360 1197 l 360 1044 l 126 1044 z "},"ḟ":{"ha":458,"x_min":47,"x_max":431,"o":"m 47 0 l 47 819 l 200 972 l 431 972 l 431 769 l 281 769 l 281 597 l 431 597 l 431 403 l 281 403 l 281 0 l 47 0 m 169 1044 l 169 1197 l 403 1197 l 403 1044 l 169 1044 z "},"Ƒ":{"ha":486,"x_min":-6,"x_max":461,"o":"m -6 0 l -6 203 l 47 203 l 47 972 l 461 972 l 461 761 l 281 761 l 281 522 l 442 522 l 442 319 l 281 319 l 281 136 l 144 0 l -6 0 z "},"ƒ":{"ha":458,"x_min":-25,"x_max":431,"o":"m -25 -194 l -25 8 l 47 8 l 47 814 l 206 972 l 431 972 l 431 769 l 281 769 l 281 567 l 431 567 l 431 372 l 281 372 l 281 -36 l 122 -194 l -25 -194 z "},"Ǵ":{"ha":633,"x_min":43,"x_max":590,"o":"m 43 161 l 43 811 l 204 972 l 571 972 l 571 760 l 278 760 l 278 211 l 385 211 l 385 432 l 329 432 l 329 618 l 590 618 l 590 0 l 204 0 l 43 161 m 214 1050 l 214 1167 l 550 1206 l 550 1050 l 214 1050 z "},"ǵ":{"ha":658,"x_min":44,"x_max":611,"o":"m 81 -194 l 81 0 l 378 0 l 378 94 l 197 94 l 44 247 l 44 625 l 203 778 l 611 778 l 611 -11 l 428 -194 l 81 -194 m 278 583 l 278 281 l 378 281 l 378 583 l 278 583 m 203 856 l 203 972 l 539 1011 l 539 856 l 203 856 z "},"Ğ":{"ha":633,"x_min":43,"x_max":590,"o":"m 43 161 l 43 811 l 204 972 l 571 972 l 571 760 l 278 760 l 278 211 l 385 211 l 385 432 l 329 432 l 329 618 l 590 618 l 590 0 l 204 0 l 43 161 m 417 1217 l 586 1217 l 475 1025 l 253 1025 l 142 1217 l 311 1217 l 324 1133 l 404 1133 l 417 1217 z "},"ğ":{"ha":658,"x_min":44,"x_max":611,"o":"m 81 -194 l 81 0 l 378 0 l 378 94 l 197 94 l 44 247 l 44 625 l 203 778 l 611 778 l 611 -11 l 428 -194 l 81 -194 m 278 583 l 278 281 l 378 281 l 378 583 l 278 583 m 406 1022 l 575 1022 l 464 831 l 242 831 l 131 1022 l 300 1022 l 313 939 l 393 939 l 406 1022 z "},"Ĝ":{"ha":633,"x_min":43,"x_max":590,"o":"m 43 161 l 43 811 l 204 972 l 571 972 l 571 760 l 278 760 l 278 211 l 385 211 l 385 432 l 329 432 l 329 618 l 590 618 l 590 0 l 204 0 l 43 161 m 183 1019 l 183 1164 l 364 1247 l 544 1164 l 544 1019 l 364 1103 l 183 1019 z "},"ĝ":{"ha":658,"x_min":44,"x_max":611,"o":"m 81 -194 l 81 0 l 378 0 l 378 94 l 197 94 l 44 247 l 44 625 l 203 778 l 611 778 l 611 -11 l 428 -194 l 81 -194 m 278 583 l 278 281 l 378 281 l 378 583 l 278 583 m 172 825 l 172 969 l 353 1053 l 533 969 l 533 825 l 353 908 l 172 825 z "},"Ǧ":{"ha":633,"x_min":43,"x_max":590,"o":"m 43 161 l 43 811 l 204 972 l 571 972 l 571 760 l 278 760 l 278 211 l 385 211 l 385 432 l 329 432 l 329 618 l 590 618 l 590 0 l 204 0 l 43 161 m 544 1247 l 544 1103 l 364 1019 l 183 1103 l 183 1247 l 364 1164 l 544 1247 z "},"ǧ":{"ha":658,"x_min":44,"x_max":611,"o":"m 81 -194 l 81 0 l 378 0 l 378 94 l 197 94 l 44 247 l 44 625 l 203 778 l 611 778 l 611 -11 l 428 -194 l 81 -194 m 278 583 l 278 281 l 378 281 l 378 583 l 278 583 m 533 1053 l 533 908 l 353 825 l 172 908 l 172 1053 l 353 969 l 533 1053 z "},"Ġ":{"ha":633,"x_min":43,"x_max":590,"o":"m 43 161 l 43 811 l 204 972 l 571 972 l 571 760 l 278 760 l 278 211 l 385 211 l 385 432 l 329 432 l 329 618 l 590 618 l 590 0 l 204 0 l 43 161 m 247 1044 l 247 1197 l 481 1197 l 481 1044 l 247 1044 z "},"ġ":{"ha":658,"x_min":44,"x_max":611,"o":"m 81 -194 l 81 0 l 378 0 l 378 94 l 197 94 l 44 247 l 44 625 l 203 778 l 611 778 l 611 -11 l 428 -194 l 81 -194 m 278 583 l 278 281 l 378 281 l 378 583 l 278 583 m 236 850 l 236 1003 l 469 1003 l 469 850 l 236 850 z "},"Ģ":{"ha":633,"x_min":43,"x_max":590,"o":"m 43 161 l 43 811 l 204 972 l 571 972 l 571 760 l 278 760 l 278 211 l 385 211 l 385 432 l 329 432 l 329 618 l 590 618 l 590 0 l 204 0 l 43 161 m 235 -278 l 285 -75 l 496 -75 l 397 -278 l 235 -278 z "},"ģ":{"ha":658,"x_min":44,"x_max":611,"o":"m 81 -194 l 81 0 l 378 0 l 378 94 l 197 94 l 44 247 l 44 625 l 203 778 l 611 778 l 611 -11 l 428 -194 l 81 -194 m 278 583 l 278 281 l 378 281 l 378 583 l 278 583 m 489 1036 l 439 833 l 228 833 l 325 1036 l 489 1036 z "},"Ǥ":{"ha":633,"x_min":43,"x_max":626,"o":"m 43 161 l 43 811 l 204 972 l 571 972 l 571 761 l 276 761 l 276 194 l 382 194 l 382 482 l 325 482 l 325 618 l 590 618 l 590 0 l 204 0 l 43 161 m 325 286 l 325 392 l 626 392 l 626 286 l 325 286 z "},"ǥ":{"ha":658,"x_min":44,"x_max":649,"o":"m 81 -194 l 81 -8 l 378 -8 l 378 203 l 122 203 l 44 281 l 44 625 l 203 778 l 611 778 l 611 -11 l 428 -194 l 81 -194 m 278 583 l 278 342 l 378 342 l 378 583 l 278 583 m 122 50 l 122 147 l 649 147 l 649 50 l 122 50 z "},"Ɠ":{"ha":633,"x_min":43,"x_max":647,"o":"m 204 0 l 43 161 l 43 811 l 204 972 l 368 972 l 368 1058 l 488 1178 l 647 1178 l 647 975 l 571 975 l 571 761 l 276 761 l 276 211 l 382 211 l 382 432 l 329 432 l 329 618 l 590 618 l 590 0 l 204 0 z "},"ɠ":{"ha":658,"x_min":44,"x_max":686,"o":"m 278 281 l 378 281 l 378 583 l 278 583 l 278 281 m 81 -194 l 81 0 l 378 0 l 378 94 l 197 94 l 44 247 l 44 625 l 203 778 l 378 778 l 378 861 l 489 972 l 686 972 l 686 794 l 603 794 l 603 -11 l 419 -194 l 81 -194 z "},"Ɣ":{"ha":636,"x_min":3,"x_max":633,"o":"m 190 0 l 43 147 l 43 349 l 147 526 l 3 972 l 263 972 l 311 618 l 325 618 l 374 972 l 633 972 l 489 526 l 593 349 l 593 147 l 446 0 l 190 0 m 268 194 l 368 194 l 368 324 l 318 421 l 268 324 l 268 194 z "},"ɣ":{"ha":636,"x_min":0,"x_max":636,"o":"m 185 -194 l 54 -64 l 54 154 l 150 318 l 0 778 l 260 778 l 310 432 l 326 432 l 376 778 l 636 778 l 486 318 l 582 154 l 582 -64 l 451 -194 l 185 -194 m 271 -8 l 365 -8 l 365 131 l 318 235 l 271 131 l 271 -8 z "},"Ĥ":{"ha":667,"x_min":47,"x_max":619,"o":"m 47 0 l 47 972 l 281 972 l 281 606 l 386 606 l 386 972 l 619 972 l 619 0 l 386 0 l 386 394 l 281 394 l 281 0 l 47 0 m 153 1019 l 153 1164 l 333 1247 l 514 1164 l 514 1019 l 333 1103 l 153 1019 z "},"ĥ":{"ha":661,"x_min":47,"x_max":614,"o":"m 47 0 l 47 972 l 281 972 l 281 778 l 453 778 l 614 617 l 614 0 l 381 0 l 381 583 l 281 583 l 281 0 l 47 0 m 100 1019 l 100 1164 l 281 1247 l 461 1164 l 461 1019 l 281 1103 l 100 1019 z "},"Ȟ":{"ha":667,"x_min":47,"x_max":619,"o":"m 47 0 l 47 972 l 281 972 l 281 606 l 386 606 l 386 972 l 619 972 l 619 0 l 386 0 l 386 394 l 281 394 l 281 0 l 47 0 m 514 1247 l 514 1103 l 333 1019 l 153 1103 l 153 1247 l 333 1164 l 514 1247 z "},"ȟ":{"ha":661,"x_min":47,"x_max":614,"o":"m 47 0 l 47 972 l 281 972 l 281 778 l 453 778 l 614 617 l 614 0 l 381 0 l 381 583 l 281 583 l 281 0 l 47 0 m 461 1247 l 461 1103 l 281 1019 l 100 1103 l 100 1247 l 281 1164 l 461 1247 z "},"Ħ":{"ha":667,"x_min":7,"x_max":660,"o":"m 7 739 l 7 844 l 660 844 l 660 739 l 7 739 m 47 0 l 47 972 l 281 972 l 281 606 l 386 606 l 386 972 l 619 972 l 619 0 l 386 0 l 386 394 l 281 394 l 281 0 l 47 0 z "},"ħ":{"ha":661,"x_min":47,"x_max":614,"o":"m 47 0 l 47 972 l 281 972 l 281 703 l 453 703 l 614 542 l 614 0 l 381 0 l 381 508 l 281 508 l 281 0 l 47 0 m 54 782 l 54 883 l 507 883 l 507 782 l 54 782 z "},"Ḥ":{"ha":667,"x_min":47,"x_max":619,"o":"m 47 0 l 47 972 l 281 972 l 281 606 l 386 606 l 386 972 l 619 972 l 619 0 l 386 0 l 386 394 l 281 394 l 281 0 l 47 0 m 217 -247 l 217 -94 l 450 -94 l 450 -247 l 217 -247 z "},"ḥ":{"ha":661,"x_min":47,"x_max":614,"o":"m 47 0 l 47 972 l 281 972 l 281 778 l 453 778 l 614 617 l 614 0 l 381 0 l 381 583 l 281 583 l 281 0 l 47 0 m 233 -247 l 233 -94 l 467 -94 l 467 -247 l 233 -247 z "},"Í":{"ha":431,"x_min":26,"x_max":404,"o":"m 26 -6 l 26 175 l 99 182 l 99 790 l 26 797 l 26 978 l 215 967 l 404 978 l 404 797 l 332 790 l 332 182 l 404 175 l 404 -6 l 215 6 l 26 -6 m 65 1050 l 65 1167 l 401 1206 l 401 1050 l 65 1050 z "},"í":{"ha":328,"x_min":44,"x_max":317,"o":"m 47 0 l 47 778 l 281 778 l 281 0 l 47 0 m 44 836 l 44 951 l 317 1011 l 317 856 l 44 836 z "},"Ì":{"ha":431,"x_min":26,"x_max":404,"o":"m 26 -6 l 26 175 l 99 182 l 99 790 l 26 797 l 26 978 l 215 967 l 404 978 l 404 797 l 332 790 l 332 182 l 404 175 l 404 -6 l 215 6 l 26 -6 m 365 1050 l 29 1050 l 29 1206 l 365 1167 l 365 1050 z "},"ì":{"ha":328,"x_min":11,"x_max":283,"o":"m 47 0 l 47 778 l 281 778 l 281 0 l 47 0 m 283 836 l 11 856 l 11 1011 l 283 951 l 283 836 z "},"Ĭ":{"ha":431,"x_min":-7,"x_max":438,"o":"m 26 -6 l 26 175 l 99 182 l 99 790 l 26 797 l 26 978 l 215 967 l 404 978 l 404 797 l 332 790 l 332 182 l 404 175 l 404 -6 l 215 6 l 26 -6 m 268 1217 l 438 1217 l 326 1025 l 104 1025 l -7 1217 l 163 1217 l 175 1133 l 256 1133 l 268 1217 z "},"ĭ":{"ha":328,"x_min":-58,"x_max":386,"o":"m 47 0 l 47 778 l 281 778 l 281 0 l 47 0 m 217 1022 l 386 1022 l 275 831 l 53 831 l -58 1022 l 111 1022 l 124 939 l 204 939 l 217 1022 z "},"Î":{"ha":431,"x_min":26,"x_max":404,"o":"m 26 -6 l 26 175 l 99 182 l 99 790 l 26 797 l 26 978 l 215 967 l 404 978 l 404 797 l 332 790 l 332 182 l 404 175 l 404 -6 l 215 6 l 26 -6 m 35 1019 l 35 1164 l 215 1247 l 396 1164 l 396 1019 l 215 1103 l 35 1019 z "},"î":{"ha":328,"x_min":-17,"x_max":344,"o":"m 47 0 l 47 778 l 281 778 l 281 0 l 47 0 m -17 825 l -17 969 l 164 1053 l 344 969 l 344 825 l 164 908 l -17 825 z "},"Ǐ":{"ha":431,"x_min":26,"x_max":404,"o":"m 26 -6 l 26 175 l 99 182 l 99 790 l 26 797 l 26 978 l 215 967 l 404 978 l 404 797 l 332 790 l 332 182 l 404 175 l 404 -6 l 215 6 l 26 -6 m 396 1247 l 396 1103 l 215 1019 l 35 1103 l 35 1247 l 215 1164 l 396 1247 z "},"ǐ":{"ha":328,"x_min":-17,"x_max":344,"o":"m 47 0 l 47 778 l 281 778 l 281 0 l 47 0 m 344 1053 l 344 908 l 164 825 l -17 908 l -17 1053 l 164 969 l 344 1053 z "},"Ï":{"ha":431,"x_min":19,"x_max":411,"o":"m 26 -6 l 26 175 l 99 182 l 99 790 l 26 797 l 26 978 l 215 967 l 404 978 l 404 797 l 332 790 l 332 182 l 404 175 l 404 -6 l 215 6 l 26 -6 m 19 1044 l 19 1197 l 181 1197 l 181 1044 l 19 1044 m 250 1044 l 250 1197 l 411 1197 l 411 1044 l 250 1044 z "},"ï":{"ha":328,"x_min":-14,"x_max":342,"o":"m 47 0 l 47 778 l 281 778 l 281 0 l 47 0 m -14 850 l -14 1003 l 143 1003 l 143 850 l -14 850 m 185 850 l 185 1003 l 342 1003 l 342 850 l 185 850 z "},"Ĩ":{"ha":431,"x_min":10,"x_max":421,"o":"m 26 -6 l 26 175 l 99 182 l 99 790 l 26 797 l 26 978 l 215 967 l 404 978 l 404 797 l 332 790 l 332 182 l 404 175 l 404 -6 l 215 6 l 26 -6 m 35 1014 l 10 1146 l 143 1235 l 276 1168 l 396 1236 l 421 1104 l 288 1015 l 154 1082 l 35 1014 z "},"ĩ":{"ha":328,"x_min":-22,"x_max":350,"o":"m 47 0 l 47 778 l 281 778 l 281 0 l 47 0 m -22 811 l -22 950 l 83 1029 l 250 968 l 350 1033 l 350 894 l 244 815 l 78 876 l -22 811 z "},"İ":{"ha":431,"x_min":26,"x_max":404,"o":"m 26 -6 l 26 175 l 99 182 l 99 790 l 26 797 l 26 978 l 215 967 l 404 978 l 404 797 l 332 790 l 332 182 l 404 175 l 404 -6 l 215 6 l 26 -6 m 99 1044 l 99 1197 l 332 1197 l 332 1044 l 99 1044 z "},"ı":{"ha":328,"x_min":47,"x_max":281,"o":"m 47 0 l 47 778 l 281 778 l 281 0 l 47 0 z "},"Į":{"ha":464,"x_min":43,"x_max":421,"o":"m 43 -6 l 43 175 l 115 182 l 115 790 l 43 797 l 43 978 l 232 967 l 421 978 l 421 797 l 349 790 l 349 182 l 421 175 l 421 -6 l 232 6 l 43 -6 m 336 -67 l 289 -278 l 81 -278 l 171 -67 l 336 -67 z "},"į":{"ha":328,"x_min":13,"x_max":281,"o":"m 47 0 l 47 778 l 281 778 l 281 0 l 47 0 m 47 850 l 47 1003 l 281 1003 l 281 850 l 47 850 m 268 -67 l 221 -278 l 13 -278 l 103 -67 l 268 -67 z "},"Ī":{"ha":431,"x_min":26,"x_max":404,"o":"m 26 -6 l 26 175 l 99 182 l 99 790 l 26 797 l 26 978 l 215 967 l 404 978 l 404 797 l 332 790 l 332 182 l 404 175 l 404 -6 l 215 6 l 26 -6 m 35 1058 l 35 1208 l 396 1208 l 396 1058 l 35 1058 z "},"ī":{"ha":328,"x_min":-3,"x_max":331,"o":"m -3 864 l -3 1014 l 331 1014 l 331 864 l -3 864 m 47 0 l 47 778 l 281 778 l 281 0 l 47 0 z "},"Ȉ":{"ha":431,"x_min":-37,"x_max":404,"o":"m 26 -6 l 26 175 l 99 182 l 99 790 l 26 797 l 26 978 l 215 967 l 404 978 l 404 797 l 332 790 l 332 182 l 404 175 l 404 -6 l 215 6 l 26 -6 m 322 1203 l 378 1019 l 257 1019 l 163 1203 l 322 1203 m 122 1203 l 203 1019 l 82 1019 l -37 1203 l 122 1203 z "},"ȉ":{"ha":328,"x_min":-89,"x_max":326,"o":"m 47 0 l 47 778 l 281 778 l 281 0 l 47 0 m 271 1008 l 326 825 l 206 825 l 111 1008 l 271 1008 m 71 1008 l 151 825 l 31 825 l -89 1008 l 71 1008 z "},"Ȋ":{"ha":431,"x_min":-7,"x_max":438,"o":"m 26 -6 l 26 175 l 99 182 l 99 790 l 26 797 l 26 978 l 215 967 l 404 978 l 404 797 l 332 790 l 332 182 l 404 175 l 404 -6 l 215 6 l 26 -6 m 163 1024 l -7 1024 l 104 1215 l 326 1215 l 438 1024 l 268 1024 l 256 1107 l 175 1107 l 163 1024 z "},"ȋ":{"ha":328,"x_min":-58,"x_max":386,"o":"m 47 0 l 47 778 l 281 778 l 281 0 l 47 0 m 111 829 l -58 829 l 53 1021 l 275 1021 l 386 829 l 217 829 l 204 913 l 124 913 l 111 829 z "},"Ĳ":{"ha":994,"x_min":26,"x_max":951,"o":"m 26 -6 l 26 175 l 85 182 l 85 790 l 26 797 l 26 978 l 201 967 l 376 978 l 376 797 l 318 790 l 318 182 l 376 175 l 376 -6 l 201 6 l 26 -6 m 421 144 l 421 458 l 638 458 l 638 203 l 718 203 l 718 769 l 454 769 l 454 972 l 951 972 l 951 161 l 790 0 l 565 0 l 421 144 z "},"ĳ":{"ha":656,"x_min":47,"x_max":608,"o":"m 47 0 l 47 778 l 281 778 l 281 0 l 47 0 m 47 850 l 47 1003 l 281 1003 l 281 850 l 47 850 m 375 -194 l 375 778 l 608 778 l 608 -194 l 375 -194 m 375 850 l 375 1003 l 608 1003 l 608 850 l 375 850 z "},"Ɨ":{"ha":431,"x_min":26,"x_max":404,"o":"m 26 -6 l 26 175 l 99 182 l 99 790 l 26 797 l 26 978 l 215 967 l 404 978 l 404 797 l 332 790 l 332 182 l 404 175 l 404 -6 l 215 6 l 26 -6 m 38 418 l 38 554 l 399 554 l 399 418 l 38 418 z "},"ɨ":{"ha":328,"x_min":7,"x_max":321,"o":"m 7 353 l 7 486 l 321 486 l 321 353 l 7 353 m 47 0 l 47 778 l 281 778 l 281 0 l 47 0 m 47 850 l 47 1003 l 281 1003 l 281 850 l 47 850 z "},"Ĵ":{"ha":625,"x_min":26,"x_max":582,"o":"m 26 161 l 26 458 l 260 458 l 260 203 l 349 203 l 349 769 l 65 769 l 65 972 l 582 972 l 582 161 l 421 0 l 188 0 l 26 161 m 153 1019 l 153 1164 l 333 1247 l 514 1164 l 514 1019 l 333 1103 l 153 1019 z "},"ĵ":{"ha":328,"x_min":-17,"x_max":344,"o":"m 47 -194 l 47 778 l 281 778 l 281 -194 l 47 -194 m -17 825 l -17 969 l 164 1053 l 344 969 l 344 825 l 164 908 l -17 825 z "},"ȷ":{"ha":328,"x_min":47,"x_max":281,"o":"m 47 -194 l 47 778 l 281 778 l 281 -194 l 47 -194 z "},"Ǩ":{"ha":683,"x_min":47,"x_max":678,"o":"m 47 0 l 47 972 l 281 972 l 281 592 l 319 592 l 406 972 l 657 972 l 522 514 l 678 0 l 424 0 l 328 394 l 281 394 l 281 0 l 47 0 m 525 1247 l 525 1103 l 344 1019 l 164 1103 l 164 1247 l 344 1164 l 525 1247 z "},"ǩ":{"ha":658,"x_min":47,"x_max":639,"o":"m 47 0 l 47 972 l 281 972 l 281 501 l 321 501 l 388 778 l 628 778 l 517 418 l 639 0 l 396 0 l 325 307 l 281 307 l 281 0 l 47 0 m 461 1247 l 461 1103 l 281 1019 l 100 1103 l 100 1247 l 281 1164 l 461 1247 z "},"Ķ":{"ha":683,"x_min":47,"x_max":678,"o":"m 47 0 l 47 972 l 281 972 l 281 592 l 319 592 l 406 972 l 657 972 l 522 514 l 678 0 l 424 0 l 328 394 l 281 394 l 281 0 l 47 0 m 215 -278 l 265 -75 l 476 -75 l 378 -278 l 215 -278 z "},"ķ":{"ha":658,"x_min":47,"x_max":639,"o":"m 47 0 l 47 972 l 281 972 l 281 501 l 321 501 l 388 778 l 628 778 l 517 418 l 639 0 l 396 0 l 325 307 l 281 307 l 281 0 l 47 0 m 206 -278 l 256 -75 l 467 -75 l 368 -278 l 206 -278 z "},"Ƙ":{"ha":689,"x_min":47,"x_max":678,"o":"m 47 0 l 47 972 l 281 972 l 281 592 l 322 592 l 374 883 l 463 972 l 675 972 l 675 769 l 576 769 l 522 514 l 678 0 l 419 0 l 322 394 l 281 394 l 281 0 l 47 0 z "},"ƙ":{"ha":658,"x_min":47,"x_max":639,"o":"m 47 0 l 47 819 l 200 972 l 372 972 l 372 794 l 281 794 l 281 501 l 319 501 l 388 778 l 629 778 l 517 418 l 639 0 l 396 0 l 325 307 l 281 307 l 281 0 l 47 0 z "},"Ĺ":{"ha":597,"x_min":47,"x_max":569,"o":"m 47 0 l 47 972 l 281 972 l 281 194 l 364 194 l 364 389 l 569 389 l 569 0 l 47 0 m 47 1050 l 47 1167 l 383 1206 l 383 1050 l 47 1050 z "},"ĺ":{"ha":328,"x_min":44,"x_max":317,"o":"m 47 0 l 47 972 l 281 972 l 281 0 l 47 0 m 44 1031 l 44 1146 l 317 1206 l 317 1050 l 44 1031 z "},"Ľ":{"ha":597,"x_min":47,"x_max":569,"o":"m 47 0 l 47 972 l 281 972 l 281 194 l 364 194 l 364 389 l 569 389 l 569 0 l 47 0 m 356 650 l 356 972 l 442 972 l 442 650 l 356 650 z "},"ľ":{"ha":414,"x_min":47,"x_max":414,"o":"m 47 0 l 47 972 l 281 972 l 281 0 l 47 0 m 328 650 l 328 972 l 414 972 l 414 650 l 328 650 z "},"Ļ":{"ha":597,"x_min":47,"x_max":569,"o":"m 47 0 l 47 972 l 281 972 l 281 194 l 364 194 l 364 389 l 569 389 l 569 0 l 47 0 m 183 -278 l 233 -75 l 444 -75 l 346 -278 l 183 -278 z "},"ļ":{"ha":328,"x_min":35,"x_max":296,"o":"m 47 0 l 47 972 l 281 972 l 281 0 l 47 0 m 35 -278 l 85 -75 l 296 -75 l 197 -278 l 35 -278 z "},"Ł":{"ha":597,"x_min":47,"x_max":569,"o":"m 163 394 l 163 589 l 496 783 l 496 589 l 163 394 m 47 0 l 47 972 l 281 972 l 281 194 l 364 194 l 364 389 l 569 389 l 569 0 l 47 0 z "},"ł":{"ha":400,"x_min":7,"x_max":393,"o":"m 7 272 l 7 494 l 393 728 l 393 506 l 7 272 m 83 0 l 83 972 l 317 972 l 317 0 l 83 0 z "},"Ḷ":{"ha":597,"x_min":47,"x_max":569,"o":"m 47 0 l 47 972 l 281 972 l 281 194 l 364 194 l 364 389 l 569 389 l 569 0 l 47 0 m 196 -247 l 196 -94 l 429 -94 l 429 -247 l 196 -247 z "},"ḷ":{"ha":328,"x_min":47,"x_max":281,"o":"m 47 0 l 47 972 l 281 972 l 281 0 l 47 0 m 47 -247 l 47 -94 l 281 -94 l 281 -247 l 47 -247 z "},"Ḻ":{"ha":597,"x_min":47,"x_max":569,"o":"m 47 0 l 47 972 l 281 972 l 281 194 l 364 194 l 364 389 l 569 389 l 569 0 l 47 0 m 132 -236 l 132 -86 l 493 -86 l 493 -236 l 132 -236 z "},"ḻ":{"ha":328,"x_min":-17,"x_max":344,"o":"m 47 0 l 47 972 l 281 972 l 281 0 l 47 0 m -17 -236 l -17 -86 l 344 -86 l 344 -236 l -17 -236 z "},"Ŀ":{"ha":597,"x_min":47,"x_max":569,"o":"m 47 0 l 47 972 l 281 972 l 281 194 l 364 194 l 364 389 l 569 389 l 569 0 l 47 0 m 358 514 l 358 731 l 567 731 l 567 514 l 358 514 z "},"ŀ":{"ha":456,"x_min":47,"x_max":458,"o":"m 47 0 l 47 972 l 281 972 l 281 0 l 47 0 m 325 389 l 325 606 l 458 606 l 458 389 l 325 389 z "},"Ḿ":{"ha":756,"x_min":47,"x_max":708,"o":"m 47 0 l 47 972 l 267 972 l 378 667 l 489 972 l 708 972 l 708 0 l 485 0 l 485 586 l 400 353 l 356 353 l 271 586 l 271 0 l 47 0 m 228 1050 l 228 1167 l 564 1206 l 564 1050 l 228 1050 z "},"ḿ":{"ha":968,"x_min":47,"x_max":921,"o":"m 47 778 l 760 778 l 921 617 l 921 0 l 692 0 l 692 592 l 594 592 l 594 0 l 374 0 l 374 592 l 276 592 l 276 0 l 47 0 l 47 778 m 335 856 l 335 972 l 671 1011 l 671 856 l 335 856 z "},"Ṁ":{"ha":756,"x_min":47,"x_max":708,"o":"m 47 0 l 47 972 l 267 972 l 378 667 l 489 972 l 708 972 l 708 0 l 485 0 l 485 586 l 400 353 l 356 353 l 271 586 l 271 0 l 47 0 m 261 1044 l 261 1197 l 494 1197 l 494 1044 l 261 1044 z "},"ṁ":{"ha":968,"x_min":47,"x_max":921,"o":"m 47 778 l 760 778 l 921 617 l 921 0 l 692 0 l 692 592 l 594 592 l 594 0 l 374 0 l 374 592 l 276 592 l 276 0 l 47 0 l 47 778 m 368 850 l 368 1003 l 601 1003 l 601 850 l 368 850 z "},"Ń":{"ha":678,"x_min":47,"x_max":631,"o":"m 47 0 l 47 972 l 232 972 l 417 446 l 417 972 l 631 972 l 631 0 l 446 0 l 261 526 l 261 0 l 47 0 m 189 1050 l 189 1167 l 525 1206 l 525 1050 l 189 1050 z "},"ń":{"ha":661,"x_min":47,"x_max":614,"o":"m 47 0 l 47 778 l 453 778 l 614 617 l 614 0 l 381 0 l 381 575 l 281 575 l 281 0 l 47 0 m 181 856 l 181 972 l 517 1011 l 517 856 l 181 856 z "},"Ǹ":{"ha":678,"x_min":47,"x_max":631,"o":"m 47 0 l 47 972 l 232 972 l 417 446 l 417 972 l 631 972 l 631 0 l 446 0 l 261 526 l 261 0 l 47 0 m 489 1050 l 153 1050 l 153 1206 l 489 1167 l 489 1050 z "},"ǹ":{"ha":661,"x_min":47,"x_max":614,"o":"m 47 0 l 47 778 l 453 778 l 614 617 l 614 0 l 381 0 l 381 575 l 281 575 l 281 0 l 47 0 m 481 856 l 144 856 l 144 1011 l 481 972 l 481 856 z "},"Ň":{"ha":678,"x_min":47,"x_max":631,"o":"m 47 0 l 47 972 l 232 972 l 417 446 l 417 972 l 631 972 l 631 0 l 446 0 l 261 526 l 261 0 l 47 0 m 519 1247 l 519 1103 l 339 1019 l 158 1103 l 158 1247 l 339 1164 l 519 1247 z "},"ň":{"ha":661,"x_min":47,"x_max":614,"o":"m 47 0 l 47 778 l 453 778 l 614 617 l 614 0 l 381 0 l 381 575 l 281 575 l 281 0 l 47 0 m 511 1053 l 511 908 l 331 825 l 150 908 l 150 1053 l 331 969 l 511 1053 z "},"Ñ":{"ha":678,"x_min":47,"x_max":631,"o":"m 47 0 l 47 972 l 232 972 l 417 446 l 417 972 l 631 972 l 631 0 l 446 0 l 261 526 l 261 0 l 47 0 m 158 1014 l 133 1146 l 267 1235 l 400 1168 l 519 1236 l 544 1104 l 411 1015 l 278 1082 l 158 1014 z "},"ñ":{"ha":661,"x_min":47,"x_max":614,"o":"m 47 0 l 47 778 l 453 778 l 614 617 l 614 0 l 381 0 l 381 575 l 281 575 l 281 0 l 47 0 m 150 819 l 125 951 l 258 1040 l 392 974 l 511 1042 l 536 910 l 403 821 l 269 888 l 150 819 z "},"Ṅ":{"ha":678,"x_min":47,"x_max":631,"o":"m 47 0 l 47 972 l 232 972 l 417 446 l 417 972 l 631 972 l 631 0 l 446 0 l 261 526 l 261 0 l 47 0 m 222 1044 l 222 1197 l 456 1197 l 456 1044 l 222 1044 z "},"ṅ":{"ha":661,"x_min":47,"x_max":614,"o":"m 47 0 l 47 778 l 453 778 l 614 617 l 614 0 l 381 0 l 381 575 l 281 575 l 281 0 l 47 0 m 214 850 l 214 1003 l 447 1003 l 447 850 l 214 850 z "},"Ņ":{"ha":678,"x_min":47,"x_max":631,"o":"m 47 0 l 47 972 l 232 972 l 417 446 l 417 972 l 631 972 l 631 0 l 446 0 l 261 526 l 261 0 l 47 0 m 210 -278 l 260 -75 l 471 -75 l 372 -278 l 210 -278 z "},"ņ":{"ha":661,"x_min":47,"x_max":614,"o":"m 47 0 l 47 778 l 453 778 l 614 617 l 614 0 l 381 0 l 381 575 l 281 575 l 281 0 l 47 0 m 201 -278 l 251 -75 l 463 -75 l 364 -278 l 201 -278 z "},"Ṉ":{"ha":678,"x_min":47,"x_max":631,"o":"m 47 0 l 47 972 l 232 972 l 417 446 l 417 972 l 631 972 l 631 0 l 446 0 l 261 526 l 261 0 l 47 0 m 158 -236 l 158 -86 l 519 -86 l 519 -236 l 158 -236 z "},"ṉ":{"ha":661,"x_min":47,"x_max":614,"o":"m 47 0 l 47 778 l 453 778 l 614 617 l 614 0 l 381 0 l 381 575 l 281 575 l 281 0 l 47 0 m 150 -236 l 150 -86 l 511 -86 l 511 -236 l 150 -236 z "},"Ɲ":{"ha":678,"x_min":-6,"x_max":631,"o":"m -6 0 l -6 203 l 47 203 l 47 972 l 232 972 l 417 446 l 417 972 l 631 972 l 631 0 l 446 0 l 261 526 l 261 114 l 147 0 l -6 0 z "},"ɲ":{"ha":661,"x_min":-25,"x_max":614,"o":"m -25 -194 l -25 8 l 47 8 l 47 778 l 453 778 l 614 617 l 614 0 l 381 0 l 381 575 l 281 575 l 281 -36 l 122 -194 l -25 -194 z "},"Ŋ":{"ha":678,"x_min":47,"x_max":631,"o":"m 47 0 l 47 972 l 232 972 l 417 446 l 417 972 l 631 972 l 631 -61 l 481 -211 l 308 -211 l 308 -42 l 442 -42 l 442 14 l 261 526 l 261 0 l 47 0 z "},"ŋ":{"ha":661,"x_min":47,"x_max":614,"o":"m 47 0 l 47 778 l 453 778 l 614 617 l 614 -72 l 464 -222 l 292 -222 l 292 -53 l 381 -53 l 381 575 l 281 575 l 281 0 l 47 0 z "},"Ó":{"ha":667,"x_min":43,"x_max":624,"o":"m 43 161 l 43 811 l 204 974 l 463 974 l 624 811 l 624 161 l 463 -1 l 204 -1 l 43 161 m 282 761 l 282 211 l 385 211 l 385 761 l 282 761 m 183 1050 l 183 1167 l 519 1206 l 519 1050 l 183 1050 z "},"ó":{"ha":656,"x_min":44,"x_max":611,"o":"m 44 153 l 44 625 l 197 778 l 458 778 l 611 625 l 611 153 l 458 0 l 197 0 l 44 153 m 278 186 l 378 186 l 378 592 l 278 592 l 278 186 m 178 856 l 178 972 l 514 1011 l 514 856 l 178 856 z "},"Ò":{"ha":667,"x_min":43,"x_max":624,"o":"m 43 161 l 43 811 l 204 974 l 463 974 l 624 811 l 624 161 l 463 -1 l 204 -1 l 43 161 m 282 761 l 282 211 l 385 211 l 385 761 l 282 761 m 483 1050 l 147 1050 l 147 1206 l 483 1167 l 483 1050 z "},"ò":{"ha":656,"x_min":44,"x_max":611,"o":"m 44 153 l 44 625 l 197 778 l 458 778 l 611 625 l 611 153 l 458 0 l 197 0 l 44 153 m 278 186 l 378 186 l 378 592 l 278 592 l 278 186 m 478 856 l 142 856 l 142 1011 l 478 972 l 478 856 z "},"Ŏ":{"ha":667,"x_min":43,"x_max":624,"o":"m 43 161 l 43 811 l 204 974 l 463 974 l 624 811 l 624 161 l 463 -1 l 204 -1 l 43 161 m 282 761 l 282 211 l 385 211 l 385 761 l 282 761 m 386 1217 l 556 1217 l 444 1025 l 222 1025 l 111 1217 l 281 1217 l 293 1133 l 374 1133 l 386 1217 z "},"ŏ":{"ha":656,"x_min":44,"x_max":611,"o":"m 44 153 l 44 625 l 197 778 l 458 778 l 611 625 l 611 153 l 458 0 l 197 0 l 44 153 m 278 186 l 378 186 l 378 592 l 278 592 l 278 186 m 381 1022 l 550 1022 l 439 831 l 217 831 l 106 1022 l 275 1022 l 288 939 l 368 939 l 381 1022 z "},"Ô":{"ha":667,"x_min":43,"x_max":624,"o":"m 43 161 l 43 811 l 204 974 l 463 974 l 624 811 l 624 161 l 463 -1 l 204 -1 l 43 161 m 282 761 l 282 211 l 385 211 l 385 761 l 282 761 m 153 1019 l 153 1164 l 333 1247 l 514 1164 l 514 1019 l 333 1103 l 153 1019 z "},"ô":{"ha":656,"x_min":44,"x_max":611,"o":"m 44 153 l 44 625 l 197 778 l 458 778 l 611 625 l 611 153 l 458 0 l 197 0 l 44 153 m 278 186 l 378 186 l 378 592 l 278 592 l 278 186 m 147 825 l 147 969 l 328 1053 l 508 969 l 508 825 l 328 908 l 147 825 z "},"Ǒ":{"ha":667,"x_min":43,"x_max":624,"o":"m 43 161 l 43 811 l 204 974 l 463 974 l 624 811 l 624 161 l 463 -1 l 204 -1 l 43 161 m 282 761 l 282 211 l 385 211 l 385 761 l 282 761 m 514 1247 l 514 1103 l 333 1019 l 153 1103 l 153 1247 l 333 1164 l 514 1247 z "},"ǒ":{"ha":656,"x_min":44,"x_max":611,"o":"m 44 153 l 44 625 l 197 778 l 458 778 l 611 625 l 611 153 l 458 0 l 197 0 l 44 153 m 278 186 l 378 186 l 378 592 l 278 592 l 278 186 m 508 1053 l 508 908 l 328 825 l 147 908 l 147 1053 l 328 969 l 508 1053 z "},"Ö":{"ha":667,"x_min":43,"x_max":624,"o":"m 43 161 l 43 811 l 204 974 l 463 974 l 624 811 l 624 161 l 463 -1 l 204 -1 l 43 161 m 282 761 l 282 211 l 385 211 l 385 761 l 282 761 m 138 1044 l 138 1197 l 299 1197 l 299 1044 l 138 1044 m 368 1044 l 368 1197 l 529 1197 l 529 1044 l 368 1044 z "},"ö":{"ha":656,"x_min":44,"x_max":611,"o":"m 44 153 l 44 625 l 197 778 l 458 778 l 611 625 l 611 153 l 458 0 l 197 0 l 44 153 m 278 186 l 378 186 l 378 592 l 278 592 l 278 186 m 132 850 l 132 1003 l 293 1003 l 293 850 l 132 850 m 363 850 l 363 1003 l 524 1003 l 524 850 l 363 850 z "},"Ȫ":{"ha":667,"x_min":43,"x_max":624,"o":"m 43 161 l 43 811 l 204 974 l 463 974 l 624 811 l 624 161 l 463 -1 l 204 -1 l 43 161 m 282 761 l 282 211 l 385 211 l 385 761 l 282 761 m 138 1044 l 138 1197 l 299 1197 l 299 1044 l 138 1044 m 368 1044 l 368 1197 l 529 1197 l 529 1044 l 368 1044 m 153 1256 l 153 1353 l 514 1353 l 514 1256 l 153 1256 z "},"ȫ":{"ha":656,"x_min":44,"x_max":611,"o":"m 44 153 l 44 625 l 197 778 l 458 778 l 611 625 l 611 153 l 458 0 l 197 0 l 44 153 m 278 186 l 378 186 l 378 592 l 278 592 l 278 186 m 132 850 l 132 1003 l 293 1003 l 293 850 l 132 850 m 363 850 l 363 1003 l 524 1003 l 524 850 l 363 850 m 147 1061 l 147 1158 l 508 1158 l 508 1061 l 147 1061 z "},"Ő":{"ha":667,"x_min":43,"x_max":624,"o":"m 43 161 l 43 811 l 204 974 l 463 974 l 624 811 l 624 161 l 463 -1 l 204 -1 l 43 161 m 282 761 l 282 211 l 385 211 l 385 761 l 282 761 m 171 1019 l 226 1203 l 386 1203 l 292 1019 l 171 1019 m 346 1019 l 426 1203 l 586 1203 l 467 1019 l 346 1019 z "},"ő":{"ha":656,"x_min":44,"x_max":611,"o":"m 44 153 l 44 625 l 197 778 l 458 778 l 611 625 l 611 153 l 458 0 l 197 0 l 44 153 m 278 186 l 378 186 l 378 592 l 278 592 l 278 186 m 165 825 l 221 1008 l 381 1008 l 286 825 l 165 825 m 340 825 l 421 1008 l 581 1008 l 461 825 l 340 825 z "},"Õ":{"ha":667,"x_min":43,"x_max":624,"o":"m 43 161 l 43 811 l 204 974 l 463 974 l 624 811 l 624 161 l 463 -1 l 204 -1 l 43 161 m 282 761 l 282 211 l 385 211 l 385 761 l 282 761 m 153 1014 l 128 1146 l 261 1235 l 394 1168 l 514 1236 l 539 1104 l 406 1015 l 272 1082 l 153 1014 z "},"õ":{"ha":656,"x_min":44,"x_max":611,"o":"m 44 153 l 44 625 l 197 778 l 458 778 l 611 625 l 611 153 l 458 0 l 197 0 l 44 153 m 278 186 l 378 186 l 378 592 l 278 592 l 278 186 m 147 819 l 122 951 l 256 1040 l 389 974 l 508 1042 l 533 910 l 400 821 l 267 888 l 147 819 z "},"Ȭ":{"ha":667,"x_min":43,"x_max":624,"o":"m 43 161 l 43 811 l 204 974 l 463 974 l 624 811 l 624 161 l 463 -1 l 204 -1 l 43 161 m 282 761 l 282 211 l 385 211 l 385 761 l 282 761 m 153 1014 l 128 1146 l 261 1235 l 394 1168 l 514 1236 l 539 1104 l 406 1015 l 272 1082 l 153 1014 m 153 1267 l 153 1364 l 514 1364 l 514 1267 l 153 1267 z "},"ȭ":{"ha":656,"x_min":44,"x_max":611,"o":"m 44 153 l 44 625 l 197 778 l 458 778 l 611 625 l 611 153 l 458 0 l 197 0 l 44 153 m 278 186 l 378 186 l 378 592 l 278 592 l 278 186 m 147 819 l 122 951 l 256 1040 l 389 974 l 508 1042 l 533 910 l 400 821 l 267 888 l 147 819 m 147 1072 l 147 1169 l 508 1169 l 508 1072 l 147 1072 z "},"Ȯ":{"ha":667,"x_min":43,"x_max":624,"o":"m 43 161 l 43 811 l 204 974 l 463 974 l 624 811 l 624 161 l 463 -1 l 204 -1 l 43 161 m 282 761 l 282 211 l 385 211 l 385 761 l 282 761 m 217 1044 l 217 1197 l 450 1197 l 450 1044 l 217 1044 z "},"ȯ":{"ha":656,"x_min":44,"x_max":611,"o":"m 44 153 l 44 625 l 197 778 l 458 778 l 611 625 l 611 153 l 458 0 l 197 0 l 44 153 m 278 186 l 378 186 l 378 592 l 278 592 l 278 186 m 211 850 l 211 1003 l 444 1003 l 444 850 l 211 850 z "},"Ȱ":{"ha":667,"x_min":43,"x_max":624,"o":"m 43 161 l 43 811 l 204 974 l 463 974 l 624 811 l 624 161 l 463 -1 l 204 -1 l 43 161 m 282 761 l 282 211 l 385 211 l 385 761 l 282 761 m 217 1044 l 217 1197 l 450 1197 l 450 1044 l 217 1044 m 153 1256 l 153 1353 l 514 1353 l 514 1256 l 153 1256 z "},"ȱ":{"ha":656,"x_min":44,"x_max":611,"o":"m 44 153 l 44 625 l 197 778 l 458 778 l 611 625 l 611 153 l 458 0 l 197 0 l 44 153 m 278 186 l 378 186 l 378 592 l 278 592 l 278 186 m 211 850 l 211 1003 l 444 1003 l 444 850 l 211 850 m 147 1061 l 147 1158 l 508 1158 l 508 1061 l 147 1061 z "},"Ø":{"ha":658,"x_min":43,"x_max":615,"o":"m 43 167 l 43 811 l 204 972 l 449 972 l 615 806 l 615 161 l 454 0 l 210 0 l 43 167 m 272 771 l 272 201 l 386 201 l 386 771 l 272 771 m 46 0 l 529 972 l 613 972 l 129 0 l 46 0 z "},"ø":{"ha":656,"x_min":36,"x_max":619,"o":"m 44 153 l 44 625 l 197 778 l 458 778 l 611 625 l 611 153 l 458 0 l 197 0 l 44 153 m 267 176 l 389 176 l 389 601 l 267 601 l 267 176 m 36 0 l 532 778 l 619 778 l 124 0 l 36 0 z "},"Ǿ":{"ha":658,"x_min":43,"x_max":615,"o":"m 43 167 l 43 811 l 204 972 l 449 972 l 615 806 l 615 161 l 454 0 l 210 0 l 43 167 m 272 771 l 272 201 l 386 201 l 386 771 l 272 771 m 46 0 l 529 972 l 613 972 l 129 0 l 46 0 m 179 1050 l 179 1167 l 515 1206 l 515 1050 l 179 1050 z "},"ǿ":{"ha":656,"x_min":36,"x_max":619,"o":"m 44 153 l 44 625 l 197 778 l 458 778 l 611 625 l 611 153 l 458 0 l 197 0 l 44 153 m 267 176 l 389 176 l 389 601 l 267 601 l 267 176 m 36 0 l 532 778 l 619 778 l 124 0 l 36 0 m 178 856 l 178 972 l 514 1011 l 514 856 l 178 856 z "},"Ǫ":{"ha":667,"x_min":43,"x_max":624,"o":"m 43 161 l 43 811 l 204 974 l 463 974 l 624 811 l 624 161 l 463 -1 l 204 -1 l 43 161 m 282 761 l 282 211 l 385 211 l 385 761 l 282 761 m 438 -67 l 390 -278 l 182 -278 l 272 -67 l 438 -67 z "},"ǫ":{"ha":656,"x_min":44,"x_max":611,"o":"m 44 153 l 44 625 l 197 778 l 458 778 l 611 625 l 611 153 l 458 0 l 197 0 l 44 153 m 278 186 l 378 186 l 378 592 l 278 592 l 278 186 m 432 -67 l 385 -278 l 176 -278 l 267 -67 l 432 -67 z "},"Ō":{"ha":667,"x_min":43,"x_max":624,"o":"m 43 161 l 43 811 l 204 974 l 463 974 l 624 811 l 624 161 l 463 -1 l 204 -1 l 43 161 m 282 761 l 282 211 l 385 211 l 385 761 l 282 761 m 153 1058 l 153 1208 l 514 1208 l 514 1058 l 153 1058 z "},"ō":{"ha":656,"x_min":44,"x_max":611,"o":"m 44 153 l 44 625 l 197 778 l 458 778 l 611 625 l 611 153 l 458 0 l 197 0 l 44 153 m 278 186 l 378 186 l 378 592 l 278 592 l 278 186 m 147 864 l 147 1014 l 508 1014 l 508 864 l 147 864 z "},"Ȍ":{"ha":667,"x_min":43,"x_max":624,"o":"m 43 161 l 43 811 l 204 974 l 463 974 l 624 811 l 624 161 l 463 -1 l 204 -1 l 43 161 m 282 761 l 282 211 l 385 211 l 385 761 l 282 761 m 440 1203 l 496 1019 l 375 1019 l 281 1203 l 440 1203 m 240 1203 l 321 1019 l 200 1019 l 81 1203 l 240 1203 z "},"ȍ":{"ha":656,"x_min":44,"x_max":611,"o":"m 44 153 l 44 625 l 197 778 l 458 778 l 611 625 l 611 153 l 458 0 l 197 0 l 44 153 m 278 186 l 378 186 l 378 592 l 278 592 l 278 186 m 435 1008 l 490 825 l 369 825 l 275 1008 l 435 1008 m 235 1008 l 315 825 l 194 825 l 75 1008 l 235 1008 z "},"Ȏ":{"ha":667,"x_min":43,"x_max":624,"o":"m 43 161 l 43 811 l 204 974 l 463 974 l 624 811 l 624 161 l 463 -1 l 204 -1 l 43 161 m 282 761 l 282 211 l 385 211 l 385 761 l 282 761 m 281 1024 l 111 1024 l 222 1215 l 444 1215 l 556 1024 l 386 1024 l 374 1107 l 293 1107 l 281 1024 z "},"ȏ":{"ha":656,"x_min":44,"x_max":611,"o":"m 44 153 l 44 625 l 197 778 l 458 778 l 611 625 l 611 153 l 458 0 l 197 0 l 44 153 m 278 186 l 378 186 l 378 592 l 278 592 l 278 186 m 275 829 l 106 829 l 217 1021 l 439 1021 l 550 829 l 381 829 l 368 913 l 288 913 l 275 829 z "},"Œ":{"ha":838,"x_min":43,"x_max":813,"o":"m 43 161 l 43 811 l 204 972 l 799 972 l 799 778 l 615 778 l 615 589 l 771 589 l 771 403 l 615 403 l 615 194 l 813 194 l 813 0 l 204 0 l 43 161 m 276 761 l 276 211 l 382 211 l 382 761 l 276 761 z "},"œ":{"ha":950,"x_min":44,"x_max":906,"o":"m 44 153 l 44 625 l 197 778 l 433 778 l 494 717 l 556 778 l 906 778 l 906 317 l 611 317 l 611 194 l 878 194 l 878 0 l 531 0 l 494 36 l 458 0 l 197 0 l 44 153 m 278 186 l 378 186 l 378 592 l 278 592 l 278 186 m 611 431 l 707 442 l 707 600 l 611 600 l 611 431 z "},"Ɔ":{"ha":543,"x_min":28,"x_max":500,"o":"m 500 811 l 500 161 l 339 0 l 33 0 l 33 218 l 249 218 l 249 754 l 28 754 l 28 972 l 339 972 l 500 811 z "},"ɔ":{"ha":514,"x_min":44,"x_max":486,"o":"m 486 619 l 486 158 l 328 0 l 44 0 l 44 211 l 253 211 l 253 567 l 44 567 l 44 778 l 328 778 l 486 619 z "},"Ṗ":{"ha":649,"x_min":47,"x_max":619,"o":"m 281 378 l 386 378 l 386 786 l 281 786 l 281 378 m 619 811 l 619 353 l 458 192 l 281 192 l 281 0 l 47 0 l 47 972 l 458 972 l 619 811 m 253 1044 l 253 1197 l 486 1197 l 486 1044 l 253 1044 z "},"ṗ":{"ha":658,"x_min":47,"x_max":614,"o":"m 47 -194 l 47 778 l 453 778 l 614 617 l 614 161 l 453 0 l 281 0 l 281 -194 l 47 -194 m 381 583 l 281 583 l 281 194 l 381 194 l 381 583 m 197 850 l 197 1003 l 431 1003 l 431 850 l 197 850 z "},"ĸ":{"ha":658,"x_min":47,"x_max":639,"o":"m 47 0 l 47 778 l 281 778 l 281 501 l 319 501 l 388 778 l 629 778 l 517 418 l 639 0 l 396 0 l 325 307 l 281 307 l 281 0 l 47 0 z "},"Ŕ":{"ha":667,"x_min":47,"x_max":656,"o":"m 281 460 l 386 460 l 386 786 l 281 786 l 281 460 m 619 811 l 619 429 l 529 339 l 656 0 l 389 0 l 338 275 l 281 275 l 281 0 l 47 0 l 47 972 l 458 972 l 619 811 m 154 1050 l 154 1167 l 490 1206 l 490 1050 l 154 1050 z "},"ŕ":{"ha":453,"x_min":47,"x_max":435,"o":"m 47 0 l 47 617 l 208 778 l 435 778 l 435 565 l 281 565 l 281 0 l 47 0 m 97 856 l 97 972 l 433 1011 l 433 856 l 97 856 z "},"Ř":{"ha":667,"x_min":47,"x_max":656,"o":"m 281 460 l 386 460 l 386 786 l 281 786 l 281 460 m 619 811 l 619 429 l 529 339 l 656 0 l 389 0 l 338 275 l 281 275 l 281 0 l 47 0 l 47 972 l 458 972 l 619 811 m 485 1247 l 485 1103 l 304 1019 l 124 1103 l 124 1247 l 304 1164 l 485 1247 z "},"ř":{"ha":453,"x_min":47,"x_max":435,"o":"m 47 0 l 47 617 l 208 778 l 435 778 l 435 565 l 281 565 l 281 0 l 47 0 m 428 1053 l 428 908 l 247 825 l 67 908 l 67 1053 l 247 969 l 428 1053 z "},"Ŗ":{"ha":667,"x_min":47,"x_max":656,"o":"m 281 460 l 386 460 l 386 786 l 281 786 l 281 460 m 619 811 l 619 429 l 529 339 l 656 0 l 389 0 l 338 275 l 281 275 l 281 0 l 47 0 l 47 972 l 458 972 l 619 811 m 203 -278 l 253 -75 l 464 -75 l 365 -278 l 203 -278 z "},"ŗ":{"ha":453,"x_min":35,"x_max":435,"o":"m 47 0 l 47 617 l 208 778 l 435 778 l 435 565 l 281 565 l 281 0 l 47 0 m 35 -278 l 85 -75 l 296 -75 l 197 -278 l 35 -278 z "},"Ȑ":{"ha":667,"x_min":47,"x_max":656,"o":"m 281 460 l 386 460 l 386 786 l 281 786 l 281 460 m 619 811 l 619 429 l 529 339 l 656 0 l 389 0 l 338 275 l 281 275 l 281 0 l 47 0 l 47 972 l 458 972 l 619 811 m 411 1203 l 467 1019 l 346 1019 l 251 1203 l 411 1203 m 211 1203 l 292 1019 l 171 1019 l 51 1203 l 211 1203 z "},"ȑ":{"ha":453,"x_min":-6,"x_max":435,"o":"m 47 0 l 47 617 l 208 778 l 435 778 l 435 565 l 281 565 l 281 0 l 47 0 m 354 1008 l 410 825 l 289 825 l 194 1008 l 354 1008 m 154 1008 l 235 825 l 114 825 l -6 1008 l 154 1008 z "},"Ȓ":{"ha":667,"x_min":47,"x_max":656,"o":"m 281 460 l 386 460 l 386 786 l 281 786 l 281 460 m 619 811 l 619 429 l 529 339 l 656 0 l 389 0 l 338 275 l 281 275 l 281 0 l 47 0 l 47 972 l 458 972 l 619 811 m 251 1024 l 82 1024 l 193 1215 l 415 1215 l 526 1024 l 357 1024 l 344 1107 l 264 1107 l 251 1024 z "},"ȓ":{"ha":453,"x_min":25,"x_max":469,"o":"m 47 0 l 47 617 l 208 778 l 435 778 l 435 565 l 281 565 l 281 0 l 47 0 m 194 829 l 25 829 l 136 1021 l 358 1021 l 469 829 l 300 829 l 288 913 l 207 913 l 194 829 z "},"Ṛ":{"ha":667,"x_min":47,"x_max":656,"o":"m 281 460 l 386 460 l 386 786 l 281 786 l 281 460 m 619 811 l 619 429 l 529 339 l 656 0 l 389 0 l 338 275 l 281 275 l 281 0 l 47 0 l 47 972 l 458 972 l 619 811 m 215 -247 l 215 -94 l 449 -94 l 449 -247 l 215 -247 z "},"ṛ":{"ha":453,"x_min":47,"x_max":435,"o":"m 47 0 l 47 617 l 208 778 l 435 778 l 435 565 l 281 565 l 281 0 l 47 0 m 47 -247 l 47 -94 l 281 -94 l 281 -247 l 47 -247 z "},"Ś":{"ha":600,"x_min":43,"x_max":557,"o":"m 51 0 l 51 204 l 324 204 l 324 390 l 43 425 l 43 811 l 204 972 l 547 972 l 547 768 l 276 768 l 276 596 l 557 561 l 557 161 l 396 0 l 51 0 m 168 1050 l 168 1167 l 504 1206 l 504 1050 l 168 1050 z "},"ś":{"ha":581,"x_min":44,"x_max":536,"o":"m 44 0 l 44 186 l 303 186 l 303 328 l 44 328 l 44 633 l 189 778 l 536 778 l 536 592 l 278 592 l 278 456 l 536 456 l 536 143 l 393 0 l 44 0 m 163 856 l 163 972 l 499 1011 l 499 856 l 163 856 z "},"Ŝ":{"ha":600,"x_min":43,"x_max":557,"o":"m 51 0 l 51 204 l 324 204 l 324 390 l 43 425 l 43 811 l 204 972 l 547 972 l 547 768 l 276 768 l 276 596 l 557 561 l 557 161 l 396 0 l 51 0 m 138 1019 l 138 1164 l 318 1247 l 499 1164 l 499 1019 l 318 1103 l 138 1019 z "},"ŝ":{"ha":581,"x_min":44,"x_max":536,"o":"m 44 0 l 44 186 l 303 186 l 303 328 l 44 328 l 44 633 l 189 778 l 536 778 l 536 592 l 278 592 l 278 456 l 536 456 l 536 143 l 393 0 l 44 0 m 132 825 l 132 969 l 313 1053 l 493 969 l 493 825 l 313 908 l 132 825 z "},"Š":{"ha":600,"x_min":43,"x_max":557,"o":"m 51 0 l 51 204 l 324 204 l 324 390 l 43 425 l 43 811 l 204 972 l 547 972 l 547 768 l 276 768 l 276 596 l 557 561 l 557 161 l 396 0 l 51 0 m 499 1247 l 499 1103 l 318 1019 l 138 1103 l 138 1247 l 318 1164 l 499 1247 z "},"š":{"ha":581,"x_min":44,"x_max":536,"o":"m 44 0 l 44 186 l 303 186 l 303 328 l 44 328 l 44 633 l 189 778 l 536 778 l 536 592 l 278 592 l 278 456 l 536 456 l 536 143 l 393 0 l 44 0 m 493 1053 l 493 908 l 313 825 l 132 908 l 132 1053 l 313 969 l 493 1053 z "},"Ṡ":{"ha":600,"x_min":43,"x_max":557,"o":"m 51 0 l 51 204 l 324 204 l 324 390 l 43 425 l 43 811 l 204 972 l 547 972 l 547 768 l 276 768 l 276 596 l 557 561 l 557 161 l 396 0 l 51 0 m 201 1044 l 201 1197 l 435 1197 l 435 1044 l 201 1044 z "},"ṡ":{"ha":581,"x_min":44,"x_max":536,"o":"m 44 0 l 44 186 l 303 186 l 303 328 l 44 328 l 44 633 l 189 778 l 536 778 l 536 592 l 278 592 l 278 456 l 536 456 l 536 143 l 393 0 l 44 0 m 196 850 l 196 1003 l 429 1003 l 429 850 l 196 850 z "},"Ş":{"ha":600,"x_min":43,"x_max":557,"o":"m 51 0 l 51 204 l 324 204 l 324 390 l 43 425 l 43 811 l 204 972 l 547 972 l 547 768 l 276 768 l 276 596 l 557 561 l 557 161 l 396 0 l 51 0 m 153 -278 l 203 -75 l 414 -75 l 317 -278 l 153 -278 z "},"ş":{"ha":581,"x_min":44,"x_max":536,"o":"m 44 0 l 44 186 l 303 186 l 303 328 l 44 328 l 44 633 l 189 778 l 536 778 l 536 592 l 278 592 l 278 456 l 536 456 l 536 143 l 393 0 l 44 0 m 139 -278 l 189 -75 l 400 -75 l 303 -278 l 139 -278 z "},"Ṣ":{"ha":600,"x_min":43,"x_max":557,"o":"m 51 0 l 51 204 l 324 204 l 324 390 l 43 425 l 43 811 l 204 972 l 547 972 l 547 768 l 276 768 l 276 596 l 557 561 l 557 161 l 396 0 l 51 0 m 165 -247 l 165 -94 l 399 -94 l 399 -247 l 165 -247 z "},"ṣ":{"ha":581,"x_min":44,"x_max":536,"o":"m 44 0 l 44 186 l 303 186 l 303 328 l 44 328 l 44 633 l 189 778 l 536 778 l 536 592 l 278 592 l 278 456 l 536 456 l 536 143 l 393 0 l 44 0 m 151 -247 l 151 -94 l 385 -94 l 385 -247 l 151 -247 z "},"Ș":{"ha":600,"x_min":43,"x_max":557,"o":"m 51 0 l 51 204 l 324 204 l 324 390 l 43 425 l 43 811 l 204 972 l 547 972 l 547 768 l 276 768 l 276 596 l 557 561 l 557 161 l 396 0 l 51 0 m 153 -278 l 203 -75 l 414 -75 l 315 -278 l 153 -278 z "},"ș":{"ha":581,"x_min":44,"x_max":536,"o":"m 44 0 l 44 186 l 303 186 l 303 328 l 44 328 l 44 633 l 189 778 l 536 778 l 536 592 l 278 592 l 278 456 l 536 456 l 536 143 l 393 0 l 44 0 m 139 -278 l 189 -75 l 400 -75 l 301 -278 l 139 -278 z "},"ſ":{"ha":458,"x_min":47,"x_max":431,"o":"m 47 0 l 47 819 l 200 972 l 431 972 l 431 769 l 281 769 l 281 0 l 47 0 z "},"ẞ":{"ha":676,"x_min":47,"x_max":647,"o":"m 629 972 l 629 618 l 553 540 l 647 451 l 647 139 l 508 0 l 342 0 l 342 203 l 414 203 l 414 424 l 342 424 l 342 585 l 404 585 l 404 778 l 281 778 l 281 0 l 47 0 l 47 828 l 192 972 l 629 972 z "},"ß":{"ha":713,"x_min":47,"x_max":683,"o":"m 653 803 l 653 601 l 560 519 l 683 419 l 683 153 l 531 0 l 350 0 l 350 186 l 450 186 l 450 424 l 350 424 l 350 585 l 424 585 l 424 786 l 281 786 l 281 0 l 47 0 l 47 803 l 217 972 l 483 972 l 653 803 z "},"Ť":{"ha":531,"x_min":19,"x_max":511,"o":"m 140 0 l 140 761 l 19 761 l 19 972 l 511 972 l 511 761 l 382 761 l 382 0 l 140 0 m 446 1247 l 446 1103 l 265 1019 l 85 1103 l 85 1247 l 265 1164 l 446 1247 z "},"ť":{"ha":472,"x_min":47,"x_max":444,"o":"m 358 806 l 358 1069 l 444 1069 l 444 806 l 358 806 m 47 903 l 281 972 l 281 750 l 444 750 l 444 556 l 281 556 l 281 194 l 444 194 l 444 0 l 208 0 l 47 161 l 47 903 z "},"Ṫ":{"ha":531,"x_min":19,"x_max":511,"o":"m 140 0 l 140 761 l 19 761 l 19 972 l 511 972 l 511 761 l 382 761 l 382 0 l 140 0 m 149 1044 l 149 1197 l 382 1197 l 382 1044 l 149 1044 z "},"ṫ":{"ha":472,"x_min":47,"x_max":444,"o":"m 47 903 l 281 972 l 281 750 l 444 750 l 444 556 l 281 556 l 281 194 l 444 194 l 444 0 l 208 0 l 47 161 l 47 903 m 147 1044 l 147 1197 l 381 1197 l 381 1044 l 147 1044 z "},"Ţ":{"ha":531,"x_min":19,"x_max":511,"o":"m 140 0 l 140 761 l 19 761 l 19 972 l 511 972 l 511 761 l 382 761 l 382 0 l 140 0 m 136 -278 l 186 -75 l 397 -75 l 299 -278 l 136 -278 z "},"ţ":{"ha":472,"x_min":47,"x_max":444,"o":"m 47 903 l 281 972 l 281 750 l 444 750 l 444 556 l 281 556 l 281 194 l 444 194 l 444 0 l 208 0 l 47 161 l 47 903 m 132 -278 l 182 -75 l 393 -75 l 294 -278 l 132 -278 z "},"Ṭ":{"ha":531,"x_min":19,"x_max":511,"o":"m 140 0 l 140 761 l 19 761 l 19 972 l 511 972 l 511 761 l 382 761 l 382 0 l 140 0 m 149 -247 l 149 -94 l 382 -94 l 382 -247 l 149 -247 z "},"ṭ":{"ha":472,"x_min":47,"x_max":444,"o":"m 47 903 l 281 972 l 281 750 l 444 750 l 444 556 l 281 556 l 281 194 l 444 194 l 444 0 l 208 0 l 47 161 l 47 903 m 144 -247 l 144 -94 l 378 -94 l 378 -247 l 144 -247 z "},"Ț":{"ha":531,"x_min":19,"x_max":511,"o":"m 140 0 l 140 761 l 19 761 l 19 972 l 511 972 l 511 761 l 382 761 l 382 0 l 140 0 m 136 -278 l 186 -75 l 397 -75 l 299 -278 l 136 -278 z "},"ț":{"ha":472,"x_min":47,"x_max":444,"o":"m 47 903 l 281 972 l 281 750 l 444 750 l 444 556 l 281 556 l 281 194 l 444 194 l 444 0 l 208 0 l 47 161 l 47 903 m 132 -278 l 182 -75 l 393 -75 l 294 -278 l 132 -278 z "},"Ŧ":{"ha":531,"x_min":19,"x_max":511,"o":"m 50 353 l 50 519 l 481 519 l 481 353 l 50 353 m 140 0 l 140 761 l 19 761 l 19 972 l 511 972 l 511 761 l 382 761 l 382 0 l 140 0 z "},"ŧ":{"ha":472,"x_min":13,"x_max":444,"o":"m 47 903 l 281 972 l 281 750 l 444 750 l 444 564 l 281 564 l 281 194 l 444 194 l 444 0 l 208 0 l 47 161 l 47 903 m 13 358 l 13 464 l 444 464 l 444 358 l 13 358 z "},"Ú":{"ha":667,"x_min":47,"x_max":619,"o":"m 47 161 l 47 972 l 281 972 l 281 211 l 386 211 l 386 972 l 619 972 l 619 161 l 458 0 l 208 0 l 47 161 m 183 1050 l 183 1167 l 519 1206 l 519 1050 l 183 1050 z "},"ú":{"ha":661,"x_min":47,"x_max":614,"o":"m 614 778 l 614 0 l 208 0 l 47 161 l 47 778 l 281 778 l 281 203 l 381 203 l 381 778 l 614 778 m 181 856 l 181 972 l 517 1011 l 517 856 l 181 856 z "},"Ù":{"ha":667,"x_min":47,"x_max":619,"o":"m 47 161 l 47 972 l 281 972 l 281 211 l 386 211 l 386 972 l 619 972 l 619 161 l 458 0 l 208 0 l 47 161 m 483 1050 l 147 1050 l 147 1206 l 483 1167 l 483 1050 z "},"ù":{"ha":661,"x_min":47,"x_max":614,"o":"m 614 778 l 614 0 l 208 0 l 47 161 l 47 778 l 281 778 l 281 203 l 381 203 l 381 778 l 614 778 m 481 856 l 144 856 l 144 1011 l 481 972 l 481 856 z "},"Ŭ":{"ha":667,"x_min":47,"x_max":619,"o":"m 47 161 l 47 972 l 281 972 l 281 211 l 386 211 l 386 972 l 619 972 l 619 161 l 458 0 l 208 0 l 47 161 m 386 1217 l 556 1217 l 444 1025 l 222 1025 l 111 1217 l 281 1217 l 293 1133 l 374 1133 l 386 1217 z "},"ŭ":{"ha":661,"x_min":47,"x_max":614,"o":"m 614 778 l 614 0 l 208 0 l 47 161 l 47 778 l 281 778 l 281 203 l 381 203 l 381 778 l 614 778 m 383 1022 l 553 1022 l 442 831 l 219 831 l 108 1022 l 278 1022 l 290 939 l 371 939 l 383 1022 z "},"Û":{"ha":667,"x_min":47,"x_max":619,"o":"m 47 161 l 47 972 l 281 972 l 281 211 l 386 211 l 386 972 l 619 972 l 619 161 l 458 0 l 208 0 l 47 161 m 153 1019 l 153 1164 l 333 1247 l 514 1164 l 514 1019 l 333 1103 l 153 1019 z "},"û":{"ha":661,"x_min":47,"x_max":614,"o":"m 614 778 l 614 0 l 208 0 l 47 161 l 47 778 l 281 778 l 281 203 l 381 203 l 381 778 l 614 778 m 150 825 l 150 969 l 331 1053 l 511 969 l 511 825 l 331 908 l 150 825 z "},"Ǔ":{"ha":667,"x_min":47,"x_max":619,"o":"m 47 161 l 47 972 l 281 972 l 281 211 l 386 211 l 386 972 l 619 972 l 619 161 l 458 0 l 208 0 l 47 161 m 514 1247 l 514 1103 l 333 1019 l 153 1103 l 153 1247 l 333 1164 l 514 1247 z "},"ǔ":{"ha":661,"x_min":47,"x_max":614,"o":"m 614 778 l 614 0 l 208 0 l 47 161 l 47 778 l 281 778 l 281 203 l 381 203 l 381 778 l 614 778 m 511 1053 l 511 908 l 331 825 l 150 908 l 150 1053 l 331 969 l 511 1053 z "},"Ů":{"ha":667,"x_min":47,"x_max":619,"o":"m 47 161 l 47 972 l 281 972 l 281 211 l 386 211 l 386 972 l 619 972 l 619 161 l 458 0 l 208 0 l 47 161 m 165 1085 l 165 1210 l 263 1294 l 404 1294 l 501 1210 l 501 1085 l 404 1000 l 263 1000 l 165 1085 m 282 1103 l 385 1103 l 385 1192 l 282 1192 l 282 1103 z "},"ů":{"ha":661,"x_min":47,"x_max":614,"o":"m 614 778 l 614 0 l 208 0 l 47 161 l 47 778 l 281 778 l 281 203 l 381 203 l 381 778 l 614 778 m 163 890 l 163 1015 l 260 1100 l 401 1100 l 499 1015 l 499 890 l 401 806 l 260 806 l 163 890 m 279 908 l 382 908 l 382 997 l 279 997 l 279 908 z "},"Ü":{"ha":667,"x_min":47,"x_max":619,"o":"m 47 161 l 47 972 l 281 972 l 281 211 l 386 211 l 386 972 l 619 972 l 619 161 l 458 0 l 208 0 l 47 161 m 138 1044 l 138 1197 l 299 1197 l 299 1044 l 138 1044 m 368 1044 l 368 1197 l 529 1197 l 529 1044 l 368 1044 z "},"ü":{"ha":661,"x_min":47,"x_max":614,"o":"m 614 778 l 614 0 l 208 0 l 47 161 l 47 778 l 281 778 l 281 203 l 381 203 l 381 778 l 614 778 m 135 850 l 135 1003 l 296 1003 l 296 850 l 135 850 m 365 850 l 365 1003 l 526 1003 l 526 850 l 365 850 z "},"Ǘ":{"ha":667,"x_min":47,"x_max":619,"o":"m 47 161 l 47 972 l 281 972 l 281 211 l 386 211 l 386 972 l 619 972 l 619 161 l 458 0 l 208 0 l 47 161 m 138 1033 l 138 1153 l 299 1153 l 299 1033 l 138 1033 m 368 1033 l 368 1153 l 529 1153 l 529 1033 l 368 1033 m 183 1231 l 183 1347 l 519 1386 l 519 1231 l 183 1231 z "},"ǘ":{"ha":661,"x_min":47,"x_max":614,"o":"m 614 778 l 614 0 l 208 0 l 47 161 l 47 778 l 281 778 l 281 203 l 381 203 l 381 778 l 614 778 m 135 839 l 135 958 l 296 958 l 296 839 l 135 839 m 365 839 l 365 958 l 526 958 l 526 839 l 365 839 m 181 1036 l 181 1153 l 517 1192 l 517 1036 l 181 1036 z "},"Ǜ":{"ha":667,"x_min":47,"x_max":619,"o":"m 47 161 l 47 972 l 281 972 l 281 211 l 386 211 l 386 972 l 619 972 l 619 161 l 458 0 l 208 0 l 47 161 m 138 1033 l 138 1153 l 299 1153 l 299 1033 l 138 1033 m 368 1033 l 368 1153 l 529 1153 l 529 1033 l 368 1033 m 483 1231 l 147 1231 l 147 1386 l 483 1347 l 483 1231 z "},"ǜ":{"ha":661,"x_min":47,"x_max":614,"o":"m 614 778 l 614 0 l 208 0 l 47 161 l 47 778 l 281 778 l 281 203 l 381 203 l 381 778 l 614 778 m 135 839 l 135 958 l 296 958 l 296 839 l 135 839 m 365 839 l 365 958 l 526 958 l 526 839 l 365 839 m 481 1036 l 144 1036 l 144 1192 l 481 1153 l 481 1036 z "},"Ǚ":{"ha":667,"x_min":47,"x_max":619,"o":"m 47 161 l 47 972 l 281 972 l 281 211 l 386 211 l 386 972 l 619 972 l 619 161 l 458 0 l 208 0 l 47 161 m 138 1033 l 138 1153 l 299 1153 l 299 1033 l 138 1033 m 368 1033 l 368 1153 l 529 1153 l 529 1033 l 368 1033 m 514 1389 l 514 1272 l 333 1189 l 153 1272 l 153 1389 l 333 1306 l 514 1389 z "},"ǚ":{"ha":661,"x_min":47,"x_max":614,"o":"m 614 778 l 614 0 l 208 0 l 47 161 l 47 778 l 281 778 l 281 203 l 381 203 l 381 778 l 614 778 m 135 839 l 135 958 l 296 958 l 296 839 l 135 839 m 365 839 l 365 958 l 526 958 l 526 839 l 365 839 m 511 1194 l 511 1078 l 331 994 l 150 1078 l 150 1194 l 331 1111 l 511 1194 z "},"Ǖ":{"ha":667,"x_min":47,"x_max":619,"o":"m 47 161 l 47 972 l 281 972 l 281 211 l 386 211 l 386 972 l 619 972 l 619 161 l 458 0 l 208 0 l 47 161 m 138 1033 l 138 1153 l 299 1153 l 299 1033 l 138 1033 m 368 1033 l 368 1153 l 529 1153 l 529 1033 l 368 1033 m 153 1211 l 153 1308 l 514 1308 l 514 1211 l 153 1211 z "},"ǖ":{"ha":661,"x_min":47,"x_max":614,"o":"m 614 778 l 614 0 l 208 0 l 47 161 l 47 778 l 281 778 l 281 203 l 381 203 l 381 778 l 614 778 m 135 839 l 135 958 l 296 958 l 296 839 l 135 839 m 365 839 l 365 958 l 526 958 l 526 839 l 365 839 m 150 1017 l 150 1114 l 511 1114 l 511 1017 l 150 1017 z "},"Ű":{"ha":667,"x_min":47,"x_max":619,"o":"m 47 161 l 47 972 l 281 972 l 281 211 l 386 211 l 386 972 l 619 972 l 619 161 l 458 0 l 208 0 l 47 161 m 171 1019 l 226 1203 l 386 1203 l 292 1019 l 171 1019 m 346 1019 l 426 1203 l 586 1203 l 467 1019 l 346 1019 z "},"ű":{"ha":661,"x_min":47,"x_max":614,"o":"m 614 778 l 614 0 l 208 0 l 47 161 l 47 778 l 281 778 l 281 203 l 381 203 l 381 778 l 614 778 m 168 825 l 224 1008 l 383 1008 l 289 825 l 168 825 m 343 825 l 424 1008 l 583 1008 l 464 825 l 343 825 z "},"Ũ":{"ha":667,"x_min":47,"x_max":619,"o":"m 47 161 l 47 972 l 281 972 l 281 211 l 386 211 l 386 972 l 619 972 l 619 161 l 458 0 l 208 0 l 47 161 m 153 1014 l 128 1146 l 261 1235 l 394 1168 l 514 1236 l 539 1104 l 406 1015 l 272 1082 l 153 1014 z "},"ũ":{"ha":661,"x_min":47,"x_max":614,"o":"m 614 778 l 614 0 l 208 0 l 47 161 l 47 778 l 281 778 l 281 203 l 381 203 l 381 778 l 614 778 m 150 819 l 125 951 l 258 1040 l 392 974 l 511 1042 l 536 910 l 403 821 l 269 888 l 150 819 z "},"Ų":{"ha":667,"x_min":47,"x_max":619,"o":"m 47 161 l 47 972 l 281 972 l 281 211 l 386 211 l 386 972 l 619 972 l 619 161 l 458 0 l 208 0 l 47 161 m 460 -67 l 413 -278 l 204 -278 l 294 -67 l 460 -67 z "},"ų":{"ha":661,"x_min":47,"x_max":614,"o":"m 614 778 l 614 0 l 208 0 l 47 161 l 47 778 l 281 778 l 281 203 l 381 203 l 381 778 l 614 778 m 610 -67 l 563 -278 l 354 -278 l 444 -67 l 610 -67 z "},"Ū":{"ha":667,"x_min":47,"x_max":619,"o":"m 47 161 l 47 972 l 281 972 l 281 211 l 386 211 l 386 972 l 619 972 l 619 161 l 458 0 l 208 0 l 47 161 m 153 1058 l 153 1208 l 514 1208 l 514 1058 l 153 1058 z "},"ū":{"ha":661,"x_min":47,"x_max":614,"o":"m 614 778 l 614 0 l 208 0 l 47 161 l 47 778 l 281 778 l 281 203 l 381 203 l 381 778 l 614 778 m 150 864 l 150 1014 l 511 1014 l 511 864 l 150 864 z "},"Ȕ":{"ha":667,"x_min":47,"x_max":619,"o":"m 47 161 l 47 972 l 281 972 l 281 211 l 386 211 l 386 972 l 619 972 l 619 161 l 458 0 l 208 0 l 47 161 m 440 1203 l 496 1019 l 375 1019 l 281 1203 l 440 1203 m 240 1203 l 321 1019 l 200 1019 l 81 1203 l 240 1203 z "},"ȕ":{"ha":661,"x_min":47,"x_max":614,"o":"m 614 778 l 614 0 l 208 0 l 47 161 l 47 778 l 281 778 l 281 203 l 381 203 l 381 778 l 614 778 m 438 1008 l 493 825 l 372 825 l 278 1008 l 438 1008 m 238 1008 l 318 825 l 197 825 l 78 1008 l 238 1008 z "},"Ȗ":{"ha":667,"x_min":47,"x_max":619,"o":"m 47 161 l 47 972 l 281 972 l 281 211 l 386 211 l 386 972 l 619 972 l 619 161 l 458 0 l 208 0 l 47 161 m 281 1024 l 111 1024 l 222 1215 l 444 1215 l 556 1024 l 386 1024 l 374 1107 l 293 1107 l 281 1024 z "},"ȗ":{"ha":661,"x_min":47,"x_max":614,"o":"m 614 778 l 614 0 l 208 0 l 47 161 l 47 778 l 281 778 l 281 203 l 381 203 l 381 778 l 614 778 m 278 829 l 108 829 l 219 1021 l 442 1021 l 553 829 l 383 829 l 371 913 l 290 913 l 278 829 z "},"Ʉ":{"ha":667,"x_min":10,"x_max":657,"o":"m 10 467 l 10 601 l 657 601 l 657 467 l 10 467 m 47 161 l 47 972 l 281 972 l 281 211 l 386 211 l 386 972 l 619 972 l 619 161 l 458 0 l 208 0 l 47 161 z "},"ʉ":{"ha":661,"x_min":7,"x_max":654,"o":"m 7 394 l 7 528 l 654 528 l 654 394 l 7 394 m 614 778 l 614 0 l 208 0 l 47 161 l 47 778 l 281 778 l 281 203 l 381 203 l 381 778 l 614 778 z "},"Ṽ":{"ha":672,"x_min":10,"x_max":663,"o":"m 139 0 l 10 972 l 251 972 l 324 201 l 349 201 l 421 972 l 663 972 l 533 0 l 139 0 m 156 1014 l 131 1146 l 264 1235 l 397 1168 l 517 1236 l 542 1104 l 408 1015 l 275 1082 l 156 1014 z "},"ṽ":{"ha":644,"x_min":15,"x_max":629,"o":"m 131 0 l 15 778 l 250 778 l 308 199 l 340 199 l 399 778 l 629 778 l 514 0 l 131 0 m 142 819 l 117 951 l 250 1040 l 383 974 l 503 1042 l 528 910 l 394 821 l 261 888 l 142 819 z "},"Ʋ":{"ha":667,"x_min":47,"x_max":619,"o":"m 208 0 l 47 161 l 47 972 l 281 972 l 281 211 l 386 211 l 386 769 l 319 769 l 319 972 l 497 972 l 619 850 l 619 161 l 458 0 l 208 0 z "},"ʋ":{"ha":661,"x_min":47,"x_max":614,"o":"m 208 0 l 47 161 l 47 778 l 281 778 l 281 203 l 381 203 l 381 583 l 319 583 l 319 778 l 492 778 l 614 656 l 614 161 l 453 0 l 208 0 z "},"Ẃ":{"ha":906,"x_min":22,"x_max":883,"o":"m 93 0 l 22 972 l 268 972 l 290 244 l 313 244 l 369 819 l 536 819 l 593 244 l 615 244 l 638 972 l 883 972 l 813 0 l 496 0 l 450 485 l 410 0 l 93 0 m 303 1050 l 303 1167 l 639 1206 l 639 1050 l 303 1050 z "},"ẃ":{"ha":914,"x_min":18,"x_max":896,"o":"m 97 0 l 18 778 l 247 778 l 282 224 l 304 224 l 360 667 l 554 667 l 610 224 l 632 224 l 667 778 l 896 778 l 817 0 l 506 0 l 454 429 l 408 0 l 97 0 m 307 856 l 307 972 l 643 1011 l 643 856 l 307 856 z "},"Ẁ":{"ha":906,"x_min":22,"x_max":883,"o":"m 93 0 l 22 972 l 268 972 l 290 244 l 313 244 l 369 819 l 536 819 l 593 244 l 615 244 l 638 972 l 883 972 l 813 0 l 496 0 l 450 485 l 410 0 l 93 0 m 603 1050 l 267 1050 l 267 1206 l 603 1167 l 603 1050 z "},"ẁ":{"ha":914,"x_min":18,"x_max":896,"o":"m 97 0 l 18 778 l 247 778 l 282 224 l 304 224 l 360 667 l 554 667 l 610 224 l 632 224 l 667 778 l 896 778 l 817 0 l 506 0 l 454 429 l 408 0 l 97 0 m 607 856 l 271 856 l 271 1011 l 607 972 l 607 856 z "},"Ŵ":{"ha":906,"x_min":22,"x_max":883,"o":"m 93 0 l 22 972 l 268 972 l 290 244 l 313 244 l 369 819 l 536 819 l 593 244 l 615 244 l 638 972 l 883 972 l 813 0 l 496 0 l 450 485 l 410 0 l 93 0 m 272 1019 l 272 1164 l 453 1247 l 633 1164 l 633 1019 l 453 1103 l 272 1019 z "},"ŵ":{"ha":914,"x_min":18,"x_max":896,"o":"m 97 0 l 18 778 l 247 778 l 282 224 l 304 224 l 360 667 l 554 667 l 610 224 l 632 224 l 667 778 l 896 778 l 817 0 l 506 0 l 454 429 l 408 0 l 97 0 m 276 825 l 276 969 l 457 1053 l 638 969 l 638 825 l 457 908 l 276 825 z "},"Ẅ":{"ha":906,"x_min":22,"x_max":883,"o":"m 93 0 l 22 972 l 268 972 l 290 244 l 313 244 l 369 819 l 536 819 l 593 244 l 615 244 l 638 972 l 883 972 l 813 0 l 496 0 l 450 485 l 410 0 l 93 0 m 257 1044 l 257 1197 l 418 1197 l 418 1044 l 257 1044 m 488 1044 l 488 1197 l 649 1197 l 649 1044 l 488 1044 z "},"ẅ":{"ha":914,"x_min":18,"x_max":896,"o":"m 97 0 l 18 778 l 247 778 l 282 224 l 304 224 l 360 667 l 554 667 l 610 224 l 632 224 l 667 778 l 896 778 l 817 0 l 506 0 l 454 429 l 408 0 l 97 0 m 261 850 l 261 1003 l 422 1003 l 422 850 l 261 850 m 492 850 l 492 1003 l 653 1003 l 653 850 l 492 850 z "},"Ý":{"ha":667,"x_min":13,"x_max":654,"o":"m 217 0 l 217 292 l 131 292 l 13 972 l 261 972 l 313 476 l 354 476 l 406 972 l 654 972 l 536 292 l 450 292 l 450 0 l 217 0 m 183 1050 l 183 1167 l 519 1206 l 519 1050 l 183 1050 z "},"ý":{"ha":644,"x_min":15,"x_max":629,"o":"m 50 -194 l 50 0 l 308 0 l 322 94 l 118 94 l 15 778 l 249 778 l 297 281 l 343 281 l 397 778 l 629 778 l 481 -194 l 50 -194 m 172 856 l 172 972 l 508 1011 l 508 856 l 172 856 z "},"Ỳ":{"ha":667,"x_min":13,"x_max":654,"o":"m 217 0 l 217 292 l 131 292 l 13 972 l 261 972 l 313 476 l 354 476 l 406 972 l 654 972 l 536 292 l 450 292 l 450 0 l 217 0 m 483 1050 l 147 1050 l 147 1206 l 483 1167 l 483 1050 z "},"ỳ":{"ha":644,"x_min":15,"x_max":629,"o":"m 50 -194 l 50 0 l 308 0 l 322 94 l 118 94 l 15 778 l 249 778 l 297 281 l 343 281 l 397 778 l 629 778 l 481 -194 l 50 -194 m 472 856 l 136 856 l 136 1011 l 472 972 l 472 856 z "},"Ŷ":{"ha":667,"x_min":13,"x_max":654,"o":"m 217 0 l 217 292 l 131 292 l 13 972 l 261 972 l 313 476 l 354 476 l 406 972 l 654 972 l 536 292 l 450 292 l 450 0 l 217 0 m 153 1019 l 153 1164 l 333 1247 l 514 1164 l 514 1019 l 333 1103 l 153 1019 z "},"ŷ":{"ha":644,"x_min":15,"x_max":629,"o":"m 50 -194 l 50 0 l 308 0 l 322 94 l 118 94 l 15 778 l 249 778 l 297 281 l 343 281 l 397 778 l 629 778 l 481 -194 l 50 -194 m 142 825 l 142 969 l 322 1053 l 503 969 l 503 825 l 322 908 l 142 825 z "},"Ÿ":{"ha":667,"x_min":13,"x_max":654,"o":"m 217 0 l 217 292 l 131 292 l 13 972 l 261 972 l 313 476 l 354 476 l 406 972 l 654 972 l 536 292 l 450 292 l 450 0 l 217 0 m 138 1044 l 138 1197 l 299 1197 l 299 1044 l 138 1044 m 368 1044 l 368 1197 l 529 1197 l 529 1044 l 368 1044 z "},"ÿ":{"ha":644,"x_min":15,"x_max":629,"o":"m 50 -194 l 50 0 l 308 0 l 322 94 l 118 94 l 15 778 l 249 778 l 297 281 l 343 281 l 397 778 l 629 778 l 481 -194 l 50 -194 m 126 850 l 126 1003 l 288 1003 l 288 850 l 126 850 m 357 850 l 357 1003 l 518 1003 l 518 850 l 357 850 z "},"Ỹ":{"ha":667,"x_min":13,"x_max":654,"o":"m 217 0 l 217 292 l 131 292 l 13 972 l 261 972 l 313 476 l 354 476 l 406 972 l 654 972 l 536 292 l 450 292 l 450 0 l 217 0 m 153 1014 l 128 1146 l 261 1235 l 394 1168 l 514 1236 l 539 1104 l 406 1015 l 272 1082 l 153 1014 z "},"ỹ":{"ha":644,"x_min":15,"x_max":629,"o":"m 50 -194 l 50 0 l 308 0 l 322 94 l 118 94 l 15 778 l 249 778 l 297 281 l 343 281 l 397 778 l 629 778 l 481 -194 l 50 -194 m 142 819 l 117 951 l 250 1040 l 383 974 l 503 1042 l 528 910 l 394 821 l 261 888 l 142 819 z "},"Ȳ":{"ha":667,"x_min":13,"x_max":654,"o":"m 217 0 l 217 292 l 131 292 l 13 972 l 261 972 l 313 476 l 354 476 l 406 972 l 654 972 l 536 292 l 450 292 l 450 0 l 217 0 m 153 1058 l 153 1208 l 514 1208 l 514 1058 l 153 1058 z "},"ȳ":{"ha":644,"x_min":15,"x_max":629,"o":"m 50 -194 l 50 0 l 308 0 l 322 94 l 118 94 l 15 778 l 249 778 l 297 281 l 343 281 l 397 778 l 629 778 l 481 -194 l 50 -194 m 142 864 l 142 1014 l 503 1014 l 503 864 l 142 864 z "},"Ƴ":{"ha":697,"x_min":13,"x_max":685,"o":"m 217 0 l 217 292 l 131 292 l 13 972 l 261 972 l 313 476 l 354 476 l 397 889 l 481 972 l 685 972 l 685 769 l 607 769 l 535 292 l 450 292 l 450 0 l 217 0 z "},"ƴ":{"ha":644,"x_min":15,"x_max":664,"o":"m 50 -194 l 50 0 l 310 0 l 324 94 l 118 94 l 15 778 l 249 778 l 297 281 l 343 281 l 407 875 l 504 972 l 664 972 l 664 794 l 617 794 l 483 -194 l 50 -194 z "},"Ź":{"ha":571,"x_min":33,"x_max":538,"o":"m 33 0 l 33 172 l 276 778 l 38 778 l 38 972 l 533 972 l 533 800 l 290 194 l 538 194 l 538 0 l 33 0 m 136 1050 l 136 1167 l 472 1206 l 472 1050 l 136 1050 z "},"ź":{"ha":501,"x_min":28,"x_max":474,"o":"m 28 0 l 28 167 l 218 583 l 32 583 l 32 778 l 469 778 l 469 611 l 279 194 l 474 194 l 474 0 l 28 0 m 101 856 l 101 972 l 438 1011 l 438 856 l 101 856 z "},"Ž":{"ha":571,"x_min":33,"x_max":538,"o":"m 33 0 l 33 172 l 276 778 l 38 778 l 38 972 l 533 972 l 533 800 l 290 194 l 538 194 l 538 0 l 33 0 m 467 1247 l 467 1103 l 286 1019 l 106 1103 l 106 1247 l 286 1164 l 467 1247 z "},"ž":{"ha":501,"x_min":28,"x_max":474,"o":"m 28 0 l 28 167 l 218 583 l 32 583 l 32 778 l 469 778 l 469 611 l 279 194 l 474 194 l 474 0 l 28 0 m 432 1053 l 432 908 l 251 825 l 71 908 l 71 1053 l 251 969 l 432 1053 z "},"Ż":{"ha":571,"x_min":33,"x_max":538,"o":"m 33 0 l 33 172 l 276 778 l 38 778 l 38 972 l 533 972 l 533 800 l 290 194 l 538 194 l 538 0 l 33 0 m 169 1044 l 169 1197 l 403 1197 l 403 1044 l 169 1044 z "},"ż":{"ha":501,"x_min":28,"x_max":474,"o":"m 28 0 l 28 167 l 218 583 l 32 583 l 32 778 l 469 778 l 469 611 l 279 194 l 474 194 l 474 0 l 28 0 m 135 850 l 135 1003 l 368 1003 l 368 850 l 135 850 z "},"Ẓ":{"ha":571,"x_min":33,"x_max":538,"o":"m 33 0 l 33 172 l 276 778 l 38 778 l 38 972 l 533 972 l 533 800 l 290 194 l 538 194 l 538 0 l 33 0 m 169 -247 l 169 -94 l 403 -94 l 403 -247 l 169 -247 z "},"ẓ":{"ha":501,"x_min":28,"x_max":474,"o":"m 28 0 l 28 167 l 218 583 l 32 583 l 32 778 l 469 778 l 469 611 l 279 194 l 474 194 l 474 0 l 28 0 m 135 -247 l 135 -94 l 368 -94 l 368 -247 l 135 -247 z "},"Ʒ":{"ha":586,"x_min":28,"x_max":556,"o":"m 394 0 l 28 0 l 28 194 l 318 194 l 318 406 l 94 406 l 94 564 l 260 778 l 28 778 l 28 972 l 519 972 l 519 817 l 321 572 l 447 572 l 556 464 l 556 161 l 394 0 z "},"ʒ":{"ha":578,"x_min":24,"x_max":551,"o":"m 390 -194 l 24 -194 l 24 0 l 314 0 l 314 197 l 90 197 l 90 356 l 264 583 l 24 583 l 24 778 l 531 778 l 531 622 l 317 364 l 443 364 l 551 256 l 551 -33 l 390 -194 z "},"Ǯ":{"ha":586,"x_min":28,"x_max":556,"o":"m 394 0 l 28 0 l 28 194 l 318 194 l 318 406 l 94 406 l 94 564 l 260 778 l 28 778 l 28 972 l 519 972 l 519 817 l 321 572 l 447 572 l 556 464 l 556 161 l 394 0 m 474 1247 l 474 1103 l 293 1019 l 113 1103 l 113 1247 l 293 1164 l 474 1247 z "},"ǯ":{"ha":578,"x_min":24,"x_max":551,"o":"m 390 -194 l 24 -194 l 24 0 l 314 0 l 314 197 l 90 197 l 90 356 l 264 583 l 24 583 l 24 778 l 531 778 l 531 622 l 317 364 l 443 364 l 551 256 l 551 -33 l 390 -194 m 469 1053 l 469 908 l 289 825 l 108 908 l 108 1053 l 289 969 l 469 1053 z "},"Þ":{"ha":649,"x_min":47,"x_max":619,"o":"m 47 0 l 47 972 l 281 972 l 281 861 l 450 861 l 619 692 l 619 294 l 450 125 l 281 125 l 281 0 l 47 0 m 281 311 l 386 311 l 386 675 l 281 675 l 281 311 z "},"þ":{"ha":658,"x_min":47,"x_max":614,"o":"m 47 -194 l 47 972 l 281 972 l 281 778 l 439 778 l 614 603 l 614 175 l 439 0 l 281 0 l 281 -194 l 47 -194 m 281 194 l 381 194 l 381 583 l 281 583 l 281 194 z "},"ʔ":{"ha":528,"x_min":29,"x_max":499,"o":"m 303 0 l 86 0 l 86 529 l 282 617 l 282 769 l 29 769 l 29 972 l 343 972 l 499 817 l 499 490 l 303 392 l 303 0 z "},"Ꞌ":{"ha":328,"x_min":32,"x_max":296,"o":"m 74 278 l 32 972 l 296 972 l 254 278 l 74 278 z "},"ꞌ":{"ha":300,"x_min":28,"x_max":272,"o":"m 60 417 l 28 972 l 272 972 l 240 417 l 60 417 z "},"ǀ":{"ha":317,"x_min":57,"x_max":260,"o":"m 57 -42 l 57 1014 l 260 1014 l 260 -42 l 57 -42 z "},"ǁ":{"ha":592,"x_min":53,"x_max":539,"o":"m 53 -42 l 53 1014 l 256 1014 l 256 -42 l 53 -42 m 336 -42 l 336 1014 l 539 1014 l 539 -42 l 336 -42 z "},"ǂ":{"ha":628,"x_min":56,"x_max":572,"o":"m 213 -42 l 213 239 l 56 239 l 56 425 l 213 425 l 213 547 l 56 547 l 56 733 l 213 733 l 213 1014 l 415 1014 l 415 733 l 572 733 l 572 547 l 415 547 l 415 425 l 572 425 l 572 239 l 415 239 l 415 -42 l 213 -42 z "},"ǃ":{"ha":344,"x_min":40,"x_max":304,"o":"m 64 0 l 64 222 l 281 222 l 281 0 l 64 0 m 82 319 l 40 972 l 304 972 l 263 319 l 82 319 z "},"Ạ":{"ha":672,"x_min":10,"x_max":663,"o":"m 10 0 l 139 972 l 533 972 l 663 0 l 429 0 l 410 192 l 263 192 l 243 0 l 10 0 m 281 368 l 392 368 l 349 788 l 324 788 l 281 368 m 219 -247 l 219 -94 l 453 -94 l 453 -247 l 219 -247 z "},"ạ":{"ha":617,"x_min":33,"x_max":569,"o":"m 33 144 l 33 467 l 344 481 l 344 583 l 47 583 l 47 778 l 408 778 l 569 617 l 569 0 l 178 0 l 33 144 m 258 342 l 258 186 l 344 186 l 344 367 l 258 342 m 169 -247 l 169 -94 l 403 -94 l 403 -247 l 169 -247 z "},"Ả":{"ha":672,"x_min":10,"x_max":663,"o":"m 10 0 l 139 972 l 533 972 l 663 0 l 429 0 l 410 192 l 263 192 l 243 0 l 10 0 m 281 368 l 392 368 l 349 788 l 324 788 l 281 368 m 219 1117 l 219 1208 l 461 1208 l 461 1117 l 372 1014 l 239 1014 l 331 1117 l 219 1117 z "},"ả":{"ha":617,"x_min":33,"x_max":569,"o":"m 33 144 l 33 467 l 344 481 l 344 583 l 47 583 l 47 778 l 408 778 l 569 617 l 569 0 l 178 0 l 33 144 m 258 342 l 258 186 l 344 186 l 344 367 l 258 342 m 169 922 l 169 1014 l 411 1014 l 411 922 l 322 819 l 189 819 l 281 922 l 169 922 z "},"Ấ":{"ha":672,"x_min":10,"x_max":663,"o":"m 10 0 l 139 972 l 533 972 l 663 0 l 429 0 l 410 192 l 263 192 l 243 0 l 10 0 m 281 368 l 392 368 l 349 788 l 324 788 l 281 368 m 350 1226 l 350 1310 l 525 1372 l 525 1260 l 350 1226 m 156 1008 l 156 1149 l 336 1215 l 517 1149 l 517 1008 l 336 1075 l 156 1008 z "},"ấ":{"ha":617,"x_min":33,"x_max":569,"o":"m 33 144 l 33 467 l 344 481 l 344 583 l 47 583 l 47 778 l 408 778 l 569 617 l 569 0 l 178 0 l 33 144 m 258 342 l 258 186 l 344 186 l 344 367 l 258 342 m 300 1032 l 300 1115 l 475 1178 l 475 1065 l 300 1032 m 106 814 l 106 954 l 286 1021 l 467 954 l 467 814 l 286 881 l 106 814 z "},"Ầ":{"ha":672,"x_min":10,"x_max":663,"o":"m 10 0 l 139 972 l 533 972 l 663 0 l 429 0 l 410 192 l 263 192 l 243 0 l 10 0 m 281 368 l 392 368 l 349 788 l 324 788 l 281 368 m 517 1215 l 342 1260 l 342 1372 l 517 1300 l 517 1215 m 156 1008 l 156 1149 l 336 1215 l 517 1149 l 517 1008 l 336 1075 l 156 1008 z "},"ầ":{"ha":617,"x_min":33,"x_max":569,"o":"m 33 144 l 33 467 l 344 481 l 344 583 l 47 583 l 47 778 l 408 778 l 569 617 l 569 0 l 178 0 l 33 144 m 258 342 l 258 186 l 344 186 l 344 367 l 258 342 m 467 1021 l 292 1065 l 292 1178 l 467 1106 l 467 1021 m 106 814 l 106 954 l 286 1021 l 467 954 l 467 814 l 286 881 l 106 814 z "},"Ẩ":{"ha":672,"x_min":10,"x_max":663,"o":"m 10 0 l 139 972 l 533 972 l 663 0 l 429 0 l 410 192 l 263 192 l 243 0 l 10 0 m 281 368 l 392 368 l 349 788 l 324 788 l 281 368 m 156 1008 l 156 1149 l 336 1215 l 517 1149 l 517 1008 l 336 1075 l 156 1008 m 383 1288 l 383 1364 l 514 1364 l 572 1294 l 503 1188 l 422 1215 l 474 1288 l 383 1288 z "},"ẩ":{"ha":617,"x_min":33,"x_max":569,"o":"m 33 144 l 33 467 l 344 481 l 344 583 l 47 583 l 47 778 l 408 778 l 569 617 l 569 0 l 178 0 l 33 144 m 258 342 l 258 186 l 344 186 l 344 367 l 258 342 m 106 814 l 106 954 l 286 1021 l 467 954 l 467 814 l 286 881 l 106 814 m 333 1093 l 333 1169 l 464 1169 l 522 1100 l 453 993 l 372 1021 l 424 1093 l 333 1093 z "},"Ẫ":{"ha":672,"x_min":10,"x_max":663,"o":"m 10 0 l 139 972 l 533 972 l 663 0 l 429 0 l 410 192 l 263 192 l 243 0 l 10 0 m 281 368 l 392 368 l 349 788 l 324 788 l 281 368 m 156 1008 l 156 1149 l 336 1211 l 517 1149 l 517 1008 l 336 1075 l 156 1008 m 200 1224 l 172 1308 l 264 1378 l 400 1331 l 472 1378 l 500 1293 l 408 1224 l 272 1271 l 200 1224 z "},"ẫ":{"ha":617,"x_min":33,"x_max":569,"o":"m 33 144 l 33 467 l 344 481 l 344 583 l 47 583 l 47 778 l 408 778 l 569 617 l 569 0 l 178 0 l 33 144 m 258 342 l 258 186 l 344 186 l 344 367 l 258 342 m 106 814 l 106 954 l 286 1017 l 467 954 l 467 814 l 286 881 l 106 814 m 150 1029 l 122 1114 l 214 1183 l 350 1136 l 422 1183 l 450 1099 l 358 1029 l 222 1076 l 150 1029 z "},"Ậ":{"ha":672,"x_min":10,"x_max":663,"o":"m 10 0 l 139 972 l 533 972 l 663 0 l 429 0 l 410 192 l 263 192 l 243 0 l 10 0 m 281 368 l 392 368 l 349 788 l 324 788 l 281 368 m 219 -247 l 219 -94 l 453 -94 l 453 -247 l 219 -247 m 156 1019 l 156 1164 l 336 1247 l 517 1164 l 517 1019 l 336 1103 l 156 1019 z "},"ậ":{"ha":617,"x_min":33,"x_max":569,"o":"m 33 144 l 33 467 l 344 481 l 344 583 l 47 583 l 47 778 l 408 778 l 569 617 l 569 0 l 178 0 l 33 144 m 258 342 l 258 186 l 344 186 l 344 367 l 258 342 m 169 -247 l 169 -94 l 403 -94 l 403 -247 l 169 -247 m 106 825 l 106 969 l 286 1053 l 467 969 l 467 825 l 286 908 l 106 825 z "},"Ắ":{"ha":672,"x_min":10,"x_max":663,"o":"m 10 0 l 139 972 l 533 972 l 663 0 l 429 0 l 410 192 l 263 192 l 243 0 l 10 0 m 281 368 l 392 368 l 349 788 l 324 788 l 281 368 m 325 1218 l 325 1301 l 500 1372 l 500 1260 l 325 1218 m 389 1206 l 558 1206 l 447 1025 l 225 1025 l 114 1206 l 283 1206 l 296 1133 l 376 1133 l 389 1206 z "},"ắ":{"ha":617,"x_min":33,"x_max":569,"o":"m 33 144 l 33 467 l 344 481 l 344 583 l 47 583 l 47 778 l 408 778 l 569 617 l 569 0 l 178 0 l 33 144 m 258 342 l 258 186 l 344 186 l 344 367 l 258 342 m 275 1024 l 275 1107 l 450 1178 l 450 1065 l 275 1024 m 339 1011 l 508 1011 l 397 831 l 175 831 l 64 1011 l 233 1011 l 246 939 l 326 939 l 339 1011 z "},"Ằ":{"ha":672,"x_min":10,"x_max":663,"o":"m 10 0 l 139 972 l 533 972 l 663 0 l 429 0 l 410 192 l 263 192 l 243 0 l 10 0 m 281 368 l 392 368 l 349 788 l 324 788 l 281 368 m 356 1215 l 181 1260 l 181 1372 l 356 1300 l 356 1215 m 389 1206 l 558 1206 l 447 1025 l 225 1025 l 114 1206 l 283 1206 l 296 1133 l 376 1133 l 389 1206 z "},"ằ":{"ha":617,"x_min":33,"x_max":569,"o":"m 33 144 l 33 467 l 344 481 l 344 583 l 47 583 l 47 778 l 408 778 l 569 617 l 569 0 l 178 0 l 33 144 m 258 342 l 258 186 l 344 186 l 344 367 l 258 342 m 306 1021 l 131 1065 l 131 1178 l 306 1106 l 306 1021 m 339 1011 l 508 1011 l 397 831 l 175 831 l 64 1011 l 233 1011 l 246 939 l 326 939 l 339 1011 z "},"Ẳ":{"ha":672,"x_min":10,"x_max":663,"o":"m 10 0 l 139 972 l 533 972 l 663 0 l 429 0 l 410 192 l 263 192 l 243 0 l 10 0 m 281 368 l 392 368 l 349 788 l 324 788 l 281 368 m 254 1288 l 254 1364 l 389 1364 l 447 1294 l 357 1199 l 289 1226 l 343 1288 l 254 1288 m 393 1206 l 558 1206 l 447 1025 l 225 1025 l 114 1206 l 279 1206 l 292 1133 l 381 1133 l 393 1206 z "},"ẳ":{"ha":617,"x_min":33,"x_max":569,"o":"m 33 144 l 33 467 l 344 481 l 344 583 l 47 583 l 47 778 l 408 778 l 569 617 l 569 0 l 178 0 l 33 144 m 258 342 l 258 186 l 344 186 l 344 367 l 258 342 m 204 1093 l 204 1169 l 339 1169 l 397 1100 l 307 1004 l 239 1032 l 293 1093 l 204 1093 m 343 1011 l 508 1011 l 397 831 l 175 831 l 64 1011 l 229 1011 l 242 939 l 331 939 l 343 1011 z "},"Ẵ":{"ha":672,"x_min":10,"x_max":663,"o":"m 10 0 l 139 972 l 533 972 l 663 0 l 429 0 l 410 192 l 263 192 l 243 0 l 10 0 m 281 368 l 392 368 l 349 788 l 324 788 l 281 368 m 200 1224 l 172 1308 l 264 1378 l 400 1331 l 472 1378 l 500 1293 l 408 1224 l 272 1271 l 200 1224 m 389 1206 l 558 1206 l 447 1025 l 225 1025 l 114 1206 l 283 1206 l 296 1133 l 376 1133 l 389 1206 z "},"ẵ":{"ha":617,"x_min":33,"x_max":569,"o":"m 33 144 l 33 467 l 344 481 l 344 583 l 47 583 l 47 778 l 408 778 l 569 617 l 569 0 l 178 0 l 33 144 m 258 342 l 258 186 l 344 186 l 344 367 l 258 342 m 150 1029 l 122 1114 l 214 1183 l 350 1136 l 422 1183 l 450 1099 l 358 1029 l 222 1076 l 150 1029 m 339 1011 l 508 1011 l 397 831 l 175 831 l 64 1011 l 233 1011 l 246 939 l 326 939 l 339 1011 z "},"Ặ":{"ha":672,"x_min":10,"x_max":663,"o":"m 10 0 l 139 972 l 533 972 l 663 0 l 429 0 l 410 192 l 263 192 l 243 0 l 10 0 m 281 368 l 392 368 l 349 788 l 324 788 l 281 368 m 219 -247 l 219 -94 l 453 -94 l 453 -247 l 219 -247 m 389 1217 l 558 1217 l 447 1025 l 225 1025 l 114 1217 l 283 1217 l 296 1133 l 376 1133 l 389 1217 z "},"ặ":{"ha":617,"x_min":33,"x_max":569,"o":"m 33 144 l 33 467 l 344 481 l 344 583 l 47 583 l 47 778 l 408 778 l 569 617 l 569 0 l 178 0 l 33 144 m 258 342 l 258 186 l 344 186 l 344 367 l 258 342 m 169 -247 l 169 -94 l 403 -94 l 403 -247 l 169 -247 m 339 1022 l 508 1022 l 397 831 l 175 831 l 64 1022 l 233 1022 l 246 939 l 326 939 l 339 1022 z "},"Ẹ":{"ha":514,"x_min":47,"x_max":489,"o":"m 47 0 l 47 972 l 475 972 l 475 778 l 281 778 l 281 589 l 456 589 l 456 403 l 281 403 l 281 194 l 489 194 l 489 0 l 47 0 m 144 -247 l 144 -94 l 378 -94 l 378 -247 l 144 -247 z "},"ẹ":{"ha":617,"x_min":44,"x_max":572,"o":"m 44 153 l 44 625 l 197 778 l 572 778 l 572 317 l 278 317 l 278 194 l 558 194 l 558 0 l 197 0 l 44 153 m 278 431 l 375 442 l 375 600 l 278 600 l 278 431 m 213 -247 l 213 -94 l 446 -94 l 446 -247 l 213 -247 z "},"Ẻ":{"ha":514,"x_min":47,"x_max":489,"o":"m 47 0 l 47 972 l 475 972 l 475 778 l 281 778 l 281 589 l 456 589 l 456 403 l 281 403 l 281 194 l 489 194 l 489 0 l 47 0 m 144 1117 l 144 1208 l 386 1208 l 386 1117 l 297 1014 l 164 1014 l 256 1117 l 144 1117 z "},"ẻ":{"ha":617,"x_min":44,"x_max":572,"o":"m 44 153 l 44 625 l 197 778 l 572 778 l 572 317 l 278 317 l 278 194 l 558 194 l 558 0 l 197 0 l 44 153 m 278 431 l 375 442 l 375 600 l 278 600 l 278 431 m 213 922 l 213 1014 l 454 1014 l 454 922 l 365 819 l 232 819 l 324 922 l 213 922 z "},"Ẽ":{"ha":514,"x_min":47,"x_max":489,"o":"m 47 0 l 47 972 l 475 972 l 475 778 l 281 778 l 281 589 l 456 589 l 456 403 l 281 403 l 281 194 l 489 194 l 489 0 l 47 0 m 81 1014 l 56 1146 l 189 1235 l 322 1168 l 442 1236 l 467 1104 l 333 1015 l 200 1082 l 81 1014 z "},"ẽ":{"ha":617,"x_min":44,"x_max":572,"o":"m 44 153 l 44 625 l 197 778 l 572 778 l 572 317 l 278 317 l 278 194 l 558 194 l 558 0 l 197 0 l 44 153 m 278 431 l 375 442 l 375 600 l 278 600 l 278 431 m 149 819 l 124 951 l 257 1040 l 390 974 l 510 1042 l 535 910 l 401 821 l 268 888 l 149 819 z "},"Ế":{"ha":514,"x_min":47,"x_max":489,"o":"m 47 0 l 47 972 l 475 972 l 475 778 l 281 778 l 281 589 l 456 589 l 456 403 l 281 403 l 281 194 l 489 194 l 489 0 l 47 0 m 275 1226 l 275 1310 l 450 1372 l 450 1260 l 275 1226 m 81 1008 l 81 1149 l 261 1215 l 442 1149 l 442 1008 l 261 1075 l 81 1008 z "},"ế":{"ha":617,"x_min":44,"x_max":572,"o":"m 44 153 l 44 625 l 197 778 l 572 778 l 572 317 l 278 317 l 278 194 l 558 194 l 558 0 l 197 0 l 44 153 m 278 431 l 375 442 l 375 600 l 278 600 l 278 431 m 343 1032 l 343 1115 l 518 1178 l 518 1065 l 343 1032 m 149 814 l 149 954 l 329 1021 l 510 954 l 510 814 l 329 881 l 149 814 z "},"Ề":{"ha":514,"x_min":47,"x_max":489,"o":"m 47 0 l 47 972 l 475 972 l 475 778 l 281 778 l 281 589 l 456 589 l 456 403 l 281 403 l 281 194 l 489 194 l 489 0 l 47 0 m 442 1215 l 267 1260 l 267 1372 l 442 1300 l 442 1215 m 81 1008 l 81 1149 l 261 1215 l 442 1149 l 442 1008 l 261 1075 l 81 1008 z "},"ề":{"ha":617,"x_min":44,"x_max":572,"o":"m 44 153 l 44 625 l 197 778 l 572 778 l 572 317 l 278 317 l 278 194 l 558 194 l 558 0 l 197 0 l 44 153 m 278 431 l 375 442 l 375 600 l 278 600 l 278 431 m 510 1021 l 335 1065 l 335 1178 l 510 1106 l 510 1021 m 149 814 l 149 954 l 329 1021 l 510 954 l 510 814 l 329 881 l 149 814 z "},"Ể":{"ha":514,"x_min":47,"x_max":497,"o":"m 47 0 l 47 972 l 475 972 l 475 778 l 281 778 l 281 589 l 456 589 l 456 403 l 281 403 l 281 194 l 489 194 l 489 0 l 47 0 m 81 1008 l 81 1149 l 261 1215 l 442 1149 l 442 1008 l 261 1075 l 81 1008 m 308 1288 l 308 1364 l 439 1364 l 497 1294 l 428 1188 l 347 1215 l 399 1288 l 308 1288 z "},"ể":{"ha":617,"x_min":44,"x_max":572,"o":"m 44 153 l 44 625 l 197 778 l 572 778 l 572 317 l 278 317 l 278 194 l 558 194 l 558 0 l 197 0 l 44 153 m 278 431 l 375 442 l 375 600 l 278 600 l 278 431 m 149 814 l 149 954 l 329 1021 l 510 954 l 510 814 l 329 881 l 149 814 m 376 1093 l 376 1169 l 507 1169 l 565 1100 l 496 993 l 415 1021 l 467 1093 l 376 1093 z "},"Ễ":{"ha":514,"x_min":47,"x_max":489,"o":"m 47 0 l 47 972 l 475 972 l 475 778 l 281 778 l 281 589 l 456 589 l 456 403 l 281 403 l 281 194 l 489 194 l 489 0 l 47 0 m 81 1008 l 81 1149 l 261 1211 l 442 1149 l 442 1008 l 261 1075 l 81 1008 m 125 1224 l 97 1308 l 189 1378 l 325 1331 l 397 1378 l 425 1293 l 333 1224 l 197 1271 l 125 1224 z "},"ễ":{"ha":617,"x_min":44,"x_max":572,"o":"m 44 153 l 44 625 l 197 778 l 572 778 l 572 317 l 278 317 l 278 194 l 558 194 l 558 0 l 197 0 l 44 153 m 278 431 l 375 442 l 375 600 l 278 600 l 278 431 m 149 814 l 149 954 l 329 1017 l 510 954 l 510 814 l 329 881 l 149 814 m 193 1029 l 165 1114 l 257 1183 l 393 1136 l 465 1183 l 493 1099 l 401 1029 l 265 1076 l 193 1029 z "},"Ệ":{"ha":514,"x_min":47,"x_max":489,"o":"m 47 0 l 47 972 l 475 972 l 475 778 l 281 778 l 281 589 l 456 589 l 456 403 l 281 403 l 281 194 l 489 194 l 489 0 l 47 0 m 144 -247 l 144 -94 l 378 -94 l 378 -247 l 144 -247 m 81 1019 l 81 1164 l 261 1247 l 442 1164 l 442 1019 l 261 1103 l 81 1019 z "},"ệ":{"ha":617,"x_min":44,"x_max":572,"o":"m 44 153 l 44 625 l 197 778 l 572 778 l 572 317 l 278 317 l 278 194 l 558 194 l 558 0 l 197 0 l 44 153 m 278 431 l 375 442 l 375 600 l 278 600 l 278 431 m 213 -247 l 213 -94 l 446 -94 l 446 -247 l 213 -247 m 149 825 l 149 969 l 329 1053 l 510 969 l 510 825 l 329 908 l 149 825 z "},"Ỉ":{"ha":431,"x_min":26,"x_max":404,"o":"m 26 -6 l 26 175 l 99 182 l 99 790 l 26 797 l 26 978 l 215 967 l 404 978 l 404 797 l 332 790 l 332 182 l 404 175 l 404 -6 l 215 6 l 26 -6 m 99 1117 l 99 1208 l 340 1208 l 340 1117 l 251 1014 l 118 1014 l 210 1117 l 99 1117 z "},"ỉ":{"ha":328,"x_min":47,"x_max":289,"o":"m 47 0 l 47 778 l 281 778 l 281 0 l 47 0 m 47 922 l 47 1014 l 289 1014 l 289 922 l 200 819 l 67 819 l 158 922 l 47 922 z "},"Ị":{"ha":431,"x_min":26,"x_max":404,"o":"m 26 -6 l 26 175 l 99 182 l 99 790 l 26 797 l 26 978 l 215 967 l 404 978 l 404 797 l 332 790 l 332 182 l 404 175 l 404 -6 l 215 6 l 26 -6 m 99 -247 l 99 -94 l 332 -94 l 332 -247 l 99 -247 z "},"ị":{"ha":328,"x_min":47,"x_max":281,"o":"m 47 0 l 47 778 l 281 778 l 281 0 l 47 0 m 47 850 l 47 1003 l 281 1003 l 281 850 l 47 850 m 47 -247 l 47 -94 l 281 -94 l 281 -247 l 47 -247 z "},"Ọ":{"ha":667,"x_min":43,"x_max":624,"o":"m 43 161 l 43 811 l 204 974 l 463 974 l 624 811 l 624 161 l 463 -1 l 204 -1 l 43 161 m 282 761 l 282 211 l 385 211 l 385 761 l 282 761 m 217 -247 l 217 -94 l 450 -94 l 450 -247 l 217 -247 z "},"ọ":{"ha":656,"x_min":44,"x_max":611,"o":"m 44 153 l 44 625 l 197 778 l 458 778 l 611 625 l 611 153 l 458 0 l 197 0 l 44 153 m 278 186 l 378 186 l 378 592 l 278 592 l 278 186 m 211 -247 l 211 -94 l 444 -94 l 444 -247 l 211 -247 z "},"Ỏ":{"ha":667,"x_min":43,"x_max":624,"o":"m 43 161 l 43 811 l 204 974 l 463 974 l 624 811 l 624 161 l 463 -1 l 204 -1 l 43 161 m 282 761 l 282 211 l 385 211 l 385 761 l 282 761 m 217 1117 l 217 1208 l 458 1208 l 458 1117 l 369 1014 l 236 1014 l 328 1117 l 217 1117 z "},"ỏ":{"ha":656,"x_min":44,"x_max":611,"o":"m 44 153 l 44 625 l 197 778 l 458 778 l 611 625 l 611 153 l 458 0 l 197 0 l 44 153 m 278 186 l 378 186 l 378 592 l 278 592 l 278 186 m 211 922 l 211 1014 l 453 1014 l 453 922 l 364 819 l 231 819 l 322 922 l 211 922 z "},"Ố":{"ha":667,"x_min":43,"x_max":624,"o":"m 43 161 l 43 811 l 204 974 l 463 974 l 624 811 l 624 161 l 463 -1 l 204 -1 l 43 161 m 282 761 l 282 211 l 385 211 l 385 761 l 282 761 m 347 1226 l 347 1310 l 522 1372 l 522 1260 l 347 1226 m 153 1008 l 153 1149 l 333 1215 l 514 1149 l 514 1008 l 333 1075 l 153 1008 z "},"ố":{"ha":656,"x_min":44,"x_max":611,"o":"m 44 153 l 44 625 l 197 778 l 458 778 l 611 625 l 611 153 l 458 0 l 197 0 l 44 153 m 278 186 l 378 186 l 378 592 l 278 592 l 278 186 m 342 1032 l 342 1115 l 517 1178 l 517 1065 l 342 1032 m 147 814 l 147 954 l 328 1021 l 508 954 l 508 814 l 328 881 l 147 814 z "},"Ồ":{"ha":667,"x_min":43,"x_max":624,"o":"m 43 161 l 43 811 l 204 974 l 463 974 l 624 811 l 624 161 l 463 -1 l 204 -1 l 43 161 m 282 761 l 282 211 l 385 211 l 385 761 l 282 761 m 514 1215 l 339 1260 l 339 1372 l 514 1300 l 514 1215 m 153 1008 l 153 1149 l 333 1215 l 514 1149 l 514 1008 l 333 1075 l 153 1008 z "},"ồ":{"ha":656,"x_min":44,"x_max":611,"o":"m 44 153 l 44 625 l 197 778 l 458 778 l 611 625 l 611 153 l 458 0 l 197 0 l 44 153 m 278 186 l 378 186 l 378 592 l 278 592 l 278 186 m 508 1021 l 333 1065 l 333 1178 l 508 1106 l 508 1021 m 147 814 l 147 954 l 328 1021 l 508 954 l 508 814 l 328 881 l 147 814 z "},"Ổ":{"ha":667,"x_min":43,"x_max":624,"o":"m 43 161 l 43 811 l 204 974 l 463 974 l 624 811 l 624 161 l 463 -1 l 204 -1 l 43 161 m 282 761 l 282 211 l 385 211 l 385 761 l 282 761 m 153 1008 l 153 1149 l 333 1215 l 514 1149 l 514 1008 l 333 1075 l 153 1008 m 381 1288 l 381 1364 l 511 1364 l 569 1294 l 500 1188 l 419 1215 l 471 1288 l 381 1288 z "},"ổ":{"ha":656,"x_min":44,"x_max":611,"o":"m 44 153 l 44 625 l 197 778 l 458 778 l 611 625 l 611 153 l 458 0 l 197 0 l 44 153 m 278 186 l 378 186 l 378 592 l 278 592 l 278 186 m 147 814 l 147 954 l 328 1021 l 508 954 l 508 814 l 328 881 l 147 814 m 375 1093 l 375 1169 l 506 1169 l 564 1100 l 494 993 l 414 1021 l 465 1093 l 375 1093 z "},"Ỗ":{"ha":667,"x_min":43,"x_max":624,"o":"m 43 161 l 43 811 l 204 974 l 463 974 l 624 811 l 624 161 l 463 -1 l 204 -1 l 43 161 m 282 761 l 282 211 l 385 211 l 385 761 l 282 761 m 153 1008 l 153 1149 l 333 1211 l 514 1149 l 514 1008 l 333 1075 l 153 1008 m 197 1224 l 169 1308 l 261 1378 l 397 1331 l 469 1378 l 497 1293 l 406 1224 l 269 1271 l 197 1224 z "},"ỗ":{"ha":656,"x_min":44,"x_max":611,"o":"m 44 153 l 44 625 l 197 778 l 458 778 l 611 625 l 611 153 l 458 0 l 197 0 l 44 153 m 278 186 l 378 186 l 378 592 l 278 592 l 278 186 m 147 814 l 147 954 l 328 1017 l 508 954 l 508 814 l 328 881 l 147 814 m 192 1029 l 164 1114 l 256 1183 l 392 1136 l 464 1183 l 492 1099 l 400 1029 l 264 1076 l 192 1029 z "},"Ộ":{"ha":667,"x_min":43,"x_max":624,"o":"m 43 161 l 43 811 l 204 974 l 463 974 l 624 811 l 624 161 l 463 -1 l 204 -1 l 43 161 m 282 761 l 282 211 l 385 211 l 385 761 l 282 761 m 217 -247 l 217 -94 l 450 -94 l 450 -247 l 217 -247 m 153 1019 l 153 1164 l 333 1247 l 514 1164 l 514 1019 l 333 1103 l 153 1019 z "},"ộ":{"ha":656,"x_min":44,"x_max":611,"o":"m 44 153 l 44 625 l 197 778 l 458 778 l 611 625 l 611 153 l 458 0 l 197 0 l 44 153 m 278 186 l 378 186 l 378 592 l 278 592 l 278 186 m 211 -247 l 211 -94 l 444 -94 l 444 -247 l 211 -247 m 147 825 l 147 969 l 328 1053 l 508 969 l 508 825 l 328 908 l 147 825 z "},"Ơ":{"ha":675,"x_min":43,"x_max":701,"o":"m 43 161 l 43 811 l 204 972 l 529 972 l 529 1083 l 701 1083 l 701 922 l 615 836 l 615 161 l 454 0 l 204 0 l 43 161 m 276 761 l 276 211 l 382 211 l 382 761 l 276 761 z "},"ơ":{"ha":679,"x_min":44,"x_max":703,"o":"m 44 153 l 44 625 l 197 778 l 542 778 l 542 889 l 703 889 l 703 728 l 611 633 l 611 153 l 458 0 l 197 0 l 44 153 m 278 186 l 378 186 l 378 592 l 278 592 l 278 186 z "},"Ớ":{"ha":675,"x_min":43,"x_max":701,"o":"m 43 161 l 43 811 l 204 972 l 529 972 l 529 1083 l 701 1083 l 701 922 l 615 836 l 615 161 l 454 0 l 204 0 l 43 161 m 276 761 l 276 211 l 382 211 l 382 761 l 276 761 m 171 1050 l 171 1167 l 507 1206 l 507 1050 l 171 1050 z "},"ớ":{"ha":679,"x_min":44,"x_max":703,"o":"m 44 153 l 44 625 l 197 778 l 542 778 l 542 889 l 703 889 l 703 728 l 611 633 l 611 153 l 458 0 l 197 0 l 44 153 m 278 186 l 378 186 l 378 592 l 278 592 l 278 186 m 175 856 l 175 972 l 511 1011 l 511 856 l 175 856 z "},"Ờ":{"ha":675,"x_min":43,"x_max":701,"o":"m 43 161 l 43 811 l 204 972 l 529 972 l 529 1083 l 701 1083 l 701 922 l 615 836 l 615 161 l 454 0 l 204 0 l 43 161 m 276 761 l 276 211 l 382 211 l 382 761 l 276 761 m 471 1050 l 135 1050 l 135 1206 l 471 1167 l 471 1050 z "},"ờ":{"ha":679,"x_min":44,"x_max":703,"o":"m 44 153 l 44 625 l 197 778 l 542 778 l 542 889 l 703 889 l 703 728 l 611 633 l 611 153 l 458 0 l 197 0 l 44 153 m 278 186 l 378 186 l 378 592 l 278 592 l 278 186 m 475 856 l 139 856 l 139 1011 l 475 972 l 475 856 z "},"Ở":{"ha":675,"x_min":43,"x_max":701,"o":"m 43 161 l 43 811 l 204 972 l 529 972 l 529 1083 l 701 1083 l 701 922 l 615 836 l 615 161 l 454 0 l 204 0 l 43 161 m 276 761 l 276 211 l 382 211 l 382 761 l 276 761 m 204 1117 l 204 1208 l 446 1208 l 446 1117 l 357 1014 l 224 1014 l 315 1117 l 204 1117 z "},"ở":{"ha":679,"x_min":44,"x_max":703,"o":"m 44 153 l 44 625 l 197 778 l 542 778 l 542 889 l 703 889 l 703 728 l 611 633 l 611 153 l 458 0 l 197 0 l 44 153 m 278 186 l 378 186 l 378 592 l 278 592 l 278 186 m 208 922 l 208 1014 l 450 1014 l 450 922 l 361 819 l 228 819 l 319 922 l 208 922 z "},"Ỡ":{"ha":675,"x_min":43,"x_max":701,"o":"m 43 161 l 43 811 l 204 972 l 529 972 l 529 1083 l 701 1083 l 701 922 l 615 836 l 615 161 l 454 0 l 204 0 l 43 161 m 276 761 l 276 211 l 382 211 l 382 761 l 276 761 m 140 1014 l 115 1146 l 249 1235 l 382 1168 l 501 1236 l 526 1104 l 393 1015 l 260 1082 l 140 1014 z "},"ỡ":{"ha":679,"x_min":44,"x_max":703,"o":"m 44 153 l 44 625 l 197 778 l 542 778 l 542 889 l 703 889 l 703 728 l 611 633 l 611 153 l 458 0 l 197 0 l 44 153 m 278 186 l 378 186 l 378 592 l 278 592 l 278 186 m 144 819 l 119 951 l 253 1040 l 386 974 l 506 1042 l 531 910 l 397 821 l 264 888 l 144 819 z "},"Ợ":{"ha":675,"x_min":43,"x_max":701,"o":"m 43 161 l 43 811 l 204 972 l 529 972 l 529 1083 l 701 1083 l 701 922 l 615 836 l 615 161 l 454 0 l 204 0 l 43 161 m 276 761 l 276 211 l 382 211 l 382 761 l 276 761 m 213 -247 l 213 -94 l 446 -94 l 446 -247 l 213 -247 z "},"ợ":{"ha":679,"x_min":44,"x_max":703,"o":"m 44 153 l 44 625 l 197 778 l 542 778 l 542 889 l 703 889 l 703 728 l 611 633 l 611 153 l 458 0 l 197 0 l 44 153 m 278 186 l 378 186 l 378 592 l 278 592 l 278 186 m 211 -247 l 211 -94 l 444 -94 l 444 -247 l 211 -247 z "},"Ụ":{"ha":667,"x_min":47,"x_max":619,"o":"m 47 161 l 47 972 l 281 972 l 281 211 l 386 211 l 386 972 l 619 972 l 619 161 l 458 0 l 208 0 l 47 161 m 217 -247 l 217 -94 l 450 -94 l 450 -247 l 217 -247 z "},"ụ":{"ha":661,"x_min":47,"x_max":614,"o":"m 614 778 l 614 0 l 208 0 l 47 161 l 47 778 l 281 778 l 281 203 l 381 203 l 381 778 l 614 778 m 214 -247 l 214 -94 l 447 -94 l 447 -247 l 214 -247 z "},"Ủ":{"ha":667,"x_min":47,"x_max":619,"o":"m 47 161 l 47 972 l 281 972 l 281 211 l 386 211 l 386 972 l 619 972 l 619 161 l 458 0 l 208 0 l 47 161 m 217 1117 l 217 1208 l 458 1208 l 458 1117 l 369 1014 l 236 1014 l 328 1117 l 217 1117 z "},"ủ":{"ha":661,"x_min":47,"x_max":614,"o":"m 614 778 l 614 0 l 208 0 l 47 161 l 47 778 l 281 778 l 281 203 l 381 203 l 381 778 l 614 778 m 214 922 l 214 1014 l 456 1014 l 456 922 l 367 819 l 233 819 l 325 922 l 214 922 z "},"Ư":{"ha":667,"x_min":47,"x_max":710,"o":"m 47 161 l 47 972 l 281 972 l 281 211 l 386 211 l 386 972 l 538 972 l 538 1083 l 710 1083 l 710 922 l 619 832 l 619 161 l 458 0 l 208 0 l 47 161 z "},"ư":{"ha":675,"x_min":47,"x_max":708,"o":"m 47 161 l 47 778 l 281 778 l 281 203 l 381 203 l 381 778 l 547 778 l 547 889 l 708 889 l 708 728 l 614 631 l 614 0 l 208 0 l 47 161 z "},"Ứ":{"ha":667,"x_min":47,"x_max":710,"o":"m 47 161 l 47 972 l 281 972 l 281 211 l 386 211 l 386 972 l 538 972 l 538 1083 l 710 1083 l 710 922 l 619 832 l 619 161 l 458 0 l 208 0 l 47 161 m 183 1050 l 183 1167 l 519 1206 l 519 1050 l 183 1050 z "},"ứ":{"ha":675,"x_min":47,"x_max":708,"o":"m 47 161 l 47 778 l 281 778 l 281 203 l 381 203 l 381 778 l 547 778 l 547 889 l 708 889 l 708 728 l 614 631 l 614 0 l 208 0 l 47 161 m 188 856 l 188 972 l 524 1011 l 524 856 l 188 856 z "},"Ừ":{"ha":667,"x_min":47,"x_max":710,"o":"m 47 161 l 47 972 l 281 972 l 281 211 l 386 211 l 386 972 l 538 972 l 538 1083 l 710 1083 l 710 922 l 619 832 l 619 161 l 458 0 l 208 0 l 47 161 m 483 1050 l 147 1050 l 147 1206 l 483 1167 l 483 1050 z "},"ừ":{"ha":675,"x_min":47,"x_max":708,"o":"m 47 161 l 47 778 l 281 778 l 281 203 l 381 203 l 381 778 l 547 778 l 547 889 l 708 889 l 708 728 l 614 631 l 614 0 l 208 0 l 47 161 m 488 856 l 151 856 l 151 1011 l 488 972 l 488 856 z "},"Ử":{"ha":667,"x_min":47,"x_max":710,"o":"m 47 161 l 47 972 l 281 972 l 281 211 l 386 211 l 386 972 l 538 972 l 538 1083 l 710 1083 l 710 922 l 619 832 l 619 161 l 458 0 l 208 0 l 47 161 m 217 1117 l 217 1208 l 458 1208 l 458 1117 l 369 1014 l 236 1014 l 328 1117 l 217 1117 z "},"ử":{"ha":675,"x_min":47,"x_max":708,"o":"m 47 161 l 47 778 l 281 778 l 281 203 l 381 203 l 381 778 l 547 778 l 547 889 l 708 889 l 708 728 l 614 631 l 614 0 l 208 0 l 47 161 m 221 922 l 221 1014 l 463 1014 l 463 922 l 374 819 l 240 819 l 332 922 l 221 922 z "},"Ữ":{"ha":667,"x_min":47,"x_max":710,"o":"m 47 161 l 47 972 l 281 972 l 281 211 l 386 211 l 386 972 l 538 972 l 538 1083 l 710 1083 l 710 922 l 619 832 l 619 161 l 458 0 l 208 0 l 47 161 m 153 1014 l 128 1146 l 261 1235 l 394 1168 l 514 1236 l 539 1104 l 406 1015 l 272 1082 l 153 1014 z "},"ữ":{"ha":675,"x_min":47,"x_max":708,"o":"m 47 161 l 47 778 l 281 778 l 281 203 l 381 203 l 381 778 l 547 778 l 547 889 l 708 889 l 708 728 l 614 631 l 614 0 l 208 0 l 47 161 m 157 819 l 132 951 l 265 1040 l 399 974 l 518 1042 l 543 910 l 410 821 l 276 888 l 157 819 z "},"Ự":{"ha":667,"x_min":47,"x_max":710,"o":"m 47 161 l 47 972 l 281 972 l 281 211 l 386 211 l 386 972 l 538 972 l 538 1083 l 710 1083 l 710 922 l 619 832 l 619 161 l 458 0 l 208 0 l 47 161 m 217 -247 l 217 -94 l 450 -94 l 450 -247 l 217 -247 z "},"ự":{"ha":675,"x_min":47,"x_max":708,"o":"m 47 161 l 47 778 l 281 778 l 281 203 l 381 203 l 381 778 l 547 778 l 547 889 l 708 889 l 708 728 l 614 631 l 614 0 l 208 0 l 47 161 m 221 -247 l 221 -94 l 454 -94 l 454 -247 l 221 -247 z "},"Ỵ":{"ha":667,"x_min":13,"x_max":654,"o":"m 217 0 l 217 292 l 131 292 l 13 972 l 261 972 l 313 476 l 354 476 l 406 972 l 654 972 l 536 292 l 450 292 l 450 0 l 217 0 m 217 -247 l 217 -94 l 450 -94 l 450 -247 l 217 -247 z "},"ỵ":{"ha":644,"x_min":15,"x_max":629,"o":"m 50 -154 l 50 24 l 310 24 l 319 103 l 118 103 l 15 778 l 249 778 l 297 281 l 342 281 l 397 778 l 629 778 l 479 -154 l 50 -154 m 167 -347 l 167 -211 l 400 -211 l 400 -347 l 167 -347 z "},"Ỷ":{"ha":667,"x_min":13,"x_max":654,"o":"m 217 0 l 217 292 l 131 292 l 13 972 l 261 972 l 313 476 l 354 476 l 406 972 l 654 972 l 536 292 l 450 292 l 450 0 l 217 0 m 217 1117 l 217 1208 l 458 1208 l 458 1117 l 369 1014 l 236 1014 l 328 1117 l 217 1117 z "},"ỷ":{"ha":644,"x_min":15,"x_max":629,"o":"m 50 -194 l 50 0 l 308 0 l 322 94 l 118 94 l 15 778 l 249 778 l 297 281 l 343 281 l 397 778 l 629 778 l 481 -194 l 50 -194 m 206 922 l 206 1014 l 447 1014 l 447 922 l 358 819 l 225 819 l 317 922 l 206 922 z "},"Ǆ":{"ha":1233,"x_min":47,"x_max":1200,"o":"m 281 203 l 386 203 l 386 769 l 281 769 l 281 203 m 47 0 l 47 972 l 458 972 l 619 811 l 619 161 l 458 0 l 47 0 m 696 0 l 696 172 l 939 778 l 700 778 l 700 972 l 1196 972 l 1196 800 l 953 194 l 1200 194 l 1200 0 l 696 0 m 1129 1247 l 1129 1103 l 949 1019 l 768 1103 l 768 1247 l 949 1164 l 1129 1247 z "},"ǅ":{"ha":1164,"x_min":47,"x_max":1136,"o":"m 281 203 l 386 203 l 386 769 l 281 769 l 281 203 m 47 0 l 47 972 l 458 972 l 619 811 l 619 161 l 458 0 l 47 0 m 690 0 l 690 167 l 881 583 l 694 583 l 694 778 l 1132 778 l 1132 611 l 942 194 l 1136 194 l 1136 0 l 690 0 m 1094 1053 l 1094 908 l 914 825 l 733 908 l 733 1053 l 914 969 l 1094 1053 z "},"ǆ":{"ha":1160,"x_min":44,"x_max":1132,"o":"m 611 972 l 611 0 l 206 0 l 44 161 l 44 617 l 206 778 l 378 778 l 378 972 l 611 972 m 278 194 l 378 194 l 378 583 l 278 583 l 278 194 m 686 0 l 686 167 l 876 583 l 690 583 l 690 778 l 1128 778 l 1128 611 l 938 194 l 1132 194 l 1132 0 l 686 0 m 1090 1053 l 1090 908 l 910 825 l 729 908 l 729 1053 l 910 969 l 1090 1053 z "},"Ǉ":{"ha":1222,"x_min":47,"x_max":1179,"o":"m 47 0 l 47 972 l 281 972 l 281 194 l 364 194 l 364 389 l 569 389 l 569 0 l 47 0 m 624 161 l 624 458 l 857 458 l 857 203 l 946 203 l 946 769 l 663 769 l 663 972 l 1179 972 l 1179 161 l 1018 0 l 785 0 l 624 161 z "},"ǈ":{"ha":925,"x_min":47,"x_max":878,"o":"m 47 0 l 47 972 l 281 972 l 281 194 l 364 194 l 364 389 l 569 389 l 569 0 l 47 0 m 644 -194 l 644 778 l 878 778 l 878 -194 l 644 -194 m 644 850 l 644 1003 l 878 1003 l 878 850 l 644 850 z "},"ǉ":{"ha":656,"x_min":47,"x_max":608,"o":"m 47 0 l 47 972 l 281 972 l 281 0 l 47 0 m 375 -194 l 375 778 l 608 778 l 608 -194 l 375 -194 m 375 850 l 375 1003 l 608 1003 l 608 850 l 375 850 z "},"Ǌ":{"ha":1303,"x_min":47,"x_max":1260,"o":"m 47 0 l 47 972 l 232 972 l 417 446 l 417 972 l 631 972 l 631 0 l 446 0 l 261 526 l 261 0 l 47 0 m 704 161 l 704 458 l 938 458 l 938 203 l 1026 203 l 1026 769 l 743 769 l 743 972 l 1260 972 l 1260 161 l 1099 0 l 865 0 l 704 161 z "},"ǋ":{"ha":1006,"x_min":47,"x_max":958,"o":"m 47 0 l 47 972 l 232 972 l 417 446 l 417 972 l 631 972 l 631 0 l 446 0 l 261 526 l 261 0 l 47 0 m 725 -194 l 725 778 l 958 778 l 958 -194 l 725 -194 m 725 850 l 725 1003 l 958 1003 l 958 850 l 725 850 z "},"ǌ":{"ha":989,"x_min":47,"x_max":942,"o":"m 47 0 l 47 778 l 453 778 l 614 617 l 614 0 l 381 0 l 381 575 l 281 575 l 281 0 l 47 0 m 708 -194 l 708 778 l 942 778 l 942 -194 l 708 -194 m 708 850 l 708 1003 l 942 1003 l 942 850 l 708 850 z "}," ":{"ha":206,"x_min":0,"x_max":0,"o":""}," ":{"ha":667,"x_min":0,"x_max":0,"o":""}," ":{"ha":317,"x_min":0,"x_max":0,"o":""}," ":{"ha":139,"x_min":0,"x_max":0,"o":""}," ":{"ha":83,"x_min":0,"x_max":0,"o":""},".":{"ha":317,"x_min":50,"x_max":267,"o":"m 50 0 l 50 222 l 267 222 l 267 0 l 50 0 z "},",":{"ha":317,"x_min":21,"x_max":285,"o":"m 68 0 l 68 222 l 285 222 l 285 0 l 164 -194 l 21 -194 l 143 0 l 68 0 z "},":":{"ha":317,"x_min":50,"x_max":267,"o":"m 50 0 l 50 222 l 267 222 l 267 0 l 50 0 m 50 500 l 50 722 l 267 722 l 267 500 l 50 500 z "},";":{"ha":317,"x_min":3,"x_max":267,"o":"m 50 0 l 50 222 l 267 222 l 267 0 l 146 -194 l 3 -194 l 125 0 l 50 0 m 32 500 l 32 722 l 249 722 l 249 500 l 32 500 z "},"…":{"ha":950,"x_min":50,"x_max":900,"o":"m 50 0 l 50 222 l 267 222 l 267 0 l 50 0 m 367 0 l 367 222 l 583 222 l 583 0 l 367 0 m 683 0 l 683 222 l 900 222 l 900 0 l 683 0 z "},"!":{"ha":344,"x_min":40,"x_max":304,"o":"m 64 0 l 64 222 l 281 222 l 281 0 l 64 0 m 82 319 l 40 972 l 304 972 l 263 319 l 82 319 z "},"¡":{"ha":344,"x_min":40,"x_max":304,"o":"m 281 778 l 281 556 l 64 556 l 64 778 l 281 778 m 263 458 l 304 -194 l 40 -194 l 82 458 l 263 458 z "},"?":{"ha":528,"x_min":29,"x_max":499,"o":"m 86 0 l 86 222 l 303 222 l 303 0 l 86 0 m 303 303 l 86 303 l 86 529 l 282 617 l 282 769 l 29 769 l 29 972 l 343 972 l 499 817 l 499 490 l 303 392 l 303 303 z "},"¿":{"ha":528,"x_min":29,"x_max":499,"o":"m 442 778 l 442 556 l 225 556 l 225 778 l 442 778 m 225 475 l 442 475 l 442 249 l 246 161 l 246 8 l 499 8 l 499 -194 l 185 -194 l 29 -39 l 29 288 l 225 386 l 225 475 z "},"'":{"ha":283,"x_min":39,"x_max":244,"o":"m 67 639 l 39 972 l 244 972 l 217 639 l 67 639 z "},"\"":{"ha":542,"x_min":39,"x_max":503,"o":"m 67 639 l 39 972 l 244 972 l 217 639 l 67 639 m 325 639 l 297 972 l 503 972 l 475 639 l 325 639 z "},"‘":{"ha":317,"x_min":32,"x_max":296,"o":"m 249 778 l 249 556 l 32 556 l 32 778 l 153 972 l 296 972 l 174 778 l 249 778 z "},"’":{"ha":317,"x_min":21,"x_max":285,"o":"m 68 750 l 68 972 l 285 972 l 285 750 l 164 556 l 21 556 l 143 750 l 68 750 z "},"‚":{"ha":317,"x_min":21,"x_max":285,"o":"m 68 0 l 68 222 l 285 222 l 285 0 l 164 -194 l 21 -194 l 143 0 l 68 0 z "},"“":{"ha":611,"x_min":32,"x_max":590,"o":"m 543 778 l 543 556 l 326 556 l 326 778 l 447 972 l 590 972 l 468 778 l 543 778 m 249 778 l 249 556 l 32 556 l 32 778 l 153 972 l 296 972 l 174 778 l 249 778 z "},"”":{"ha":611,"x_min":21,"x_max":579,"o":"m 68 750 l 68 972 l 285 972 l 285 750 l 164 556 l 21 556 l 143 750 l 68 750 m 363 750 l 363 972 l 579 972 l 579 750 l 458 556 l 315 556 l 438 750 l 363 750 z "},"„":{"ha":611,"x_min":21,"x_max":579,"o":"m 68 0 l 68 222 l 285 222 l 285 0 l 164 -194 l 21 -194 l 143 0 l 68 0 m 363 0 l 363 222 l 579 222 l 579 0 l 458 -194 l 315 -194 l 438 0 l 363 0 z "},"‹":{"ha":431,"x_min":22,"x_max":408,"o":"m 22 376 l 22 401 l 175 778 l 408 778 l 264 389 l 408 0 l 175 0 l 22 376 z "},"›":{"ha":431,"x_min":22,"x_max":408,"o":"m 408 401 l 408 376 l 256 0 l 22 0 l 167 389 l 22 778 l 256 778 l 408 401 z "},"«":{"ha":739,"x_min":22,"x_max":717,"o":"m 22 376 l 22 401 l 175 778 l 408 778 l 264 389 l 408 0 l 175 0 l 22 376 m 331 376 l 331 401 l 483 778 l 717 778 l 572 389 l 717 0 l 483 0 l 331 376 z "},"»":{"ha":739,"x_min":22,"x_max":717,"o":"m 717 401 l 717 376 l 564 0 l 331 0 l 475 389 l 331 778 l 564 778 l 717 401 m 408 401 l 408 376 l 256 0 l 22 0 l 167 389 l 22 778 l 256 778 l 408 401 z "},"(":{"ha":394,"x_min":47,"x_max":372,"o":"m 47 -25 l 47 872 l 217 1042 l 372 1042 l 372 851 l 281 851 l 281 -4 l 372 -4 l 372 -194 l 217 -194 l 47 -25 z "},")":{"ha":394,"x_min":22,"x_max":347,"o":"m 347 872 l 347 -25 l 178 -194 l 22 -194 l 22 -4 l 114 -4 l 114 851 l 22 851 l 22 1042 l 178 1042 l 347 872 z "},"[":{"ha":394,"x_min":47,"x_max":372,"o":"m 47 -194 l 47 1042 l 372 1042 l 372 860 l 272 860 l 272 -12 l 372 -12 l 372 -194 l 47 -194 z "},"]":{"ha":394,"x_min":22,"x_max":347,"o":"m 347 1042 l 347 -194 l 22 -194 l 22 -12 l 122 -12 l 122 860 l 22 860 l 22 1042 l 347 1042 z "},"{":{"ha":453,"x_min":28,"x_max":431,"o":"m 106 -25 l 106 331 l 28 331 l 28 517 l 106 517 l 106 872 l 275 1042 l 431 1042 l 431 851 l 339 851 l 339 524 l 239 424 l 339 324 l 339 -4 l 431 -4 l 431 -194 l 275 -194 l 106 -25 z "},"}":{"ha":453,"x_min":22,"x_max":425,"o":"m 347 872 l 347 517 l 425 517 l 425 331 l 347 331 l 347 -25 l 178 -194 l 22 -194 l 22 -4 l 114 -4 l 114 324 l 214 424 l 114 524 l 114 851 l 22 851 l 22 1042 l 178 1042 l 347 872 z "},"/":{"ha":489,"x_min":6,"x_max":483,"o":"m 6 0 l 257 972 l 483 972 l 232 0 l 6 0 z "},"\\":{"ha":489,"x_min":6,"x_max":483,"o":"m 483 0 l 257 0 l 6 972 l 232 972 l 483 0 z "},"¦":{"ha":383,"x_min":83,"x_max":300,"o":"m 83 -278 l 83 347 l 300 347 l 300 -278 l 83 -278 m 83 486 l 83 1111 l 300 1111 l 300 486 l 83 486 z "},"|":{"ha":383,"x_min":83,"x_max":300,"o":"m 83 -194 l 83 1056 l 300 1056 l 300 -194 l 83 -194 z "},"_":{"ha":556,"x_min":56,"x_max":500,"o":"m 56 -211 l 56 0 l 500 0 l 500 -211 l 56 -211 z "},"-":{"ha":394,"x_min":56,"x_max":339,"o":"m 56 333 l 56 556 l 339 556 l 339 333 l 56 333 z "},"–":{"ha":556,"x_min":56,"x_max":500,"o":"m 56 343 l 56 546 l 500 546 l 500 343 l 56 343 z "},"—":{"ha":694,"x_min":56,"x_max":639,"o":"m 56 343 l 56 546 l 639 546 l 639 343 l 56 343 z "},"―":{"ha":625,"x_min":-14,"x_max":639,"o":"m -14 343 l -14 546 l 639 546 l 639 343 l -14 343 z "},"‒":{"ha":667,"x_min":56,"x_max":611,"o":"m 56 343 l 56 546 l 611 546 l 611 343 l 56 343 z "},"·":{"ha":328,"x_min":56,"x_max":272,"o":"m 56 339 l 56 561 l 272 561 l 272 339 l 56 339 z "},"~":{"ha":550,"x_min":22,"x_max":528,"o":"m 50 294 l 22 504 l 153 628 l 381 511 l 500 617 l 528 407 l 397 283 l 169 400 l 50 294 z "},"•":{"ha":561,"x_min":44,"x_max":517,"o":"m 44 297 l 44 536 l 181 672 l 381 672 l 517 536 l 517 297 l 381 161 l 181 161 l 44 297 z "},"ª":{"ha":561,"x_min":33,"x_max":514,"o":"m 33 475 l 33 711 l 317 725 l 317 814 l 61 814 l 61 972 l 386 972 l 514 844 l 514 347 l 161 347 l 33 475 m 231 603 l 231 497 l 317 497 l 317 631 l 231 603 z "},"º":{"ha":589,"x_min":44,"x_max":544,"o":"m 44 483 l 44 836 l 181 972 l 408 972 l 544 836 l 544 483 l 408 347 l 181 347 l 44 483 m 242 514 l 347 514 l 347 806 l 242 806 l 242 514 z "},"°":{"ha":400,"x_min":19,"x_max":381,"o":"m 19 690 l 19 865 l 131 972 l 269 972 l 381 865 l 381 690 l 269 583 l 131 583 l 19 690 m 150 706 l 250 706 l 250 850 l 150 850 l 150 706 z "},"`":{"ha":3406,"x_min":3135,"x_max":3471,"o":"m 3471 856 l 3135 856 l 3135 1011 l 3471 972 l 3471 856 z "},"^":{"ha":606,"x_min":18,"x_max":588,"o":"m 18 486 l 185 972 l 421 972 l 588 486 l 376 486 l 303 803 l 229 486 l 18 486 z "},"*":{"ha":617,"x_min":14,"x_max":603,"o":"m 390 378 l 226 378 l 226 528 l 101 447 l 14 583 l 158 678 l 14 772 l 101 908 l 226 828 l 226 972 l 390 972 l 390 828 l 515 908 l 603 772 l 458 678 l 603 583 l 515 447 l 390 528 l 390 378 z "},"†":{"ha":683,"x_min":47,"x_max":636,"o":"m 47 536 l 47 753 l 233 753 l 233 972 l 450 972 l 450 753 l 636 753 l 636 536 l 450 536 l 450 0 l 233 0 l 233 536 l 47 536 z "},"‡":{"ha":683,"x_min":47,"x_max":636,"o":"m 47 536 l 47 753 l 233 753 l 233 972 l 450 972 l 450 753 l 636 753 l 636 536 l 450 536 l 450 242 l 636 242 l 636 25 l 450 25 l 450 -194 l 233 -194 l 233 25 l 47 25 l 47 242 l 233 242 l 233 536 l 47 536 z "},"#":{"ha":800,"x_min":47,"x_max":753,"o":"m 147 0 l 147 972 l 343 972 l 343 0 l 147 0 m 451 0 l 451 972 l 647 972 l 647 0 l 451 0 m 753 167 l 47 167 l 47 350 l 753 350 l 753 167 m 753 622 l 47 622 l 47 806 l 753 806 l 753 622 z "},"§":{"ha":681,"x_min":64,"x_max":617,"o":"m 79 -136 l 79 42 l 392 42 l 392 175 l 178 175 l 64 289 l 64 814 l 222 972 l 594 972 l 594 794 l 289 794 l 289 661 l 503 661 l 617 547 l 617 19 l 461 -136 l 79 -136 m 289 319 l 392 319 l 392 517 l 289 517 l 289 319 z "},"¶":{"ha":785,"x_min":29,"x_max":738,"o":"m 738 -194 l 554 -194 l 554 786 l 479 786 l 479 -194 l 296 -194 l 296 208 l 174 208 l 29 353 l 29 819 l 182 972 l 738 972 l 738 -194 z "},"&":{"ha":775,"x_min":44,"x_max":764,"o":"m 538 0 l 139 849 l 263 972 l 625 972 l 625 788 l 396 788 l 764 0 l 538 0 m 383 467 l 278 467 l 278 186 l 342 186 l 564 678 l 764 678 l 417 0 l 181 0 l 44 136 l 44 514 l 158 628 l 383 628 l 383 467 z "},"@":{"ha":886,"x_min":47,"x_max":839,"o":"m 47 -42 l 47 819 l 200 972 l 686 972 l 839 819 l 839 214 l 711 86 l 467 86 l 339 214 l 339 639 l 633 667 l 633 796 l 253 796 l 253 -18 l 839 -18 l 839 -194 l 200 -194 l 47 -42 m 544 253 l 633 253 l 633 572 l 544 544 l 544 253 z "},"©":{"ha":1000,"x_min":57,"x_max":943,"o":"m 301 253 l 301 636 l 460 794 l 699 794 l 699 583 l 526 583 l 526 306 l 699 306 l 699 94 l 460 94 l 301 253 m 57 31 l 57 858 l 226 1028 l 774 1028 l 943 858 l 943 31 l 774 -139 l 226 -139 l 57 31 m 232 875 l 232 14 l 768 14 l 768 875 l 232 875 z "},"®":{"ha":556,"x_min":28,"x_max":528,"o":"m 278 514 q 149 544 206 514 q 60 628 92 575 q 28 750 28 682 q 60 872 28 818 q 149 956 92 925 q 278 986 206 986 q 408 956 351 986 q 496 872 464 925 q 528 750 528 818 q 496 628 528 682 q 408 544 464 575 q 278 514 351 514 m 93 751 q 144 622 93 671 q 278 574 194 574 q 413 622 363 574 q 463 751 463 671 q 413 878 463 831 q 278 926 363 926 q 144 878 194 926 q 93 751 93 831 m 179 631 l 179 875 l 286 875 q 365 851 336 875 q 393 788 393 828 q 381 740 393 758 q 346 710 368 721 l 404 631 l 321 631 l 286 700 l 250 700 l 250 631 l 179 631 m 250 751 l 285 751 q 324 785 324 751 q 285 818 324 818 l 250 818 l 250 751 z "},"™":{"ha":694,"x_min":28,"x_max":639,"o":"m 103 583 l 189 583 l 189 894 l 264 894 l 264 972 l 28 972 l 28 894 l 103 894 l 103 583 m 306 972 l 306 583 l 386 583 l 386 857 l 472 722 l 558 857 l 558 583 l 639 583 l 639 972 l 565 972 l 472 826 l 379 972 l 306 972 z "},"⁰":{"ha":569,"x_min":47,"x_max":522,"o":"m 47 528 l 47 861 l 175 972 l 394 972 l 522 861 l 522 528 l 394 417 l 175 417 l 47 528 m 235 839 l 235 550 l 335 550 l 335 839 l 235 839 z "},"¹":{"ha":406,"x_min":50,"x_max":379,"o":"m 50 415 l 50 531 l 121 538 l 121 821 l 50 811 l 50 931 l 315 972 l 315 538 l 379 531 l 379 415 l 217 422 l 50 415 z "},"²":{"ha":517,"x_min":47,"x_max":469,"o":"m 469 551 l 469 417 l 47 417 l 47 710 l 272 760 l 272 838 l 50 838 l 50 972 l 353 972 l 469 856 l 469 664 l 244 611 l 244 551 l 469 551 z "},"³":{"ha":497,"x_min":28,"x_max":464,"o":"m 369 417 l 28 417 l 28 550 l 254 550 l 254 640 l 88 640 l 88 760 l 235 760 l 235 839 l 38 839 l 38 972 l 349 972 l 444 883 l 444 751 l 376 707 l 464 650 l 464 506 l 369 417 z "},"⁴":{"ha":539,"x_min":38,"x_max":492,"o":"m 38 565 l 63 972 l 247 972 l 225 699 l 307 699 l 307 972 l 492 972 l 492 417 l 307 417 l 307 565 l 38 565 z "},"⁵":{"ha":508,"x_min":47,"x_max":461,"o":"m 461 839 l 240 839 l 240 771 l 461 744 l 461 514 l 340 417 l 47 417 l 47 550 l 268 550 l 268 638 l 47 663 l 47 972 l 461 972 l 461 839 z "},"⁶":{"ha":556,"x_min":43,"x_max":513,"o":"m 158 417 l 43 508 l 43 881 l 158 972 l 483 972 l 483 839 l 236 839 l 236 771 l 442 771 l 513 713 l 513 508 l 399 417 l 158 417 m 236 550 l 319 550 l 319 665 l 236 665 l 236 550 z "},"⁷":{"ha":525,"x_min":39,"x_max":486,"o":"m 60 417 l 292 774 l 292 847 l 204 847 l 204 744 l 39 744 l 39 972 l 486 972 l 486 753 l 292 417 l 60 417 z "},"⁸":{"ha":543,"x_min":33,"x_max":510,"o":"m 231 754 l 313 754 l 313 850 l 231 850 l 231 754 m 214 539 l 329 539 l 329 649 l 214 649 l 214 539 m 128 417 l 33 506 l 33 651 l 110 708 l 50 751 l 50 883 l 146 972 l 397 972 l 493 883 l 493 751 l 433 708 l 510 651 l 510 506 l 415 417 l 128 417 z "},"⁹":{"ha":556,"x_min":43,"x_max":513,"o":"m 399 972 l 513 881 l 513 508 l 399 417 l 72 417 l 72 550 l 319 550 l 319 618 l 115 618 l 43 676 l 43 881 l 158 972 l 399 972 m 319 839 l 236 839 l 236 724 l 319 724 l 319 839 z "},"₀":{"ha":569,"x_min":47,"x_max":522,"o":"m 47 -28 l 47 306 l 175 417 l 394 417 l 522 306 l 522 -28 l 394 -139 l 175 -139 l 47 -28 m 235 283 l 235 -6 l 335 -6 l 335 283 l 235 283 z "},"₁":{"ha":406,"x_min":50,"x_max":379,"o":"m 50 -139 l 50 -24 l 121 -17 l 121 267 l 50 257 l 50 376 l 315 418 l 315 -17 l 379 -24 l 379 -139 l 217 -132 l 50 -139 z "},"₂":{"ha":517,"x_min":47,"x_max":469,"o":"m 469 -4 l 469 -139 l 47 -139 l 47 154 l 272 204 l 272 282 l 50 282 l 50 417 l 353 417 l 469 300 l 469 108 l 244 56 l 244 -4 l 469 -4 z "},"₃":{"ha":497,"x_min":28,"x_max":464,"o":"m 369 -139 l 28 -139 l 28 -6 l 254 -6 l 254 85 l 88 85 l 88 204 l 235 204 l 235 283 l 38 283 l 38 417 l 349 417 l 444 328 l 444 196 l 376 151 l 464 94 l 464 -50 l 369 -139 z "},"₄":{"ha":539,"x_min":38,"x_max":492,"o":"m 38 10 l 63 417 l 247 417 l 225 143 l 307 143 l 307 417 l 492 417 l 492 -139 l 307 -139 l 307 10 l 38 10 z "},"₅":{"ha":508,"x_min":47,"x_max":461,"o":"m 461 283 l 240 283 l 240 215 l 461 189 l 461 -42 l 340 -139 l 47 -139 l 47 -6 l 268 -6 l 268 82 l 47 107 l 47 417 l 461 417 l 461 283 z "},"₆":{"ha":556,"x_min":43,"x_max":513,"o":"m 158 -139 l 43 -47 l 43 325 l 158 417 l 483 417 l 483 283 l 236 283 l 236 215 l 442 215 l 513 157 l 513 -47 l 399 -139 l 158 -139 m 236 -6 l 319 -6 l 319 110 l 236 110 l 236 -6 z "},"₇":{"ha":525,"x_min":39,"x_max":486,"o":"m 60 -139 l 292 218 l 292 292 l 204 292 l 204 189 l 39 189 l 39 417 l 486 417 l 486 197 l 292 -139 l 60 -139 z "},"₈":{"ha":543,"x_min":33,"x_max":510,"o":"m 231 199 l 313 199 l 313 294 l 231 294 l 231 199 m 214 -17 l 329 -17 l 329 93 l 214 93 l 214 -17 m 128 -139 l 33 -50 l 33 96 l 110 153 l 50 196 l 50 328 l 146 417 l 397 417 l 493 328 l 493 196 l 433 153 l 510 96 l 510 -50 l 415 -139 l 128 -139 z "},"₉":{"ha":556,"x_min":43,"x_max":513,"o":"m 399 417 l 513 325 l 513 -47 l 399 -139 l 72 -139 l 72 -6 l 319 -6 l 319 63 l 115 63 l 43 121 l 43 325 l 158 417 l 399 417 m 319 283 l 236 283 l 236 168 l 319 168 l 319 283 z "},"⁄":{"ha":306,"x_min":-194,"x_max":500,"o":"m -194 0 l 306 972 l 500 972 l 0 0 l -194 0 z "},"¼":{"ha":1250,"x_min":50,"x_max":1203,"o":"m 50 415 l 50 531 l 121 538 l 121 821 l 50 811 l 50 931 l 315 972 l 315 538 l 379 531 l 379 415 l 217 422 l 50 415 m 211 0 l 711 972 l 906 972 l 406 0 l 211 0 m 749 149 l 774 556 l 958 556 l 936 282 l 1018 282 l 1018 556 l 1203 556 l 1203 0 l 1018 0 l 1018 149 l 749 149 z "},"½":{"ha":1228,"x_min":50,"x_max":1181,"o":"m 50 415 l 50 531 l 121 538 l 121 821 l 50 811 l 50 931 l 315 972 l 315 538 l 379 531 l 379 415 l 217 422 l 50 415 m 211 0 l 711 972 l 906 972 l 406 0 l 211 0 m 1181 135 l 1181 0 l 758 0 l 758 293 l 983 343 l 983 421 l 761 421 l 761 556 l 1064 556 l 1181 439 l 1181 247 l 956 194 l 956 135 l 1181 135 z "},"¾":{"ha":1342,"x_min":28,"x_max":1294,"o":"m 369 417 l 28 417 l 28 550 l 254 550 l 254 640 l 88 640 l 88 760 l 235 760 l 235 839 l 38 839 l 38 972 l 349 972 l 444 883 l 444 751 l 376 707 l 464 650 l 464 506 l 369 417 m 303 0 l 803 972 l 997 972 l 497 0 l 303 0 m 840 149 l 865 556 l 1050 556 l 1028 282 l 1110 282 l 1110 556 l 1294 556 l 1294 0 l 1110 0 l 1110 149 l 840 149 z "},"%":{"ha":622,"x_min":42,"x_max":581,"o":"m 42 0 l 379 972 l 581 972 l 243 0 l 42 0 m 372 0 l 372 233 l 572 233 l 572 0 l 372 0 m 50 739 l 50 972 l 250 972 l 250 739 l 50 739 z "},"‰":{"ha":864,"x_min":42,"x_max":822,"o":"m 42 0 l 379 972 l 581 972 l 243 0 l 42 0 m 372 0 l 372 233 l 572 233 l 572 0 l 372 0 m 50 739 l 50 972 l 250 972 l 250 739 l 50 739 m 622 0 l 622 233 l 822 233 l 822 0 l 622 0 z "},"′":{"ha":283,"x_min":50,"x_max":247,"o":"m 50 622 l 50 972 l 247 972 l 192 622 l 50 622 z "},"″":{"ha":528,"x_min":50,"x_max":492,"o":"m 50 622 l 50 972 l 247 972 l 192 622 l 50 622 m 294 622 l 294 972 l 492 972 l 436 622 l 294 622 z "},"+":{"ha":833,"x_min":56,"x_max":778,"o":"m 56 343 l 56 546 l 778 546 l 778 343 l 56 343 m 524 83 l 310 83 l 310 806 l 524 806 l 524 83 z "},"−":{"ha":833,"x_min":56,"x_max":778,"o":"m 56 343 l 56 546 l 778 546 l 778 343 l 56 343 z "},"×":{"ha":833,"x_min":63,"x_max":771,"o":"m 63 233 l 274 444 l 63 656 l 206 799 l 417 588 l 628 799 l 771 656 l 560 444 l 771 233 l 628 90 l 417 301 l 206 90 l 63 233 z "},"÷":{"ha":833,"x_min":56,"x_max":778,"o":"m 308 64 l 308 261 l 525 261 l 525 64 l 308 64 m 308 628 l 308 825 l 525 825 l 525 628 l 308 628 m 56 343 l 56 546 l 778 546 l 778 343 l 56 343 z "},"=":{"ha":833,"x_min":56,"x_max":778,"o":"m 56 506 l 56 692 l 778 692 l 778 506 l 56 506 m 56 197 l 56 383 l 778 383 l 778 197 l 56 197 z "},"<":{"ha":833,"x_min":42,"x_max":778,"o":"m 42 285 l 42 493 l 778 778 l 778 567 l 289 389 l 778 211 l 778 0 l 42 285 z "},">":{"ha":833,"x_min":56,"x_max":792,"o":"m 792 493 l 792 285 l 56 0 l 56 211 l 544 389 l 56 567 l 56 778 l 792 493 z "},"≤":{"ha":833,"x_min":42,"x_max":778,"o":"m 42 472 l 42 681 l 778 915 l 778 704 l 289 576 l 778 449 l 778 238 l 42 472 m 56 0 l 56 178 l 778 178 l 778 0 l 56 0 z "},"≥":{"ha":833,"x_min":56,"x_max":792,"o":"m 792 472 l 56 238 l 56 449 l 544 576 l 56 704 l 56 915 l 792 681 l 792 472 m 778 0 l 56 0 l 56 178 l 778 178 l 778 0 z "},"±":{"ha":833,"x_min":56,"x_max":778,"o":"m 56 490 l 56 676 l 310 676 l 310 919 l 524 919 l 524 676 l 778 676 l 778 490 l 524 490 l 524 247 l 310 247 l 310 490 l 56 490 m 56 0 l 56 186 l 778 186 l 778 0 l 56 0 z "},"≠":{"ha":833,"x_min":56,"x_max":778,"o":"m 56 500 l 56 692 l 778 692 l 778 500 l 56 500 m 56 197 l 56 389 l 778 389 l 778 197 l 56 197 m 175 0 l 474 889 l 658 889 l 360 0 l 175 0 z "},"≈":{"ha":550,"x_min":22,"x_max":528,"o":"m 50 458 l 22 626 l 153 750 l 381 633 l 500 739 l 528 571 l 389 447 l 169 564 l 50 458 m 50 156 l 22 324 l 161 447 l 381 331 l 500 436 l 528 268 l 397 144 l 169 261 l 50 156 z "},"∕":{"ha":833,"x_min":42,"x_max":792,"o":"m 42 0 l 542 972 l 792 972 l 292 0 l 42 0 z "},"∙":{"ha":500,"x_min":142,"x_max":358,"o":"m 142 343 l 142 557 l 358 557 l 358 343 l 142 343 z "},"⁒":{"ha":622,"x_min":42,"x_max":581,"o":"m 42 0 l 379 972 l 581 972 l 243 0 l 42 0 m 372 0 l 372 233 l 572 233 l 572 0 l 372 0 m 50 739 l 50 972 l 250 972 l 250 739 l 50 739 z "},"¬":{"ha":833,"x_min":56,"x_max":778,"o":"m 56 336 l 56 553 l 778 553 l 778 100 l 561 100 l 561 336 l 56 336 z "},"µ":{"ha":694,"x_min":47,"x_max":647,"o":"m 647 778 l 647 0 l 281 0 l 281 -222 l 47 -222 l 47 778 l 281 778 l 281 203 l 414 203 l 414 778 l 647 778 z "},"√":{"ha":853,"x_min":56,"x_max":843,"o":"m 296 0 l 229 575 l 56 575 l 56 778 l 425 778 l 468 194 l 518 194 l 606 972 l 843 972 l 704 0 l 296 0 z "},"∞":{"ha":978,"x_min":44,"x_max":933,"o":"m 374 278 l 261 278 l 261 661 l 374 661 l 374 278 m 717 264 l 583 264 l 583 688 l 717 688 l 717 264 m 933 222 l 933 717 l 764 886 l 590 886 l 469 765 l 371 864 l 214 864 l 44 694 l 44 244 l 214 75 l 371 75 l 469 174 l 590 53 l 764 53 l 933 222 z "},"∫":{"ha":417,"x_min":0,"x_max":389,"o":"m 0 -194 l 0 8 l 108 8 l 47 819 l 200 972 l 389 972 l 389 769 l 281 769 l 342 -42 l 189 -194 l 0 -194 z "},"∂":{"ha":658,"x_min":43,"x_max":615,"o":"m 454 0 l 204 0 l 43 161 l 43 529 l 144 631 l 382 631 l 382 769 l 83 769 l 83 972 l 454 972 l 615 811 l 615 161 l 454 0 m 382 194 l 382 469 l 276 469 l 276 194 l 382 194 z "},"◊":{"ha":678,"x_min":7,"x_max":671,"o":"m 328 0 l 354 0 l 446 444 l 350 889 l 324 889 l 232 444 l 328 0 m 204 -194 l 7 444 l 204 1083 l 474 1083 l 671 444 l 474 -194 l 204 -194 z "},"∏":{"ha":683,"x_min":47,"x_max":636,"o":"m 47 -194 l 47 972 l 636 972 l 636 -194 l 403 -194 l 403 769 l 281 769 l 281 -194 l 47 -194 z "},"∑":{"ha":571,"x_min":33,"x_max":538,"o":"m 33 -194 l 33 -22 l 215 397 l 40 800 l 40 972 l 531 972 l 531 778 l 279 778 l 436 397 l 276 0 l 538 0 l 538 -194 l 33 -194 z "},"№":{"ha":1267,"x_min":47,"x_max":1222,"o":"m 47 0 l 47 972 l 232 972 l 417 446 l 417 972 l 631 972 l 631 0 l 446 0 l 261 526 l 261 0 l 47 0 m 722 275 l 722 628 l 858 764 l 1086 764 l 1222 628 l 1222 275 l 1086 139 l 858 139 l 722 275 m 919 306 l 1025 306 l 1025 597 l 919 597 l 919 306 z "},"¤":{"ha":719,"x_min":31,"x_max":689,"o":"m 99 358 l 99 614 l 175 690 l 31 972 l 268 972 l 336 750 l 383 750 l 451 972 l 689 972 l 544 690 l 621 614 l 621 358 l 544 282 l 689 0 l 451 0 l 383 222 l 336 222 l 268 0 l 31 0 l 175 282 l 99 358 m 299 378 l 421 378 l 421 594 l 299 594 l 299 378 z "},"$":{"ha":647,"x_min":43,"x_max":604,"o":"m 51 53 l 51 239 l 371 239 l 371 400 l 43 428 l 43 767 l 196 919 l 246 919 l 246 1056 l 468 1056 l 468 919 l 593 919 l 593 733 l 276 733 l 276 586 l 604 558 l 604 204 l 453 53 l 407 53 l 407 -83 l 185 -83 l 185 53 l 51 53 z "},"¢":{"ha":528,"x_min":44,"x_max":500,"o":"m 44 250 l 44 722 l 197 875 l 244 875 l 244 1028 l 414 1028 l 414 875 l 500 875 l 500 664 l 278 664 l 278 308 l 500 308 l 500 97 l 414 97 l 414 -56 l 244 -56 l 244 97 l 197 97 l 44 250 z "},"£":{"ha":653,"x_min":19,"x_max":633,"o":"m 497 375 l 353 375 l 353 194 l 633 194 l 633 0 l 19 0 l 19 194 l 128 194 l 128 375 l 50 375 l 50 561 l 128 561 l 128 861 l 239 972 l 611 972 l 611 664 l 428 664 l 428 786 l 353 786 l 353 561 l 497 561 l 497 375 z "},"€":{"ha":619,"x_min":14,"x_max":592,"o":"m 90 169 l 90 349 l 14 349 l 14 460 l 90 460 l 90 526 l 14 526 l 14 638 l 90 638 l 90 803 l 260 972 l 578 972 l 578 776 l 340 776 l 340 638 l 539 638 l 519 526 l 340 526 l 340 460 l 507 460 l 488 349 l 340 349 l 340 196 l 592 196 l 592 0 l 260 0 l 90 169 z "},"¥":{"ha":667,"x_min":13,"x_max":654,"o":"m 217 0 l 217 142 l 31 142 l 31 286 l 217 286 l 217 356 l 31 356 l 31 500 l 124 500 l 13 972 l 261 972 l 318 500 l 349 500 l 406 972 l 654 972 l 543 500 l 636 500 l 636 356 l 450 356 l 450 286 l 636 286 l 636 142 l 450 142 l 450 0 l 217 0 z "},"₣":{"ha":489,"x_min":0,"x_max":461,"o":"m 47 0 l 47 972 l 461 972 l 461 761 l 281 761 l 281 539 l 442 539 l 442 336 l 281 336 l 281 0 l 47 0 m 0 147 l 0 253 l 403 253 l 403 147 l 0 147 z "},"₽":{"ha":683,"x_min":14,"x_max":650,"o":"m 650 811 l 650 450 l 489 289 l 317 289 l 317 222 l 483 222 l 483 117 l 317 117 l 317 0 l 83 0 l 83 117 l 14 117 l 14 222 l 83 222 l 83 289 l 14 289 l 14 464 l 83 464 l 83 972 l 489 972 l 650 811 m 317 464 l 417 464 l 417 786 l 317 786 l 317 464 z "},"₿":{"ha":669,"x_min":47,"x_max":636,"o":"m 47 53 l 47 919 l 172 919 l 172 1056 l 272 1056 l 272 919 l 350 919 l 350 1056 l 450 1056 l 450 919 l 483 919 l 608 794 l 608 592 l 526 513 l 636 422 l 636 189 l 500 53 l 450 53 l 450 -83 l 350 -83 l 350 53 l 272 53 l 272 -83 l 172 -83 l 172 53 l 47 53 m 281 579 l 379 579 l 379 736 l 281 736 l 281 579 m 281 236 l 403 236 l 403 418 l 281 418 l 281 236 z "},"₮":{"ha":531,"x_min":19,"x_max":511,"o":"m 140 0 l 140 761 l 19 761 l 19 972 l 511 972 l 511 761 l 382 761 l 382 0 l 140 0 m 50 394 l 50 544 l 481 642 l 481 492 l 50 394 m 50 147 l 50 297 l 481 394 l 481 244 l 50 147 z "},"₴":{"ha":600,"x_min":36,"x_max":564,"o":"m 549 204 l 549 0 l 210 0 l 40 169 l 326 768 l 53 768 l 53 972 l 390 972 l 560 803 l 274 204 l 549 204 m 36 631 l 564 631 l 564 528 l 36 528 l 36 631 m 36 444 l 564 444 l 564 342 l 36 342 l 36 444 z "},"₸":{"ha":531,"x_min":19,"x_max":511,"o":"m 140 0 l 140 529 l 19 529 l 19 714 l 511 714 l 511 529 l 382 529 l 382 0 l 140 0 m 19 788 l 19 972 l 511 972 l 511 788 l 19 788 z "},"֏":{"ha":644,"x_min":43,"x_max":601,"o":"m 601 0 l 601 803 l 432 972 l 213 972 l 43 803 l 43 578 l 276 578 l 276 761 l 368 761 l 368 506 l 140 506 l 140 361 l 368 361 l 368 281 l 140 281 l 140 136 l 368 136 l 368 0 l 601 0 z "},"´":{"ha":447,"x_min":56,"x_max":392,"o":"m 56 856 l 56 972 l 392 1011 l 392 856 l 56 856 z "},"ˆ":{"ha":472,"x_min":56,"x_max":417,"o":"m 56 825 l 56 969 l 236 1053 l 417 969 l 417 825 l 236 908 l 56 825 z "},"ˇ":{"ha":472,"x_min":56,"x_max":417,"o":"m 417 1053 l 417 908 l 236 825 l 56 908 l 56 1053 l 236 969 l 417 1053 z "},"˘":{"ha":556,"x_min":56,"x_max":500,"o":"m 331 1022 l 500 1022 l 389 831 l 167 831 l 56 1022 l 225 1022 l 238 939 l 318 939 l 331 1022 z "},"˜":{"ha":522,"x_min":56,"x_max":467,"o":"m 81 819 l 56 951 l 189 1040 l 322 974 l 442 1042 l 467 910 l 333 821 l 200 888 l 81 819 z "},"¨":{"ha":503,"x_min":56,"x_max":447,"o":"m 56 850 l 56 1003 l 217 1003 l 217 850 l 56 850 m 286 850 l 286 1003 l 447 1003 l 447 850 l 286 850 z "},"˙":{"ha":344,"x_min":56,"x_max":289,"o":"m 56 850 l 56 1003 l 289 1003 l 289 850 l 56 850 z "},"˚":{"ha":447,"x_min":56,"x_max":392,"o":"m 56 890 l 56 1015 l 153 1100 l 294 1100 l 392 1015 l 392 890 l 294 806 l 153 806 l 56 890 m 172 908 l 275 908 l 275 997 l 172 997 l 172 908 z "},"¯":{"ha":472,"x_min":56,"x_max":417,"o":"m 56 864 l 56 1014 l 417 1014 l 417 864 l 56 864 z "},"˝":{"ha":526,"x_min":56,"x_max":471,"o":"m 56 825 l 111 1008 l 271 1008 l 176 825 l 56 825 m 231 825 l 311 1008 l 471 1008 l 351 825 l 231 825 z "},"¸":{"ha":372,"x_min":56,"x_max":317,"o":"m 56 -278 l 106 -75 l 317 -75 l 219 -278 l 56 -278 z "},"˛":{"ha":367,"x_min":56,"x_max":311,"o":"m 311 -67 l 264 -278 l 56 -278 l 146 -67 l 311 -67 z "},"ʹ":{"ha":283,"x_min":50,"x_max":247,"o":"m 50 622 l 50 972 l 247 972 l 192 622 l 50 622 z "},"ʺ":{"ha":528,"x_min":50,"x_max":492,"o":"m 50 622 l 50 972 l 247 972 l 192 622 l 50 622 m 294 622 l 294 972 l 492 972 l 436 622 l 294 622 z "},"ʻ":{"ha":317,"x_min":32,"x_max":296,"o":"m 249 778 l 249 556 l 32 556 l 32 778 l 153 972 l 296 972 l 174 778 l 249 778 z "},"ʼ":{"ha":317,"x_min":21,"x_max":285,"o":"m 68 750 l 68 972 l 285 972 l 285 750 l 164 556 l 21 556 l 143 750 l 68 750 z "},"̀":{"ha":0,"x_min":-186,"x_max":150,"o":"m 150 856 l -186 856 l -186 1011 l 150 972 l 150 856 z "},"́":{"ha":0,"x_min":-150,"x_max":186,"o":"m -150 856 l -150 972 l 186 1011 l 186 856 l -150 856 z "},"̂":{"ha":0,"x_min":-181,"x_max":181,"o":"m -181 825 l -181 969 l 0 1053 l 181 969 l 181 825 l 0 908 l -181 825 z "},"̌":{"ha":0,"x_min":-181,"x_max":181,"o":"m 181 1053 l 181 908 l 0 825 l -181 908 l -181 1053 l 0 969 l 181 1053 z "},"̑":{"ha":0,"x_min":-222,"x_max":222,"o":"m -53 829 l -222 829 l -111 1021 l 111 1021 l 222 829 l 53 829 l 40 913 l -40 913 l -53 829 z "},"̆":{"ha":0,"x_min":-222,"x_max":222,"o":"m 53 1022 l 222 1022 l 111 831 l -111 831 l -222 1022 l -53 1022 l -40 939 l 40 939 l 53 1022 z "},"̃":{"ha":0,"x_min":-206,"x_max":206,"o":"m -181 819 l -206 951 l -72 1040 l 61 974 l 181 1042 l 206 910 l 72 821 l -61 888 l -181 819 z "},"̈":{"ha":0,"x_min":-196,"x_max":196,"o":"m -196 850 l -196 1003 l -35 1003 l -35 850 l -196 850 m 35 850 l 35 1003 l 196 1003 l 196 850 l 35 850 z "},"̇":{"ha":0,"x_min":-117,"x_max":117,"o":"m -117 850 l -117 1003 l 117 1003 l 117 850 l -117 850 z "},"̊":{"ha":0,"x_min":-168,"x_max":168,"o":"m -168 890 l -168 1015 l -71 1100 l 71 1100 l 168 1015 l 168 890 l 71 806 l -71 806 l -168 890 m -51 908 l 51 908 l 51 997 l -51 997 l -51 908 z "},"̋":{"ha":0,"x_min":-162,"x_max":253,"o":"m -162 825 l -107 1008 l 53 1008 l -42 825 l -162 825 m 13 825 l 93 1008 l 253 1008 l 133 825 l 13 825 z "},"̏":{"ha":0,"x_min":-253,"x_max":163,"o":"m 107 1008 l 163 825 l 42 825 l -53 1008 l 107 1008 m -93 1008 l -12 825 l -133 825 l -253 1008 l -93 1008 z "},"̄":{"ha":0,"x_min":-181,"x_max":181,"o":"m -181 864 l -181 1014 l 181 1014 l 181 864 l -181 864 z "},"̒":{"ha":0,"x_min":-125,"x_max":136,"o":"m 136 1036 l 86 833 l -125 833 l -28 1036 l 136 1036 z "},"̉":{"ha":0,"x_min":-117,"x_max":125,"o":"m -117 922 l -117 1014 l 125 1014 l 125 922 l 36 819 l -97 819 l -6 922 l -117 922 z "},"̛":{"ha":0,"x_min":-224,"x_max":81,"o":"m -94 972 l -94 1083 l 81 1083 l 81 922 l -47 794 l -224 794 l -224 972 l -94 972 z "},"̕":{"ha":86,"x_min":0,"x_max":86,"o":"m 0 650 l 0 972 l 86 972 l 86 650 l 0 650 z "},"̦":{"ha":0,"x_min":-129,"x_max":132,"o":"m -129 -278 l -79 -75 l 132 -75 l 33 -278 l -129 -278 z "},"̧":{"ha":0,"x_min":-129,"x_max":132,"o":"m -129 -278 l -79 -75 l 132 -75 l 35 -278 l -129 -278 z "},"̨":{"ha":0,"x_min":-151,"x_max":104,"o":"m 104 -67 l 57 -278 l -151 -278 l -61 -67 l 104 -67 z "},"̣":{"ha":0,"x_min":-117,"x_max":117,"o":"m -117 -247 l -117 -94 l 117 -94 l 117 -247 l -117 -247 z "},"̩":{"ha":0,"x_min":-92,"x_max":92,"o":"m -92 -306 l -92 -69 l 92 -69 l 92 -306 l -92 -306 z "},"̱":{"ha":0,"x_min":-181,"x_max":181,"o":"m -181 -236 l -181 -86 l 181 -86 l 181 -236 l -181 -236 z "},"←":{"ha":853,"x_min":22,"x_max":825,"o":"m 22 376 l 22 401 l 258 756 l 475 756 l 290 490 l 825 490 l 825 288 l 290 288 l 475 22 l 258 22 l 22 376 z "},"↑":{"ha":772,"x_min":19,"x_max":753,"o":"m 374 824 l 399 824 l 753 588 l 753 379 l 488 564 l 488 21 l 285 21 l 285 564 l 19 379 l 19 588 l 374 824 z "},"→":{"ha":853,"x_min":28,"x_max":831,"o":"m 831 401 l 831 376 l 594 22 l 378 22 l 563 288 l 28 288 l 28 490 l 563 490 l 378 756 l 594 756 l 831 401 z "},"↓":{"ha":772,"x_min":19,"x_max":753,"o":"m 374 21 l 399 21 l 753 257 l 753 465 l 488 281 l 488 824 l 285 824 l 285 281 l 19 465 l 19 257 l 374 21 z "},"↔":{"ha":1117,"x_min":22,"x_max":1094,"o":"m 22 401 l 22 376 l 242 22 l 458 22 l 290 288 l 826 288 l 658 22 l 875 22 l 1094 376 l 1094 401 l 875 756 l 658 756 l 826 490 l 290 490 l 458 756 l 242 756 l 22 401 z "},"↕":{"ha":772,"x_min":19,"x_max":753,"o":"m 19 119 l 19 336 l 285 168 l 285 703 l 19 535 l 19 751 l 374 971 l 399 971 l 753 751 l 753 535 l 488 703 l 488 168 l 753 336 l 753 119 l 399 -100 l 374 -100 l 19 119 z "},"↖":{"ha":836,"x_min":49,"x_max":788,"o":"m 140 664 l 157 681 l 568 772 l 721 618 l 410 556 l 788 176 l 643 33 l 265 411 l 201 100 l 49 253 l 140 664 z "},"↗":{"ha":836,"x_min":49,"x_max":788,"o":"m 679 681 l 697 664 l 788 253 l 635 100 l 571 411 l 193 33 l 49 176 l 426 556 l 117 618 l 269 772 l 679 681 z "},"↘":{"ha":836,"x_min":49,"x_max":788,"o":"m 679 140 l 697 158 l 788 568 l 635 721 l 571 410 l 193 789 l 49 644 l 426 267 l 117 211 l 269 58 l 679 140 z "},"↙":{"ha":836,"x_min":49,"x_max":788,"o":"m 140 158 l 157 140 l 568 50 l 721 203 l 410 267 l 788 644 l 643 789 l 265 410 l 201 721 l 49 568 l 140 158 z "},"ﬁ":{"ha":786,"x_min":47,"x_max":739,"o":"m 47 0 l 47 819 l 200 972 l 431 972 l 431 769 l 281 769 l 281 597 l 431 597 l 431 403 l 281 403 l 281 0 l 47 0 m 506 0 l 506 778 l 739 778 l 739 0 l 506 0 m 506 850 l 506 1003 l 739 1003 l 739 850 l 506 850 z "},"ﬂ":{"ha":786,"x_min":47,"x_max":739,"o":"m 47 0 l 47 819 l 200 972 l 431 972 l 431 769 l 281 769 l 281 597 l 431 597 l 431 403 l 281 403 l 281 0 l 47 0 m 506 0 l 506 972 l 739 972 l 739 0 l 506 0 z "},"ﬀ":{"ha":917,"x_min":47,"x_max":889,"o":"m 47 0 l 47 819 l 200 972 l 431 972 l 431 769 l 281 769 l 281 597 l 431 597 l 431 403 l 281 403 l 281 0 l 47 0 m 506 0 l 506 819 l 658 972 l 889 972 l 889 769 l 739 769 l 739 597 l 889 597 l 889 403 l 739 403 l 739 0 l 506 0 z "},"ﬃ":{"ha":1244,"x_min":47,"x_max":1197,"o":"m 47 0 l 47 819 l 200 972 l 431 972 l 431 769 l 281 769 l 281 597 l 431 597 l 431 403 l 281 403 l 281 0 l 47 0 m 506 0 l 506 819 l 658 972 l 889 972 l 889 769 l 739 769 l 739 597 l 889 597 l 889 403 l 739 403 l 739 0 l 506 0 m 964 0 l 964 778 l 1197 778 l 1197 0 l 964 0 m 964 850 l 964 1003 l 1197 1003 l 1197 850 l 964 850 z "},"ﬄ":{"ha":1244,"x_min":47,"x_max":1197,"o":"m 47 0 l 47 819 l 200 972 l 431 972 l 431 769 l 281 769 l 281 597 l 431 597 l 431 403 l 281 403 l 281 0 l 47 0 m 506 0 l 506 819 l 658 972 l 889 972 l 889 769 l 739 769 l 739 597 l 889 597 l 889 403 l 739 403 l 739 0 l 506 0 m 964 0 l 964 972 l 1197 972 l 1197 0 l 964 0 z "},"Α":{"ha":672,"x_min":10,"x_max":663,"o":"m 10 0 l 139 972 l 533 972 l 663 0 l 429 0 l 410 192 l 263 192 l 243 0 l 10 0 m 281 368 l 392 368 l 349 788 l 324 788 l 281 368 z "},"Β":{"ha":661,"x_min":47,"x_max":632,"o":"m 276 579 l 375 579 l 375 786 l 276 786 l 276 579 m 276 186 l 399 186 l 399 418 l 276 418 l 276 186 m 604 819 l 604 592 l 522 513 l 632 422 l 632 153 l 479 0 l 47 0 l 47 972 l 451 972 l 604 819 z "},"Γ":{"ha":464,"x_min":47,"x_max":450,"o":"m 47 0 l 47 972 l 450 972 l 450 761 l 289 761 l 289 0 l 47 0 z "},"Δ":{"ha":700,"x_min":13,"x_max":688,"o":"m 549 972 l 688 0 l 433 0 l 363 778 l 338 778 l 267 0 l 13 0 l 151 972 l 549 972 m 56 0 l 56 194 l 472 194 l 472 0 l 56 0 z "},"Ε":{"ha":514,"x_min":47,"x_max":489,"o":"m 47 0 l 47 972 l 475 972 l 475 778 l 281 778 l 281 589 l 456 589 l 456 403 l 281 403 l 281 194 l 489 194 l 489 0 l 47 0 z "},"Ζ":{"ha":571,"x_min":33,"x_max":538,"o":"m 33 0 l 33 172 l 276 778 l 38 778 l 38 972 l 533 972 l 533 800 l 290 194 l 538 194 l 538 0 l 33 0 z "},"Η":{"ha":667,"x_min":47,"x_max":619,"o":"m 47 0 l 47 972 l 281 972 l 281 606 l 386 606 l 386 972 l 619 972 l 619 0 l 386 0 l 386 394 l 281 394 l 281 0 l 47 0 z "},"Θ":{"ha":658,"x_min":43,"x_max":615,"o":"m 43 161 l 43 811 l 204 972 l 454 972 l 615 811 l 615 161 l 454 0 l 204 0 l 43 161 m 276 778 l 276 563 l 382 563 l 382 778 l 276 778 m 276 194 l 382 194 l 382 410 l 276 410 l 276 194 z "},"Ι":{"ha":431,"x_min":26,"x_max":404,"o":"m 26 -6 l 26 175 l 99 182 l 99 790 l 26 797 l 26 978 l 215 967 l 404 978 l 404 797 l 332 790 l 332 182 l 404 175 l 404 -6 l 215 6 l 26 -6 z "},"Κ":{"ha":683,"x_min":47,"x_max":678,"o":"m 47 0 l 47 972 l 281 972 l 281 592 l 319 592 l 406 972 l 657 972 l 522 514 l 678 0 l 424 0 l 328 394 l 281 394 l 281 0 l 47 0 z "},"Λ":{"ha":672,"x_min":10,"x_max":663,"o":"m 533 972 l 663 0 l 421 0 l 349 771 l 324 771 l 251 0 l 10 0 l 139 972 l 533 972 z "},"Μ":{"ha":756,"x_min":47,"x_max":708,"o":"m 47 0 l 47 972 l 267 972 l 378 667 l 489 972 l 708 972 l 708 0 l 485 0 l 485 586 l 400 353 l 356 353 l 271 586 l 271 0 l 47 0 z "},"Ν":{"ha":678,"x_min":47,"x_max":631,"o":"m 47 0 l 47 972 l 232 972 l 417 446 l 417 972 l 631 972 l 631 0 l 446 0 l 261 526 l 261 0 l 47 0 z "},"Ξ":{"ha":594,"x_min":25,"x_max":569,"o":"m 25 0 l 25 194 l 181 194 l 181 403 l 61 403 l 61 589 l 181 589 l 181 778 l 39 778 l 39 972 l 556 972 l 556 778 l 414 778 l 414 589 l 533 589 l 533 403 l 414 403 l 414 194 l 569 194 l 569 0 l 25 0 z "},"Ο":{"ha":667,"x_min":43,"x_max":624,"o":"m 43 161 l 43 811 l 204 974 l 463 974 l 624 811 l 624 161 l 463 -1 l 204 -1 l 43 161 m 282 761 l 282 211 l 385 211 l 385 761 l 282 761 z "},"Π":{"ha":667,"x_min":47,"x_max":619,"o":"m 47 0 l 47 972 l 619 972 l 619 0 l 386 0 l 386 769 l 281 769 l 281 0 l 47 0 z "},"Ρ":{"ha":649,"x_min":47,"x_max":619,"o":"m 281 378 l 386 378 l 386 786 l 281 786 l 281 378 m 619 811 l 619 353 l 458 192 l 281 192 l 281 0 l 47 0 l 47 972 l 458 972 l 619 811 z "},"Σ":{"ha":571,"x_min":33,"x_max":538,"o":"m 33 0 l 33 172 l 215 489 l 40 800 l 40 972 l 531 972 l 531 778 l 293 778 l 450 489 l 290 194 l 538 194 l 538 0 l 33 0 z "},"Τ":{"ha":531,"x_min":19,"x_max":511,"o":"m 140 0 l 140 761 l 19 761 l 19 972 l 511 972 l 511 761 l 382 761 l 382 0 l 140 0 z "},"Υ":{"ha":667,"x_min":13,"x_max":654,"o":"m 217 0 l 217 292 l 131 292 l 13 972 l 261 972 l 313 476 l 354 476 l 406 972 l 654 972 l 536 292 l 450 292 l 450 0 l 217 0 z "},"Φ":{"ha":892,"x_min":43,"x_max":849,"o":"m 43 244 l 43 728 l 213 897 l 679 897 l 849 728 l 849 244 l 679 75 l 213 75 l 43 244 m 260 711 l 260 261 l 632 261 l 632 711 l 260 711 m 546 0 l 346 0 l 346 972 l 546 972 l 546 0 z "},"Χ":{"ha":678,"x_min":7,"x_max":671,"o":"m 7 0 l 142 513 l 24 972 l 269 972 l 332 606 l 346 606 l 408 972 l 654 972 l 536 513 l 671 0 l 422 0 l 351 394 l 326 394 l 256 0 l 7 0 z "},"Ψ":{"ha":892,"x_min":43,"x_max":849,"o":"m 213 233 l 43 403 l 43 972 l 260 972 l 260 419 l 346 419 l 346 972 l 546 972 l 546 419 l 632 419 l 632 972 l 849 972 l 849 403 l 679 233 l 546 233 l 546 0 l 346 0 l 346 233 l 213 233 z "},"Ω":{"ha":692,"x_min":25,"x_max":667,"o":"m 25 0 l 25 211 l 146 211 l 43 314 l 43 803 l 213 972 l 479 972 l 649 803 l 649 314 l 546 211 l 667 211 l 667 0 l 378 0 l 378 211 l 415 249 l 415 761 l 276 761 l 276 249 l 314 211 l 314 0 l 25 0 z "},"Ω":{"ha":692,"x_min":25,"x_max":667,"o":"m 25 0 l 25 211 l 146 211 l 43 314 l 43 803 l 213 972 l 479 972 l 649 803 l 649 314 l 546 211 l 667 211 l 667 0 l 378 0 l 378 211 l 415 249 l 415 761 l 276 761 l 276 249 l 314 211 l 314 0 l 25 0 z "},"Ά":{"ha":956,"x_min":50,"x_max":868,"o":"m 50 622 l 50 972 l 247 972 l 192 622 l 50 622 m 215 0 l 344 972 l 739 972 l 868 0 l 635 0 l 615 192 l 468 192 l 449 0 l 215 0 m 486 368 l 597 368 l 554 788 l 529 788 l 486 368 z "},"Έ":{"ha":797,"x_min":50,"x_max":772,"o":"m 50 622 l 50 972 l 247 972 l 192 622 l 50 622 m 331 0 l 331 972 l 758 972 l 758 778 l 564 778 l 564 589 l 739 589 l 739 403 l 564 403 l 564 194 l 772 194 l 772 0 l 331 0 z "},"Ή":{"ha":950,"x_min":50,"x_max":903,"o":"m 50 622 l 50 972 l 247 972 l 192 622 l 50 622 m 331 0 l 331 972 l 564 972 l 564 606 l 669 606 l 669 972 l 903 972 l 903 0 l 669 0 l 669 394 l 564 394 l 564 0 l 331 0 z "},"Ί":{"ha":714,"x_min":50,"x_max":688,"o":"m 50 622 l 50 972 l 247 972 l 192 622 l 50 622 m 310 -6 l 310 175 l 382 182 l 382 790 l 310 797 l 310 978 l 499 967 l 688 978 l 688 797 l 615 790 l 615 182 l 688 175 l 688 -6 l 499 6 l 310 -6 z "},"Ϊ":{"ha":431,"x_min":19,"x_max":411,"o":"m 26 -6 l 26 175 l 99 182 l 99 790 l 26 797 l 26 978 l 215 967 l 404 978 l 404 797 l 332 790 l 332 182 l 404 175 l 404 -6 l 215 6 l 26 -6 m 19 1044 l 19 1197 l 181 1197 l 181 1044 l 19 1044 m 250 1044 l 250 1197 l 411 1197 l 411 1044 l 250 1044 z "},"Ό":{"ha":950,"x_min":50,"x_max":865,"o":"m 50 622 l 50 972 l 247 972 l 192 622 l 50 622 m 285 161 l 285 811 l 446 974 l 704 974 l 865 811 l 865 161 l 704 -1 l 446 -1 l 285 161 m 524 761 l 524 211 l 626 211 l 626 761 l 524 761 z "},"Ύ":{"ha":950,"x_min":50,"x_max":938,"o":"m 50 622 l 50 972 l 247 972 l 192 622 l 50 622 m 500 0 l 500 292 l 414 292 l 296 972 l 544 972 l 596 476 l 638 476 l 689 972 l 938 972 l 819 292 l 733 292 l 733 0 l 500 0 z "},"Ϋ":{"ha":667,"x_min":13,"x_max":654,"o":"m 217 0 l 217 292 l 131 292 l 13 972 l 261 972 l 313 476 l 354 476 l 406 972 l 654 972 l 536 292 l 450 292 l 450 0 l 217 0 m 138 1044 l 138 1197 l 299 1197 l 299 1044 l 138 1044 m 368 1044 l 368 1197 l 529 1197 l 529 1044 l 368 1044 z "},"Ώ":{"ha":975,"x_min":50,"x_max":908,"o":"m 50 622 l 50 972 l 247 972 l 192 622 l 50 622 m 267 0 l 267 211 l 388 211 l 285 314 l 285 803 l 454 972 l 721 972 l 890 803 l 890 314 l 788 211 l 908 211 l 908 0 l 619 0 l 619 211 l 657 249 l 657 761 l 518 761 l 518 249 l 556 211 l 556 0 l 267 0 z "},"α":{"ha":665,"x_min":47,"x_max":632,"o":"m 175 0 l 47 128 l 47 650 l 175 778 l 311 778 l 382 657 l 394 778 l 632 778 l 583 389 l 632 0 l 394 0 l 382 121 l 311 0 l 175 0 m 281 182 l 382 182 l 382 596 l 281 596 l 281 182 z "},"β":{"ha":717,"x_min":47,"x_max":683,"o":"m 653 803 l 653 601 l 560 519 l 683 419 l 683 153 l 531 0 l 261 0 l 261 186 l 450 186 l 450 424 l 336 424 l 336 585 l 424 585 l 424 786 l 281 786 l 281 -139 l 47 -139 l 47 803 l 217 972 l 483 972 l 653 803 z "},"γ":{"ha":633,"x_min":15,"x_max":618,"o":"m 192 -36 l 15 778 l 250 778 l 308 251 l 328 251 l 388 778 l 618 778 l 442 -36 l 442 -194 l 192 -194 l 192 -36 z "},"δ":{"ha":661,"x_min":47,"x_max":614,"o":"m 200 0 l 47 153 l 47 636 l 268 728 l 360 654 l 281 578 l 281 194 l 381 194 l 381 586 l 94 794 l 94 972 l 594 972 l 594 806 l 344 806 l 614 649 l 614 153 l 461 0 l 200 0 z "},"ε":{"ha":547,"x_min":33,"x_max":522,"o":"m 147 0 l 33 114 l 33 324 l 128 408 l 56 469 l 56 664 l 169 778 l 511 778 l 511 590 l 293 590 l 293 468 l 500 468 l 500 315 l 279 315 l 279 188 l 522 188 l 522 0 l 147 0 z "},"ζ":{"ha":531,"x_min":44,"x_max":508,"o":"m 197 0 l 44 153 l 44 532 l 285 789 l 44 789 l 44 972 l 494 972 l 494 794 l 278 522 l 278 201 l 508 201 l 508 -189 l 306 -189 l 306 0 l 197 0 z "},"η":{"ha":661,"x_min":47,"x_max":614,"o":"m 47 0 l 47 778 l 453 778 l 614 617 l 614 0 l 381 0 l 381 575 l 281 575 l 281 0 l 47 0 z "},"θ":{"ha":619,"x_min":43,"x_max":576,"o":"m 43 161 l 43 811 l 204 972 l 415 972 l 576 811 l 576 161 l 424 0 l 204 0 l 43 161 m 260 786 l 260 563 l 360 563 l 360 786 l 260 786 m 260 186 l 360 186 l 360 410 l 260 410 l 260 186 z "},"ι":{"ha":358,"x_min":47,"x_max":344,"o":"m 47 778 l 281 778 l 281 204 l 344 204 l 344 0 l 178 0 l 47 131 l 47 778 z "},"κ":{"ha":658,"x_min":47,"x_max":639,"o":"m 47 0 l 47 778 l 281 778 l 281 501 l 319 501 l 388 778 l 629 778 l 517 418 l 639 0 l 396 0 l 325 307 l 281 307 l 281 0 l 47 0 z "},"λ":{"ha":644,"x_min":15,"x_max":629,"o":"m 100 972 l 481 972 l 629 0 l 397 0 l 343 506 l 297 506 l 249 0 l 15 0 l 118 683 l 324 683 l 307 794 l 100 794 l 100 972 z "},"μ":{"ha":681,"x_min":47,"x_max":667,"o":"m 47 -222 l 47 778 l 271 778 l 271 194 l 371 194 l 371 778 l 603 778 l 603 204 l 667 204 l 667 0 l 493 0 l 417 76 l 340 0 l 271 0 l 271 -222 l 47 -222 z "},"ν":{"ha":633,"x_min":15,"x_max":618,"o":"m 128 0 l 15 778 l 250 778 l 306 199 l 331 199 l 386 778 l 618 778 l 506 0 l 128 0 z "},"ξ":{"ha":514,"x_min":33,"x_max":489,"o":"m 147 0 l 33 114 l 33 435 l 119 515 l 47 581 l 47 858 l 161 972 l 481 972 l 481 776 l 264 776 l 264 596 l 478 596 l 478 401 l 254 401 l 254 196 l 489 196 l 489 -189 l 286 -189 l 286 0 l 147 0 z "},"ο":{"ha":661,"x_min":47,"x_max":614,"o":"m 47 153 l 47 625 l 200 778 l 461 778 l 614 625 l 614 153 l 461 0 l 200 0 l 47 153 m 281 186 l 381 186 l 381 592 l 281 592 l 281 186 z "},"π":{"ha":661,"x_min":47,"x_max":614,"o":"m 47 0 l 47 778 l 614 778 l 614 0 l 381 0 l 381 578 l 281 578 l 281 0 l 47 0 z "},"ρ":{"ha":661,"x_min":47,"x_max":614,"o":"m 47 -194 l 47 617 l 208 778 l 453 778 l 614 617 l 614 161 l 453 0 l 281 0 l 281 -194 l 47 -194 m 381 583 l 281 583 l 281 194 l 381 194 l 381 583 z "},"ς":{"ha":517,"x_min":47,"x_max":489,"o":"m 197 0 l 47 150 l 47 619 l 206 778 l 489 778 l 489 567 l 281 567 l 281 211 l 489 211 l 489 -189 l 286 -189 l 286 0 l 197 0 z "},"σ":{"ha":664,"x_min":47,"x_max":639,"o":"m 47 153 l 47 625 l 200 778 l 639 778 l 639 594 l 492 594 l 614 506 l 614 153 l 461 0 l 200 0 l 47 153 m 281 186 l 381 186 l 381 592 l 281 592 l 281 186 z "},"τ":{"ha":503,"x_min":28,"x_max":475,"o":"m 119 139 l 119 583 l 28 583 l 28 738 l 68 778 l 475 778 l 475 583 l 353 583 l 353 194 l 475 194 l 475 0 l 258 0 l 119 139 z "},"υ":{"ha":661,"x_min":47,"x_max":614,"o":"m 614 778 l 614 153 l 461 0 l 200 0 l 47 153 l 47 778 l 281 778 l 281 203 l 381 203 l 381 778 l 614 778 z "},"φ":{"ha":892,"x_min":47,"x_max":844,"o":"m 540 179 l 628 179 l 628 596 l 540 596 l 540 179 m 200 0 l 47 153 l 47 625 l 200 778 l 408 778 l 264 600 l 264 179 l 351 179 l 351 599 l 496 778 l 692 778 l 844 625 l 844 153 l 692 0 l 540 0 l 540 -194 l 351 -194 l 351 0 l 200 0 z "},"χ":{"ha":644,"x_min":11,"x_max":633,"o":"m 11 0 l 119 408 l 21 778 l 265 778 l 308 493 l 336 493 l 379 778 l 624 778 l 525 408 l 633 0 l 385 0 l 342 299 l 303 299 l 260 0 l 11 0 z "},"ψ":{"ha":900,"x_min":47,"x_max":853,"o":"m 208 0 l 47 161 l 47 778 l 264 778 l 264 186 l 350 186 l 350 861 l 550 861 l 550 186 l 636 186 l 636 778 l 853 778 l 853 161 l 692 0 l 550 0 l 550 -194 l 350 -194 l 350 0 l 208 0 z "},"ω":{"ha":972,"x_min":40,"x_max":932,"o":"m 599 689 l 599 203 l 699 203 l 699 778 l 932 778 l 932 158 l 774 0 l 565 0 l 490 93 l 415 0 l 199 0 l 40 158 l 40 778 l 274 778 l 274 203 l 374 203 l 374 689 l 599 689 z "},"ά":{"ha":665,"x_min":47,"x_max":632,"o":"m 175 0 l 47 128 l 47 650 l 175 778 l 311 778 l 382 657 l 394 778 l 632 778 l 583 389 l 632 0 l 394 0 l 382 121 l 311 0 l 175 0 m 281 182 l 382 182 l 382 596 l 281 596 l 281 182 m 256 831 l 256 1014 l 453 1014 l 397 831 l 256 831 z "},"έ":{"ha":547,"x_min":33,"x_max":522,"o":"m 147 0 l 33 114 l 33 324 l 128 408 l 56 469 l 56 664 l 169 778 l 511 778 l 511 590 l 293 590 l 293 468 l 500 468 l 500 315 l 279 315 l 279 188 l 522 188 l 522 0 l 147 0 m 229 831 l 229 1014 l 426 1014 l 371 831 l 229 831 z "},"ή":{"ha":661,"x_min":47,"x_max":614,"o":"m 47 0 l 47 778 l 453 778 l 614 617 l 614 0 l 381 0 l 381 575 l 281 575 l 281 0 l 47 0 m 253 831 l 253 1014 l 450 1014 l 394 831 l 253 831 z "},"ί":{"ha":358,"x_min":47,"x_max":344,"o":"m 47 778 l 281 778 l 281 204 l 344 204 l 344 0 l 178 0 l 47 131 l 47 778 m 86 831 l 86 1014 l 283 1014 l 228 831 l 86 831 z "},"ϊ":{"ha":358,"x_min":-32,"x_max":360,"o":"m 47 778 l 281 778 l 281 204 l 344 204 l 344 0 l 178 0 l 47 131 l 47 778 m -32 850 l -32 1003 l 129 1003 l 129 850 l -32 850 m 199 850 l 199 1003 l 360 1003 l 360 850 l 199 850 z "},"ΐ":{"ha":358,"x_min":-32,"x_max":360,"o":"m 47 778 l 281 778 l 281 204 l 344 204 l 344 0 l 178 0 l 47 131 l 47 778 m -32 850 l -32 1003 l 129 1003 l 129 850 l -32 850 m 199 850 l 199 1003 l 360 1003 l 360 850 l 199 850 m 86 1056 l 86 1239 l 283 1239 l 228 1056 l 86 1056 z "},"ό":{"ha":661,"x_min":47,"x_max":614,"o":"m 47 153 l 47 625 l 200 778 l 461 778 l 614 625 l 614 153 l 461 0 l 200 0 l 47 153 m 281 186 l 381 186 l 381 592 l 281 592 l 281 186 m 253 831 l 253 1014 l 450 1014 l 394 831 l 253 831 z "},"ύ":{"ha":661,"x_min":47,"x_max":614,"o":"m 614 778 l 614 153 l 461 0 l 200 0 l 47 153 l 47 778 l 281 778 l 281 203 l 381 203 l 381 778 l 614 778 m 253 831 l 253 1014 l 450 1014 l 394 831 l 253 831 z "},"ϋ":{"ha":661,"x_min":47,"x_max":614,"o":"m 614 778 l 614 153 l 461 0 l 200 0 l 47 153 l 47 778 l 281 778 l 281 203 l 381 203 l 381 778 l 614 778 m 135 850 l 135 1003 l 296 1003 l 296 850 l 135 850 m 365 850 l 365 1003 l 526 1003 l 526 850 l 365 850 z "},"ΰ":{"ha":661,"x_min":47,"x_max":614,"o":"m 614 778 l 614 153 l 461 0 l 200 0 l 47 153 l 47 778 l 281 778 l 281 203 l 381 203 l 381 778 l 614 778 m 135 850 l 135 1003 l 296 1003 l 296 850 l 135 850 m 365 850 l 365 1003 l 526 1003 l 526 850 l 365 850 m 253 1056 l 253 1239 l 450 1239 l 394 1056 l 253 1056 z "},"ώ":{"ha":972,"x_min":40,"x_max":932,"o":"m 599 689 l 599 203 l 699 203 l 699 778 l 932 778 l 932 158 l 774 0 l 565 0 l 490 93 l 415 0 l 199 0 l 40 158 l 40 778 l 274 778 l 274 203 l 374 203 l 374 689 l 599 689 m 408 831 l 408 1014 l 606 1014 l 550 831 l 408 831 z "},"Ϗ":{"ha":683,"x_min":47,"x_max":678,"o":"m 47 0 l 47 972 l 281 972 l 281 592 l 319 592 l 406 972 l 657 972 l 522 514 l 678 0 l 424 0 l 328 394 l 281 394 l 281 0 l 47 0 m 667 -67 l 619 -278 l 411 -278 l 501 -67 l 667 -67 z "},"ϗ":{"ha":658,"x_min":47,"x_max":640,"o":"m 47 0 l 47 778 l 281 778 l 281 501 l 319 501 l 388 778 l 629 778 l 517 418 l 639 0 l 396 0 l 325 307 l 281 307 l 281 0 l 47 0 m 640 -67 l 593 -278 l 385 -278 l 475 -67 l 640 -67 z "},"ϕ":{"ha":892,"x_min":47,"x_max":844,"o":"m 47 153 l 47 625 l 200 778 l 692 778 l 844 625 l 844 153 l 692 0 l 200 0 l 47 153 m 264 603 l 264 175 l 628 175 l 628 603 l 264 603 m 540 -194 l 351 -194 l 351 972 l 540 972 l 540 -194 z "},"ʹ":{"ha":283,"x_min":50,"x_max":247,"o":"m 50 622 l 50 972 l 247 972 l 192 622 l 50 622 z "},"͵":{"ha":283,"x_min":36,"x_max":233,"o":"m 233 139 l 233 -211 l 36 -211 l 92 139 l 233 139 z "},";":{"ha":317,"x_min":3,"x_max":267,"o":"m 50 0 l 50 222 l 267 222 l 267 0 l 146 -194 l 3 -194 l 125 0 l 50 0 m 32 500 l 32 722 l 249 722 l 249 500 l 32 500 z "},"·":{"ha":317,"x_min":50,"x_max":267,"o":"m 50 500 l 50 722 l 267 722 l 267 500 l 50 500 z "},"΄":{"ha":283,"x_min":50,"x_max":247,"o":"m 50 622 l 50 972 l 247 972 l 192 622 l 50 622 z "},"΅":{"ha":503,"x_min":56,"x_max":447,"o":"m 56 850 l 56 1003 l 217 1003 l 217 850 l 56 850 m 286 850 l 286 1003 l 447 1003 l 447 850 l 286 850 m 153 831 l 153 1014 l 350 1014 l 294 831 l 153 831 z "},"А":{"ha":672,"x_min":10,"x_max":663,"o":"m 10 0 l 139 972 l 533 972 l 663 0 l 429 0 l 410 192 l 263 192 l 243 0 l 10 0 m 281 368 l 392 368 l 349 788 l 324 788 l 281 368 z "},"Б":{"ha":669,"x_min":47,"x_max":636,"o":"m 47 0 l 47 972 l 583 972 l 583 778 l 281 778 l 281 617 l 483 617 l 636 464 l 636 153 l 483 0 l 47 0 m 281 186 l 403 186 l 403 431 l 281 431 l 281 186 z "},"В":{"ha":661,"x_min":47,"x_max":632,"o":"m 276 579 l 375 579 l 375 786 l 276 786 l 276 579 m 276 186 l 399 186 l 399 418 l 276 418 l 276 186 m 604 819 l 604 592 l 522 513 l 632 422 l 632 153 l 479 0 l 47 0 l 47 972 l 451 972 l 604 819 z "},"Г":{"ha":464,"x_min":47,"x_max":450,"o":"m 47 0 l 47 972 l 450 972 l 450 761 l 289 761 l 289 0 l 47 0 z "},"Д":{"ha":761,"x_min":21,"x_max":740,"o":"m 21 -194 l 21 203 l 79 203 l 182 972 l 674 972 l 674 203 l 740 203 l 740 -194 l 557 -194 l 557 0 l 204 0 l 204 -194 l 21 -194 m 314 186 l 440 186 l 440 786 l 383 786 l 314 186 z "},"Е":{"ha":514,"x_min":47,"x_max":489,"o":"m 47 0 l 47 972 l 475 972 l 475 778 l 281 778 l 281 589 l 456 589 l 456 403 l 281 403 l 281 194 l 489 194 l 489 0 l 47 0 z "},"Ж":{"ha":1022,"x_min":6,"x_max":1017,"o":"m 628 0 l 394 0 l 394 392 l 353 392 l 264 0 l 6 0 l 157 514 l 26 972 l 282 972 l 361 594 l 394 594 l 394 972 l 628 972 l 628 594 l 661 594 l 740 972 l 996 972 l 865 514 l 1017 0 l 758 0 l 669 392 l 628 392 l 628 0 z "},"З":{"ha":589,"x_min":25,"x_max":560,"o":"m 399 0 l 25 0 l 25 194 l 318 194 l 318 403 l 72 403 l 72 589 l 293 589 l 293 778 l 32 778 l 32 972 l 374 972 l 535 811 l 535 582 l 447 508 l 560 417 l 560 161 l 399 0 z "},"И":{"ha":678,"x_min":47,"x_max":631,"o":"m 631 0 l 413 0 l 413 556 l 239 0 l 47 0 l 47 972 l 265 972 l 265 417 l 439 972 l 631 972 l 631 0 z "},"Й":{"ha":678,"x_min":47,"x_max":631,"o":"m 631 0 l 413 0 l 413 556 l 239 0 l 47 0 l 47 972 l 265 972 l 265 417 l 439 972 l 631 972 l 631 0 m 378 1217 l 553 1217 l 482 1028 l 196 1028 l 125 1217 l 300 1217 l 301 1117 l 376 1117 l 378 1217 z "},"К":{"ha":683,"x_min":47,"x_max":678,"o":"m 47 0 l 47 972 l 281 972 l 281 592 l 319 592 l 406 972 l 657 972 l 522 514 l 678 0 l 424 0 l 328 394 l 281 394 l 281 0 l 47 0 z "},"Л":{"ha":699,"x_min":10,"x_max":651,"o":"m 651 972 l 651 0 l 418 0 l 418 771 l 333 771 l 249 0 l 10 0 l 140 972 l 651 972 z "},"М":{"ha":756,"x_min":47,"x_max":708,"o":"m 47 0 l 47 972 l 267 972 l 378 667 l 489 972 l 708 972 l 708 0 l 485 0 l 485 586 l 400 353 l 356 353 l 271 586 l 271 0 l 47 0 z "},"Н":{"ha":667,"x_min":47,"x_max":619,"o":"m 47 0 l 47 972 l 281 972 l 281 606 l 386 606 l 386 972 l 619 972 l 619 0 l 386 0 l 386 394 l 281 394 l 281 0 l 47 0 z "},"О":{"ha":667,"x_min":43,"x_max":624,"o":"m 43 161 l 43 811 l 204 974 l 463 974 l 624 811 l 624 161 l 463 -1 l 204 -1 l 43 161 m 282 761 l 282 211 l 385 211 l 385 761 l 282 761 z "},"П":{"ha":667,"x_min":47,"x_max":619,"o":"m 47 0 l 47 972 l 619 972 l 619 0 l 386 0 l 386 769 l 281 769 l 281 0 l 47 0 z "},"Р":{"ha":649,"x_min":47,"x_max":619,"o":"m 281 378 l 386 378 l 386 786 l 281 786 l 281 378 m 619 811 l 619 353 l 458 192 l 281 192 l 281 0 l 47 0 l 47 972 l 458 972 l 619 811 z "},"С":{"ha":543,"x_min":43,"x_max":515,"o":"m 43 161 l 43 811 l 204 972 l 510 972 l 510 754 l 294 754 l 294 218 l 515 218 l 515 0 l 204 0 l 43 161 z "},"Т":{"ha":531,"x_min":19,"x_max":511,"o":"m 140 0 l 140 761 l 19 761 l 19 972 l 511 972 l 511 761 l 382 761 l 382 0 l 140 0 z "},"У":{"ha":644,"x_min":15,"x_max":629,"o":"m 50 0 l 50 194 l 308 194 l 322 289 l 118 289 l 15 972 l 249 972 l 297 475 l 343 475 l 397 972 l 629 972 l 481 0 l 50 0 z "},"Ф":{"ha":892,"x_min":43,"x_max":849,"o":"m 43 244 l 43 728 l 213 897 l 679 897 l 849 728 l 849 244 l 679 75 l 213 75 l 43 244 m 260 711 l 260 261 l 632 261 l 632 711 l 260 711 m 546 0 l 346 0 l 346 972 l 546 972 l 546 0 z "},"Х":{"ha":678,"x_min":7,"x_max":671,"o":"m 7 0 l 142 513 l 24 972 l 269 972 l 332 606 l 346 606 l 408 972 l 654 972 l 536 513 l 671 0 l 422 0 l 351 394 l 326 394 l 256 0 l 7 0 z "},"Ц":{"ha":717,"x_min":47,"x_max":703,"o":"m 619 972 l 619 203 l 703 203 l 703 -194 l 525 -194 l 525 0 l 47 0 l 47 972 l 281 972 l 281 203 l 386 203 l 386 972 l 619 972 z "},"Ч":{"ha":667,"x_min":47,"x_max":619,"o":"m 619 972 l 619 0 l 386 0 l 386 194 l 208 194 l 47 356 l 47 972 l 281 972 l 281 389 l 386 389 l 386 972 l 619 972 z "},"Ш":{"ha":1006,"x_min":47,"x_max":958,"o":"m 619 972 l 619 203 l 725 203 l 725 972 l 958 972 l 958 0 l 47 0 l 47 972 l 281 972 l 281 203 l 386 203 l 386 972 l 619 972 z "},"Щ":{"ha":1056,"x_min":47,"x_max":1042,"o":"m 619 972 l 619 203 l 725 203 l 725 972 l 958 972 l 958 203 l 1042 203 l 1042 -194 l 864 -194 l 864 0 l 47 0 l 47 972 l 281 972 l 281 203 l 386 203 l 386 972 l 619 972 z "},"Ъ":{"ha":731,"x_min":19,"x_max":697,"o":"m 464 594 l 358 594 l 358 186 l 464 186 l 464 594 m 697 619 l 697 161 l 536 0 l 125 0 l 125 725 l 169 769 l 19 769 l 19 972 l 358 972 l 358 781 l 536 781 l 697 619 z "},"Ы":{"ha":981,"x_min":47,"x_max":933,"o":"m 386 594 l 281 594 l 281 186 l 386 186 l 386 594 m 619 619 l 619 161 l 458 0 l 47 0 l 47 972 l 281 972 l 281 781 l 458 781 l 619 619 m 700 0 l 700 972 l 933 972 l 933 0 l 700 0 z "},"Ь":{"ha":653,"x_min":47,"x_max":619,"o":"m 386 594 l 281 594 l 281 186 l 386 186 l 386 594 m 619 619 l 619 161 l 458 0 l 47 0 l 47 972 l 281 972 l 281 781 l 458 781 l 619 619 z "},"Э":{"ha":560,"x_min":28,"x_max":517,"o":"m 517 161 l 356 0 l 28 0 l 28 200 l 279 200 l 279 772 l 28 772 l 28 972 l 356 972 l 517 811 l 517 161 m 471 393 l 74 393 l 74 579 l 471 579 l 471 393 z "},"Ю":{"ha":989,"x_min":47,"x_max":946,"o":"m 47 0 l 47 972 l 281 972 l 281 592 l 379 592 l 379 811 l 540 972 l 785 972 l 946 811 l 946 161 l 785 0 l 540 0 l 379 161 l 379 381 l 281 381 l 281 0 l 47 0 m 607 761 l 607 211 l 713 211 l 713 761 l 607 761 z "},"Я":{"ha":667,"x_min":11,"x_max":619,"o":"m 386 460 l 386 786 l 281 786 l 281 460 l 386 460 m 47 811 l 208 972 l 619 972 l 619 0 l 386 0 l 386 275 l 329 275 l 278 0 l 11 0 l 138 339 l 47 429 l 47 811 z "},"а":{"ha":617,"x_min":33,"x_max":569,"o":"m 33 144 l 33 467 l 344 481 l 344 583 l 47 583 l 47 778 l 408 778 l 569 617 l 569 0 l 178 0 l 33 144 m 258 342 l 258 186 l 344 186 l 344 367 l 258 342 z "},"б":{"ha":658,"x_min":47,"x_max":614,"o":"m 281 194 l 381 194 l 381 533 l 281 533 l 281 194 m 200 0 l 47 153 l 47 819 l 200 972 l 583 972 l 583 794 l 281 794 l 281 703 l 506 703 l 614 594 l 614 153 l 461 0 l 200 0 z "},"в":{"ha":650,"x_min":47,"x_max":617,"o":"m 47 778 l 47 0 l 503 0 l 617 114 l 617 324 l 521 408 l 594 469 l 594 664 l 481 778 l 47 778 m 272 468 l 272 608 l 374 608 l 374 468 l 272 468 m 272 169 l 272 315 l 388 315 l 388 169 l 272 169 z "},"г":{"ha":453,"x_min":47,"x_max":435,"o":"m 47 0 l 47 778 l 435 778 l 435 565 l 281 565 l 281 0 l 47 0 z "},"д":{"ha":658,"x_min":44,"x_max":611,"o":"m 81 -194 l 81 0 l 378 0 l 378 94 l 197 94 l 44 247 l 44 625 l 203 778 l 611 778 l 611 -11 l 428 -194 l 81 -194 m 278 583 l 278 281 l 378 281 l 378 583 l 278 583 z "},"е":{"ha":617,"x_min":44,"x_max":572,"o":"m 44 153 l 44 625 l 197 778 l 572 778 l 572 317 l 278 317 l 278 194 l 558 194 l 558 0 l 197 0 l 44 153 m 278 431 l 375 442 l 375 600 l 278 600 l 278 431 z "},"ж":{"ha":983,"x_min":19,"x_max":964,"o":"m 608 0 l 375 0 l 375 307 l 331 307 l 263 0 l 19 0 l 142 418 l 31 778 l 271 778 l 335 501 l 375 501 l 375 778 l 608 778 l 608 501 l 649 501 l 713 778 l 953 778 l 842 418 l 964 0 l 721 0 l 653 307 l 608 307 l 608 0 z "},"з":{"ha":547,"x_min":25,"x_max":514,"o":"m 514 114 l 400 0 l 25 0 l 25 188 l 268 188 l 268 315 l 47 315 l 47 468 l 254 468 l 254 590 l 36 590 l 36 778 l 378 778 l 492 664 l 492 469 l 419 408 l 514 324 l 514 114 z "},"и":{"ha":667,"x_min":47,"x_max":619,"o":"m 619 0 l 406 0 l 406 444 l 239 0 l 47 0 l 47 778 l 261 778 l 261 333 l 428 778 l 619 778 l 619 0 z "},"й":{"ha":667,"x_min":47,"x_max":619,"o":"m 619 0 l 406 0 l 406 444 l 239 0 l 47 0 l 47 778 l 261 778 l 261 333 l 428 778 l 619 778 l 619 0 m 386 1022 l 556 1022 l 444 831 l 222 831 l 111 1022 l 281 1022 l 293 939 l 374 939 l 386 1022 z "},"к":{"ha":658,"x_min":47,"x_max":639,"o":"m 47 0 l 47 778 l 281 778 l 281 501 l 319 501 l 388 778 l 629 778 l 517 418 l 639 0 l 396 0 l 325 307 l 281 307 l 281 0 l 47 0 z "},"л":{"ha":664,"x_min":18,"x_max":617,"o":"m 617 778 l 617 0 l 385 0 l 385 593 l 322 593 l 271 0 l 18 0 l 18 204 l 72 204 l 125 778 l 617 778 z "},"м":{"ha":746,"x_min":47,"x_max":699,"o":"m 47 0 l 47 778 l 281 778 l 372 475 l 464 778 l 699 778 l 699 0 l 492 0 l 492 463 l 411 183 l 333 183 l 254 463 l 254 0 l 47 0 z "},"н":{"ha":661,"x_min":47,"x_max":614,"o":"m 47 0 l 47 778 l 281 778 l 281 497 l 381 497 l 381 778 l 614 778 l 614 0 l 381 0 l 381 296 l 281 296 l 281 0 l 47 0 z "},"о":{"ha":656,"x_min":44,"x_max":611,"o":"m 44 153 l 44 625 l 197 778 l 458 778 l 611 625 l 611 153 l 458 0 l 197 0 l 44 153 m 278 186 l 378 186 l 378 592 l 278 592 l 278 186 z "},"п":{"ha":661,"x_min":47,"x_max":614,"o":"m 47 0 l 47 778 l 614 778 l 614 0 l 381 0 l 381 578 l 281 578 l 281 0 l 47 0 z "},"р":{"ha":658,"x_min":47,"x_max":614,"o":"m 47 -194 l 47 778 l 453 778 l 614 617 l 614 161 l 453 0 l 281 0 l 281 -194 l 47 -194 m 381 583 l 281 583 l 281 194 l 381 194 l 381 583 z "},"с":{"ha":514,"x_min":44,"x_max":486,"o":"m 44 158 l 44 619 l 203 778 l 486 778 l 486 567 l 278 567 l 278 211 l 486 211 l 486 0 l 203 0 l 44 158 z "},"т":{"ha":561,"x_min":18,"x_max":543,"o":"m 397 0 l 397 574 l 543 574 l 543 778 l 18 778 l 18 574 l 164 574 l 164 0 l 397 0 z "},"у":{"ha":644,"x_min":15,"x_max":629,"o":"m 50 -194 l 50 0 l 308 0 l 322 94 l 118 94 l 15 778 l 249 778 l 297 281 l 343 281 l 397 778 l 629 778 l 481 -194 l 50 -194 z "},"ф":{"ha":892,"x_min":47,"x_max":844,"o":"m 47 153 l 47 625 l 200 778 l 692 778 l 844 625 l 844 153 l 692 0 l 200 0 l 47 153 m 264 603 l 264 175 l 628 175 l 628 603 l 264 603 m 540 -194 l 351 -194 l 351 972 l 540 972 l 540 -194 z "},"х":{"ha":644,"x_min":11,"x_max":633,"o":"m 11 0 l 119 408 l 21 778 l 265 778 l 308 493 l 336 493 l 379 778 l 624 778 l 525 408 l 633 0 l 385 0 l 342 299 l 303 299 l 260 0 l 11 0 z "},"ц":{"ha":711,"x_min":47,"x_max":697,"o":"m 614 778 l 614 203 l 697 203 l 697 -194 l 519 -194 l 519 0 l 47 0 l 47 778 l 281 778 l 281 200 l 381 200 l 381 778 l 614 778 z "},"ч":{"ha":650,"x_min":36,"x_max":603,"o":"m 603 778 l 603 0 l 369 0 l 369 178 l 197 178 l 36 339 l 36 778 l 269 778 l 269 372 l 369 372 l 369 778 l 603 778 z "},"ш":{"ha":994,"x_min":47,"x_max":947,"o":"m 614 778 l 614 203 l 714 203 l 714 778 l 947 778 l 947 0 l 47 0 l 47 778 l 281 778 l 281 203 l 381 203 l 381 778 l 614 778 z "},"щ":{"ha":1044,"x_min":47,"x_max":1031,"o":"m 614 778 l 614 203 l 714 203 l 714 778 l 947 778 l 947 203 l 1031 203 l 1031 -194 l 853 -194 l 853 0 l 47 0 l 47 778 l 281 778 l 281 203 l 381 203 l 381 778 l 614 778 z "},"ъ":{"ha":753,"x_min":14,"x_max":708,"o":"m 142 0 l 142 511 l 214 583 l 14 583 l 14 778 l 375 778 l 375 600 l 564 600 l 708 456 l 708 144 l 564 0 l 142 0 m 375 178 l 475 178 l 475 422 l 375 422 l 375 178 z "},"ы":{"ha":986,"x_min":47,"x_max":939,"o":"m 47 0 l 47 778 l 281 778 l 281 600 l 469 600 l 614 456 l 614 144 l 469 0 l 47 0 m 281 178 l 381 178 l 381 422 l 281 422 l 281 178 m 706 0 l 706 778 l 939 778 l 939 0 l 706 0 z "},"ь":{"ha":644,"x_min":47,"x_max":614,"o":"m 47 0 l 47 778 l 281 778 l 281 600 l 469 600 l 614 456 l 614 144 l 469 0 l 47 0 m 281 178 l 381 178 l 381 422 l 281 422 l 281 178 z "},"э":{"ha":569,"x_min":25,"x_max":525,"o":"m 372 0 l 25 0 l 25 186 l 292 186 l 292 326 l 61 326 l 61 463 l 292 463 l 292 592 l 25 592 l 25 778 l 372 778 l 525 625 l 525 153 l 372 0 z "},"ю":{"ha":983,"x_min":47,"x_max":939,"o":"m 47 0 l 47 778 l 281 778 l 281 482 l 372 482 l 372 625 l 525 778 l 786 778 l 939 625 l 939 153 l 786 0 l 525 0 l 372 153 l 372 296 l 281 296 l 281 0 l 47 0 m 606 186 l 706 186 l 706 592 l 606 592 l 606 186 z "},"я":{"ha":658,"x_min":11,"x_max":611,"o":"m 281 406 l 378 406 l 378 600 l 281 600 l 281 406 m 47 368 l 47 642 l 183 778 l 611 778 l 611 0 l 378 0 l 378 236 l 319 236 l 264 0 l 11 0 l 122 293 l 47 368 z "},"Ӑ":{"ha":672,"x_min":10,"x_max":663,"o":"m 10 0 l 139 972 l 533 972 l 663 0 l 429 0 l 410 192 l 263 192 l 243 0 l 10 0 m 281 368 l 392 368 l 349 788 l 324 788 l 281 368 m 375 1217 l 550 1217 l 479 1028 l 193 1028 l 122 1217 l 297 1217 l 299 1117 l 374 1117 l 375 1217 z "},"ӑ":{"ha":617,"x_min":33,"x_max":569,"o":"m 33 144 l 33 467 l 344 481 l 344 583 l 47 583 l 47 778 l 408 778 l 569 617 l 569 0 l 178 0 l 33 144 m 258 342 l 258 186 l 344 186 l 344 367 l 258 342 m 325 1022 l 500 1022 l 429 833 l 143 833 l 72 1022 l 247 1022 l 249 922 l 324 922 l 325 1022 z "},"Ӓ":{"ha":672,"x_min":10,"x_max":663,"o":"m 10 0 l 139 972 l 533 972 l 663 0 l 429 0 l 410 192 l 263 192 l 243 0 l 10 0 m 281 368 l 392 368 l 349 788 l 324 788 l 281 368 m 140 1044 l 140 1197 l 301 1197 l 301 1044 l 140 1044 m 371 1044 l 371 1197 l 532 1197 l 532 1044 l 371 1044 z "},"ӓ":{"ha":617,"x_min":33,"x_max":569,"o":"m 33 144 l 33 467 l 344 481 l 344 583 l 47 583 l 47 778 l 408 778 l 569 617 l 569 0 l 178 0 l 33 144 m 258 342 l 258 186 l 344 186 l 344 367 l 258 342 m 90 850 l 90 1003 l 251 1003 l 251 850 l 90 850 m 321 850 l 321 1003 l 482 1003 l 482 850 l 321 850 z "},"Ә":{"ha":650,"x_min":43,"x_max":607,"o":"m 607 819 l 607 153 l 454 0 l 196 0 l 43 153 l 43 594 l 374 594 l 374 778 l 57 778 l 57 972 l 454 972 l 607 819 m 374 447 l 268 436 l 268 194 l 374 194 l 374 447 z "},"ә":{"ha":617,"x_min":44,"x_max":572,"o":"m 572 625 l 572 153 l 419 0 l 197 0 l 44 153 l 44 461 l 339 461 l 339 583 l 58 583 l 58 778 l 419 778 l 572 625 m 339 347 l 243 336 l 243 178 l 339 178 l 339 347 z "},"Ӕ":{"ha":821,"x_min":10,"x_max":796,"o":"m 10 0 l 179 972 l 782 972 l 782 778 l 607 778 l 607 589 l 754 589 l 754 403 l 607 403 l 607 194 l 796 194 l 796 0 l 382 0 l 382 192 l 268 192 l 243 0 l 10 0 m 294 368 l 382 368 l 382 796 l 351 796 l 294 368 z "},"ӕ":{"ha":917,"x_min":33,"x_max":872,"o":"m 33 144 l 33 467 l 344 481 l 344 583 l 53 583 l 53 778 l 364 778 l 453 689 l 542 778 l 872 778 l 872 317 l 578 317 l 578 194 l 844 194 l 844 0 l 178 0 l 33 144 m 578 431 l 674 442 l 674 600 l 578 600 l 578 431 m 258 342 l 258 186 l 344 186 l 344 367 l 258 342 z "},"Ѓ":{"ha":464,"x_min":47,"x_max":450,"o":"m 47 0 l 47 972 l 450 972 l 450 761 l 289 761 l 289 0 l 47 0 m 82 1050 l 82 1167 l 418 1206 l 418 1050 l 82 1050 z "},"ѓ":{"ha":453,"x_min":47,"x_max":435,"o":"m 47 0 l 47 778 l 435 778 l 435 565 l 281 565 l 281 0 l 47 0 m 97 856 l 97 972 l 433 1011 l 433 856 l 97 856 z "},"Ґ":{"ha":464,"x_min":47,"x_max":450,"o":"m 47 0 l 47 972 l 247 972 l 247 1136 l 450 1136 l 450 761 l 289 761 l 289 0 l 47 0 z "},"ґ":{"ha":458,"x_min":47,"x_max":435,"o":"m 47 0 l 47 778 l 232 778 l 232 953 l 435 953 l 435 565 l 281 565 l 281 0 l 47 0 z "},"Ғ":{"ha":464,"x_min":47,"x_max":450,"o":"m 78 353 l 78 519 l 411 519 l 411 353 l 78 353 m 47 0 l 47 972 l 450 972 l 450 761 l 289 761 l 289 0 l 47 0 z "},"ғ":{"ha":458,"x_min":10,"x_max":435,"o":"m 10 242 l 10 408 l 376 408 l 376 242 l 10 242 m 47 0 l 47 778 l 435 778 l 435 565 l 281 565 l 281 0 l 47 0 z "},"Ҕ":{"ha":664,"x_min":47,"x_max":619,"o":"m 47 0 l 47 972 l 608 972 l 608 778 l 289 778 l 289 558 l 503 558 l 619 442 l 619 -78 l 503 -194 l 317 -194 l 317 0 l 403 0 l 403 364 l 289 364 l 289 0 l 47 0 z "},"ҕ":{"ha":644,"x_min":47,"x_max":600,"o":"m 47 0 l 47 778 l 589 778 l 589 583 l 289 583 l 289 461 l 483 461 l 600 344 l 600 -78 l 483 -194 l 317 -194 l 317 0 l 383 0 l 383 283 l 289 283 l 289 0 l 47 0 z "},"Ӷ":{"ha":464,"x_min":47,"x_max":450,"o":"m 47 0 l 47 972 l 450 972 l 450 761 l 289 761 l 289 203 l 394 203 l 394 -194 l 217 -194 l 217 0 l 47 0 z "},"ӷ":{"ha":458,"x_min":47,"x_max":435,"o":"m 47 0 l 47 778 l 435 778 l 435 565 l 281 565 l 281 203 l 381 203 l 381 -194 l 203 -194 l 203 0 l 47 0 z "},"Ђ":{"ha":751,"x_min":19,"x_max":707,"o":"m 132 0 l 132 778 l 19 778 l 19 972 l 617 972 l 617 778 l 374 778 l 374 617 l 585 617 l 707 494 l 707 122 l 585 0 l 421 0 l 421 178 l 482 178 l 482 439 l 374 439 l 374 0 l 132 0 z "},"ђ":{"ha":661,"x_min":47,"x_max":614,"o":"m 47 0 l 47 972 l 281 972 l 281 883 l 507 883 l 507 782 l 281 782 l 281 703 l 453 703 l 614 542 l 614 -72 l 464 -222 l 292 -222 l 292 -53 l 381 -53 l 381 508 l 281 508 l 281 0 l 47 0 z "},"Ҙ":{"ha":569,"x_min":25,"x_max":536,"o":"m 375 0 l 335 0 l 335 -194 l 157 -194 l 157 0 l 25 0 l 25 194 l 299 194 l 299 403 l 69 403 l 69 589 l 274 589 l 274 778 l 35 778 l 35 972 l 350 972 l 511 811 l 511 582 l 424 508 l 536 417 l 536 161 l 375 0 z "},"ҙ":{"ha":547,"x_min":25,"x_max":514,"o":"m 514 114 l 400 0 l 357 0 l 357 -194 l 176 -194 l 176 0 l 25 0 l 25 188 l 268 188 l 268 315 l 47 315 l 47 468 l 254 468 l 254 590 l 36 590 l 36 778 l 378 778 l 492 664 l 492 469 l 419 408 l 514 324 l 514 114 z "},"Ѐ":{"ha":514,"x_min":47,"x_max":489,"o":"m 47 0 l 47 972 l 475 972 l 475 778 l 281 778 l 281 589 l 456 589 l 456 403 l 281 403 l 281 194 l 489 194 l 489 0 l 47 0 m 411 1050 l 75 1050 l 75 1206 l 411 1167 l 411 1050 z "},"ѐ":{"ha":617,"x_min":44,"x_max":572,"o":"m 44 153 l 44 625 l 197 778 l 572 778 l 572 317 l 278 317 l 278 194 l 558 194 l 558 0 l 197 0 l 44 153 m 278 431 l 375 442 l 375 600 l 278 600 l 278 431 m 479 856 l 143 856 l 143 1011 l 479 972 l 479 856 z "},"Ӗ":{"ha":514,"x_min":47,"x_max":489,"o":"m 47 0 l 47 972 l 475 972 l 475 778 l 281 778 l 281 589 l 456 589 l 456 403 l 281 403 l 281 194 l 489 194 l 489 0 l 47 0 m 300 1217 l 475 1217 l 404 1028 l 118 1028 l 47 1217 l 222 1217 l 224 1117 l 299 1117 l 300 1217 z "},"ӗ":{"ha":617,"x_min":44,"x_max":572,"o":"m 44 153 l 44 625 l 197 778 l 572 778 l 572 317 l 278 317 l 278 194 l 558 194 l 558 0 l 197 0 l 44 153 m 278 431 l 375 442 l 375 600 l 278 600 l 278 431 m 368 1022 l 543 1022 l 472 833 l 186 833 l 115 1022 l 290 1022 l 292 922 l 367 922 l 368 1022 z "},"Ё":{"ha":514,"x_min":47,"x_max":489,"o":"m 47 0 l 47 972 l 475 972 l 475 778 l 281 778 l 281 589 l 456 589 l 456 403 l 281 403 l 281 194 l 489 194 l 489 0 l 47 0 m 65 1044 l 65 1197 l 226 1197 l 226 1044 l 65 1044 m 296 1044 l 296 1197 l 457 1197 l 457 1044 l 296 1044 z "},"ё":{"ha":617,"x_min":44,"x_max":572,"o":"m 44 153 l 44 625 l 197 778 l 572 778 l 572 317 l 278 317 l 278 194 l 558 194 l 558 0 l 197 0 l 44 153 m 278 431 l 375 442 l 375 600 l 278 600 l 278 431 m 133 850 l 133 1003 l 294 1003 l 294 850 l 133 850 m 364 850 l 364 1003 l 525 1003 l 525 850 l 364 850 z "},"Є":{"ha":560,"x_min":43,"x_max":532,"o":"m 43 161 l 43 811 l 204 972 l 532 972 l 532 772 l 281 772 l 281 200 l 532 200 l 532 0 l 204 0 l 43 161 m 89 393 l 89 579 l 486 579 l 486 393 l 89 393 z "},"є":{"ha":569,"x_min":44,"x_max":544,"o":"m 197 0 l 44 153 l 44 625 l 197 778 l 544 778 l 544 592 l 278 592 l 278 463 l 508 463 l 508 326 l 278 326 l 278 186 l 544 186 l 544 0 l 197 0 z "},"Ӂ":{"ha":1022,"x_min":6,"x_max":1017,"o":"m 628 0 l 394 0 l 394 392 l 353 392 l 264 0 l 6 0 l 157 514 l 26 972 l 282 972 l 361 594 l 394 594 l 394 972 l 628 972 l 628 594 l 661 594 l 740 972 l 996 972 l 865 514 l 1017 0 l 758 0 l 669 392 l 628 392 l 628 0 m 550 1217 l 725 1217 l 654 1028 l 368 1028 l 297 1217 l 472 1217 l 474 1117 l 549 1117 l 550 1217 z "},"ӂ":{"ha":983,"x_min":19,"x_max":964,"o":"m 608 0 l 375 0 l 375 307 l 331 307 l 263 0 l 19 0 l 142 418 l 31 778 l 271 778 l 335 501 l 375 501 l 375 778 l 608 778 l 608 501 l 649 501 l 713 778 l 953 778 l 842 418 l 964 0 l 721 0 l 653 307 l 608 307 l 608 0 m 531 1022 l 706 1022 l 635 833 l 349 833 l 278 1022 l 453 1022 l 454 922 l 529 922 l 531 1022 z "},"Ӝ":{"ha":1022,"x_min":6,"x_max":1017,"o":"m 628 0 l 394 0 l 394 392 l 353 392 l 264 0 l 6 0 l 157 514 l 26 972 l 282 972 l 361 594 l 394 594 l 394 972 l 628 972 l 628 594 l 661 594 l 740 972 l 996 972 l 865 514 l 1017 0 l 758 0 l 669 392 l 628 392 l 628 0 m 315 1044 l 315 1197 l 476 1197 l 476 1044 l 315 1044 m 546 1044 l 546 1197 l 707 1197 l 707 1044 l 546 1044 z "},"ӝ":{"ha":983,"x_min":19,"x_max":964,"o":"m 608 0 l 375 0 l 375 307 l 331 307 l 263 0 l 19 0 l 142 418 l 31 778 l 271 778 l 335 501 l 375 501 l 375 778 l 608 778 l 608 501 l 649 501 l 713 778 l 953 778 l 842 418 l 964 0 l 721 0 l 653 307 l 608 307 l 608 0 m 296 850 l 296 1003 l 457 1003 l 457 850 l 296 850 m 526 850 l 526 1003 l 688 1003 l 688 850 l 526 850 z "},"Җ":{"ha":1072,"x_min":6,"x_max":1058,"o":"m 628 0 l 394 0 l 394 392 l 353 392 l 264 0 l 6 0 l 157 514 l 26 972 l 282 972 l 361 594 l 394 594 l 394 972 l 628 972 l 628 594 l 661 594 l 740 972 l 996 972 l 865 514 l 953 203 l 1058 203 l 1058 -194 l 881 -194 l 881 0 l 758 0 l 669 392 l 628 392 l 628 0 z "},"җ":{"ha":1033,"x_min":19,"x_max":1019,"o":"m 608 0 l 375 0 l 375 307 l 331 307 l 263 0 l 19 0 l 142 418 l 31 778 l 271 778 l 335 501 l 375 501 l 375 778 l 608 778 l 608 501 l 649 501 l 713 778 l 953 778 l 842 418 l 901 203 l 1019 203 l 1019 -194 l 842 -194 l 842 0 l 721 0 l 653 307 l 608 307 l 608 0 z "},"Ӟ":{"ha":589,"x_min":25,"x_max":560,"o":"m 399 0 l 25 0 l 25 194 l 318 194 l 318 403 l 72 403 l 72 589 l 293 589 l 293 778 l 32 778 l 32 972 l 374 972 l 535 811 l 535 582 l 447 508 l 560 417 l 560 161 l 399 0 m 61 1044 l 61 1197 l 222 1197 l 222 1044 l 61 1044 m 292 1044 l 292 1197 l 453 1197 l 453 1044 l 292 1044 z "},"ӟ":{"ha":547,"x_min":25,"x_max":514,"o":"m 514 114 l 400 0 l 25 0 l 25 188 l 268 188 l 268 315 l 47 315 l 47 468 l 254 468 l 254 590 l 36 590 l 36 778 l 378 778 l 492 664 l 492 469 l 419 408 l 514 324 l 514 114 m 44 850 l 44 1003 l 206 1003 l 206 850 l 44 850 m 275 850 l 275 1003 l 436 1003 l 436 850 l 275 850 z "},"Ѕ":{"ha":600,"x_min":43,"x_max":557,"o":"m 51 0 l 51 204 l 324 204 l 324 390 l 43 425 l 43 811 l 204 972 l 547 972 l 547 768 l 276 768 l 276 596 l 557 561 l 557 161 l 396 0 l 51 0 z "},"ѕ":{"ha":581,"x_min":44,"x_max":536,"o":"m 44 0 l 44 186 l 303 186 l 303 328 l 44 328 l 44 633 l 189 778 l 536 778 l 536 592 l 278 592 l 278 456 l 536 456 l 536 143 l 393 0 l 44 0 z "},"Ѝ":{"ha":678,"x_min":47,"x_max":631,"o":"m 631 0 l 413 0 l 413 556 l 239 0 l 47 0 l 47 972 l 265 972 l 265 417 l 439 972 l 631 972 l 631 0 m 489 1050 l 153 1050 l 153 1206 l 489 1167 l 489 1050 z "},"ѝ":{"ha":667,"x_min":47,"x_max":619,"o":"m 619 0 l 406 0 l 406 444 l 239 0 l 47 0 l 47 778 l 261 778 l 261 333 l 428 778 l 619 778 l 619 0 m 483 856 l 147 856 l 147 1011 l 483 972 l 483 856 z "},"Ӥ":{"ha":678,"x_min":47,"x_max":631,"o":"m 631 0 l 413 0 l 413 556 l 239 0 l 47 0 l 47 972 l 265 972 l 265 417 l 439 972 l 631 972 l 631 0 m 143 1044 l 143 1197 l 304 1197 l 304 1044 l 143 1044 m 374 1044 l 374 1197 l 535 1197 l 535 1044 l 374 1044 z "},"ӥ":{"ha":667,"x_min":47,"x_max":619,"o":"m 619 0 l 406 0 l 406 444 l 239 0 l 47 0 l 47 778 l 261 778 l 261 333 l 428 778 l 619 778 l 619 0 m 138 850 l 138 1003 l 299 1003 l 299 850 l 138 850 m 368 850 l 368 1003 l 529 1003 l 529 850 l 368 850 z "},"Ӣ":{"ha":678,"x_min":47,"x_max":631,"o":"m 631 0 l 413 0 l 413 556 l 239 0 l 47 0 l 47 972 l 265 972 l 265 417 l 439 972 l 631 972 l 631 0 m 158 1058 l 158 1208 l 519 1208 l 519 1058 l 158 1058 z "},"ӣ":{"ha":667,"x_min":47,"x_max":619,"o":"m 619 0 l 406 0 l 406 444 l 239 0 l 47 0 l 47 778 l 261 778 l 261 333 l 428 778 l 619 778 l 619 0 m 153 864 l 153 1014 l 514 1014 l 514 864 l 153 864 z "},"І":{"ha":431,"x_min":26,"x_max":404,"o":"m 26 -6 l 26 175 l 99 182 l 99 790 l 26 797 l 26 978 l 215 967 l 404 978 l 404 797 l 332 790 l 332 182 l 404 175 l 404 -6 l 215 6 l 26 -6 z "},"і":{"ha":328,"x_min":47,"x_max":281,"o":"m 47 0 l 47 778 l 281 778 l 281 0 l 47 0 m 47 850 l 47 1003 l 281 1003 l 281 850 l 47 850 z "},"Ї":{"ha":431,"x_min":26,"x_max":404,"o":"m 26 -6 l 26 175 l 99 182 l 99 790 l 26 797 l 26 978 l 215 967 l 404 978 l 404 797 l 332 790 l 332 182 l 404 175 l 404 -6 l 215 6 l 26 -6 m 38 1044 l 38 1197 l 194 1197 l 194 1044 l 38 1044 m 236 1044 l 236 1197 l 393 1197 l 393 1044 l 236 1044 z "},"ї":{"ha":328,"x_min":-14,"x_max":342,"o":"m 47 0 l 47 778 l 281 778 l 281 0 l 47 0 m -14 850 l -14 1003 l 143 1003 l 143 850 l -14 850 m 185 850 l 185 1003 l 342 1003 l 342 850 l 185 850 z "},"Ј":{"ha":625,"x_min":26,"x_max":582,"o":"m 26 161 l 26 458 l 260 458 l 260 203 l 349 203 l 349 769 l 65 769 l 65 972 l 582 972 l 582 161 l 421 0 l 188 0 l 26 161 z "},"ј":{"ha":328,"x_min":47,"x_max":281,"o":"m 47 -194 l 47 778 l 281 778 l 281 -194 l 47 -194 m 47 850 l 47 1003 l 281 1003 l 281 850 l 47 850 z "},"Ќ":{"ha":683,"x_min":47,"x_max":678,"o":"m 47 0 l 47 972 l 281 972 l 281 592 l 319 592 l 406 972 l 657 972 l 522 514 l 678 0 l 424 0 l 328 394 l 281 394 l 281 0 l 47 0 m 194 1050 l 194 1167 l 531 1206 l 531 1050 l 194 1050 z "},"ќ":{"ha":658,"x_min":47,"x_max":639,"o":"m 47 0 l 47 778 l 281 778 l 281 501 l 319 501 l 388 778 l 629 778 l 517 418 l 639 0 l 396 0 l 325 307 l 281 307 l 281 0 l 47 0 m 176 856 l 176 972 l 513 1011 l 513 856 l 176 856 z "},"Қ":{"ha":733,"x_min":47,"x_max":719,"o":"m 47 0 l 47 972 l 281 972 l 281 594 l 314 594 l 401 972 l 657 972 l 522 514 l 614 203 l 719 203 l 719 -194 l 542 -194 l 542 0 l 419 0 l 322 392 l 281 392 l 281 0 l 47 0 z "},"қ":{"ha":708,"x_min":47,"x_max":694,"o":"m 47 0 l 47 778 l 281 778 l 281 501 l 319 501 l 388 778 l 629 778 l 517 418 l 576 203 l 694 203 l 694 -194 l 517 -194 l 517 0 l 396 0 l 325 307 l 281 307 l 281 0 l 47 0 z "},"Ҡ":{"ha":760,"x_min":14,"x_max":754,"o":"m 14 771 l 14 972 l 357 972 l 357 594 l 390 594 l 478 972 l 733 972 l 599 514 l 754 0 l 496 0 l 399 392 l 357 392 l 357 0 l 124 0 l 124 771 l 14 771 z "},"ҡ":{"ha":735,"x_min":14,"x_max":715,"o":"m 14 576 l 14 778 l 357 778 l 357 501 l 396 501 l 464 778 l 706 778 l 593 418 l 715 0 l 472 0 l 401 307 l 357 307 l 357 0 l 124 0 l 124 576 l 14 576 z "},"Ҝ":{"ha":764,"x_min":47,"x_max":758,"o":"m 47 0 l 47 972 l 279 972 l 279 594 l 438 594 l 497 972 l 740 972 l 628 514 l 758 0 l 513 0 l 443 392 l 279 392 l 279 0 l 47 0 m 417 167 l 321 167 l 321 819 l 417 819 l 417 167 z "},"ҝ":{"ha":750,"x_min":47,"x_max":731,"o":"m 47 0 l 47 778 l 279 778 l 279 501 l 432 501 l 486 778 l 718 778 l 622 418 l 731 0 l 493 0 l 438 307 l 279 307 l 279 0 l 47 0 m 411 126 l 318 126 l 318 682 l 411 682 l 411 126 z "},"Ԛ":{"ha":667,"x_min":43,"x_max":629,"o":"m 43 161 l 43 813 l 204 974 l 454 974 l 615 813 l 615 189 l 382 42 l 382 761 l 276 761 l 276 200 l 629 96 l 629 -128 l 204 0 l 43 161 z "},"ԛ":{"ha":658,"x_min":44,"x_max":611,"o":"m 611 778 l 611 -194 l 378 -194 l 378 0 l 206 0 l 44 161 l 44 617 l 206 778 l 611 778 m 378 583 l 278 583 l 278 194 l 378 194 l 378 583 z "},"Љ":{"ha":1018,"x_min":10,"x_max":985,"o":"m 651 972 l 651 781 l 824 781 l 985 619 l 985 161 l 824 0 l 418 0 l 418 771 l 333 771 l 249 0 l 10 0 l 140 972 l 651 972 m 751 594 l 651 594 l 651 186 l 751 186 l 751 594 z "},"љ":{"ha":981,"x_min":18,"x_max":950,"o":"m 18 0 l 18 204 l 72 204 l 125 778 l 617 778 l 617 600 l 806 600 l 950 456 l 950 144 l 806 0 l 385 0 l 385 593 l 322 593 l 271 0 l 18 0 m 617 178 l 717 178 l 717 422 l 617 422 l 617 178 z "},"Ң":{"ha":717,"x_min":47,"x_max":703,"o":"m 47 0 l 47 972 l 281 972 l 281 606 l 386 606 l 386 972 l 619 972 l 619 203 l 703 203 l 703 -194 l 525 -194 l 525 0 l 386 0 l 386 394 l 281 394 l 281 0 l 47 0 z "},"ң":{"ha":711,"x_min":47,"x_max":697,"o":"m 47 0 l 47 778 l 281 778 l 281 500 l 381 500 l 381 778 l 614 778 l 614 203 l 697 203 l 697 -194 l 519 -194 l 519 0 l 381 0 l 381 289 l 281 289 l 281 0 l 47 0 z "},"Ҥ":{"ha":743,"x_min":47,"x_max":729,"o":"m 47 0 l 47 972 l 281 972 l 281 606 l 386 606 l 386 972 l 729 972 l 729 771 l 619 771 l 619 0 l 386 0 l 386 394 l 281 394 l 281 0 l 47 0 z "},"ҥ":{"ha":738,"x_min":47,"x_max":724,"o":"m 47 0 l 47 778 l 281 778 l 281 500 l 381 500 l 381 778 l 724 778 l 724 576 l 614 576 l 614 0 l 381 0 l 381 289 l 281 289 l 281 0 l 47 0 z "},"Њ":{"ha":986,"x_min":47,"x_max":953,"o":"m 47 0 l 47 972 l 281 972 l 281 606 l 386 606 l 386 972 l 619 972 l 619 781 l 792 781 l 953 619 l 953 161 l 792 0 l 386 0 l 386 394 l 281 394 l 281 0 l 47 0 m 719 594 l 619 594 l 619 186 l 719 186 l 719 594 z "},"њ":{"ha":978,"x_min":47,"x_max":947,"o":"m 381 0 l 381 289 l 281 289 l 281 0 l 47 0 l 47 778 l 281 778 l 281 500 l 381 500 l 381 778 l 614 778 l 614 600 l 803 600 l 947 456 l 947 144 l 803 0 l 381 0 m 614 178 l 714 178 l 714 422 l 614 422 l 614 178 z "},"Ӧ":{"ha":667,"x_min":43,"x_max":624,"o":"m 43 161 l 43 811 l 204 974 l 463 974 l 624 811 l 624 161 l 463 -1 l 204 -1 l 43 161 m 282 761 l 282 211 l 385 211 l 385 761 l 282 761 m 138 1044 l 138 1197 l 299 1197 l 299 1044 l 138 1044 m 368 1044 l 368 1197 l 529 1197 l 529 1044 l 368 1044 z "},"ӧ":{"ha":656,"x_min":44,"x_max":611,"o":"m 44 153 l 44 625 l 197 778 l 458 778 l 611 625 l 611 153 l 458 0 l 197 0 l 44 153 m 278 186 l 378 186 l 378 592 l 278 592 l 278 186 m 132 850 l 132 1003 l 293 1003 l 293 850 l 132 850 m 363 850 l 363 1003 l 524 1003 l 524 850 l 363 850 z "},"Ө":{"ha":658,"x_min":43,"x_max":615,"o":"m 43 161 l 43 811 l 204 972 l 454 972 l 615 811 l 615 161 l 454 0 l 204 0 l 43 161 m 276 778 l 276 563 l 382 563 l 382 778 l 276 778 m 276 194 l 382 194 l 382 410 l 276 410 l 276 194 z "},"ө":{"ha":617,"x_min":44,"x_max":572,"o":"m 44 153 l 44 625 l 197 778 l 419 778 l 572 625 l 572 153 l 428 0 l 197 0 l 44 153 m 261 625 l 261 439 l 356 439 l 356 625 l 261 625 m 261 153 l 356 153 l 356 339 l 261 339 l 261 153 z "},"Ҫ":{"ha":543,"x_min":43,"x_max":510,"o":"m 43 161 l 43 811 l 204 972 l 504 972 l 504 756 l 293 756 l 293 217 l 510 217 l 510 0 l 429 0 l 429 -194 l 251 -194 l 251 0 l 204 0 l 43 161 z "},"ҫ":{"ha":514,"x_min":44,"x_max":486,"o":"m 44 158 l 44 619 l 203 778 l 486 778 l 486 567 l 278 567 l 278 211 l 486 211 l 486 0 l 417 0 l 417 -194 l 239 -194 l 239 0 l 203 0 l 44 158 z "},"Ћ":{"ha":754,"x_min":19,"x_max":707,"o":"m 132 0 l 132 778 l 19 778 l 19 972 l 617 972 l 617 778 l 374 778 l 374 617 l 546 617 l 707 456 l 707 0 l 474 0 l 474 422 l 374 422 l 374 0 l 132 0 z "},"ћ":{"ha":661,"x_min":47,"x_max":614,"o":"m 47 0 l 47 972 l 281 972 l 281 703 l 453 703 l 614 542 l 614 0 l 381 0 l 381 508 l 281 508 l 281 0 l 47 0 m 54 782 l 54 883 l 507 883 l 507 782 l 54 782 z "},"Ў":{"ha":644,"x_min":15,"x_max":629,"o":"m 50 0 l 50 194 l 308 194 l 322 289 l 118 289 l 15 972 l 249 972 l 297 475 l 343 475 l 397 972 l 629 972 l 481 0 l 50 0 m 361 1217 l 536 1217 l 465 1028 l 179 1028 l 108 1217 l 283 1217 l 285 1117 l 360 1117 l 361 1217 z "},"ў":{"ha":644,"x_min":15,"x_max":629,"o":"m 50 -194 l 50 0 l 308 0 l 322 94 l 118 94 l 15 778 l 249 778 l 297 281 l 343 281 l 397 778 l 629 778 l 481 -194 l 50 -194 m 361 1022 l 536 1022 l 465 833 l 179 833 l 108 1022 l 283 1022 l 285 922 l 360 922 l 361 1022 z "},"Ӱ":{"ha":644,"x_min":15,"x_max":629,"o":"m 50 0 l 50 194 l 308 194 l 322 289 l 118 289 l 15 972 l 249 972 l 297 475 l 343 475 l 397 972 l 629 972 l 481 0 l 50 0 m 126 1044 l 126 1197 l 288 1197 l 288 1044 l 126 1044 m 357 1044 l 357 1197 l 518 1197 l 518 1044 l 357 1044 z "},"ӱ":{"ha":644,"x_min":15,"x_max":629,"o":"m 50 -194 l 50 0 l 308 0 l 322 94 l 118 94 l 15 778 l 249 778 l 297 281 l 343 281 l 397 778 l 629 778 l 481 -194 l 50 -194 m 126 850 l 126 1003 l 288 1003 l 288 850 l 126 850 m 357 850 l 357 1003 l 518 1003 l 518 850 l 357 850 z "}}}
